<?xml version="1.0" encoding="utf-8"?>
<!-- Generator: Adobe Illustrator 15.0.0, SVG Export Plug-In . SVG Version: 6.00 Build 0)  -->
<!DOCTYPE svg PUBLIC "-//W3C//DTD SVG 1.1//EN" "http://www.w3.org/Graphics/SVG/1.1/DTD/svg11.dtd">
<svg version="1.1" id="Layer_1" xmlns="http://www.w3.org/2000/svg" xmlns:xlink="http://www.w3.org/1999/xlink" x="0px" y="0px"
	 width="108px" height="82.5px" viewBox="0 0 108 82.5" enable-background="new 0 0 108 82.5" xml:space="preserve">
<g>
	<polygon fill="#FFFFFF" points="71.477,45.933 99.353,75.205 53.3,60.755 	"/>
	<polygon fill="#FFFFFF" points="37.225,2.499 47.531,46.887 50.171,45.169 61.402,46.755 64.969,38.83 	"/>
	<path fill="#FFFFFF" d="M65.174,37.945C70.234,27.583,75.212,16.863,80.433,6.48c0.287-0.568,0.44-1.745,1.424-1.66
		c0.625,0.797,0.169,1.853,0.076,2.687c-1.455,13.268-2.917,26.714-4.345,40.238c-0.098,0.949-0.45,2.168-0.315,2.847
		c0.169,0.874,2.156,2.475,2.924,3.24c5.182,5.18,9.585,10.374,14.861,15.654c1.355,1.353,2.947,3.02,4.508,4.663
		c0.456,0.483,1.354,1.219,1.107,1.741c-0.376,0.782-5.487,0.397-6.721,0.397c-14.297,0-27.841,0.232-42.057,0.232
		c-2.391,0-4.92-0.288-7.037,0c-1.251,0.172-2.655,0.891-4.033,1.344c-3.469,1.15-6.351,2.023-10.118,3.244
		c-1.835,0.593-2.156,0.789-2.686-1.107c-0.193-0.698-0.318-1.002-0.474-1.822c-1.962,0.93-3.019-1.628-3.874-2.762
		c-0.365-0.488-0.777-0.877-1.185-1.425c-0.33-0.446-1.021-1.275-1.028-1.58c-0.023-1.179,2.42-2.077,2.609-3.16
		c0.119-0.685-0.404-2.511-0.554-3.401c-1.279-7.611-2.87-15.752-4.033-23.241c-2.922,1.051-6.115,2.406-9.171,3.714
		c-0.924,0.398-1.961,1.259-3.003,0.793c-0.176-0.856,0.645-1.456,1.105-2.058c2.833-3.701,5.716-7.374,8.696-11.225
		c0.422-0.547,1.021-1.716,1.501-1.818c0.442-0.095,1.527,0.355,2.055,0.474c1.557,0.357,2.545,0.602,4.111,0.949
		c0.708,0.157,1.539,0.152,2.056,0.395c0.691,0.326,1.706,2.05,2.213,2.688c0.78,0.98,1.497,1.869,2.211,2.609
		c1.833-12.61,3.414-25.47,5.375-37.948c0.82-0.824,1.687,1.08,2.293,1.897C47.442,14.546,56.812,26.797,65.174,37.945z
		 M47.703,46.085c1.026-0.155,1.451-1.741,2.609-1.898c0.628-0.083,1.794,0.314,2.689,0.476c2.727,0.491,5.765,1.057,8.142,1.504
		c1.125-2.276,2.244-4.553,3.321-6.878C55.751,27.446,46.928,15.714,38.06,4.029C41.248,18.073,44.547,32.012,47.703,46.085z
		 M36.004,13.832c-1.024,7.48-2.094,14.729-3.086,22.215c-0.135,1.015-0.741,3.624-0.553,4.505c0.085,0.396,0.732,0.951,1.107,1.423
		c2.736,3.447,5.209,6.679,7.905,9.804c1.909-1.676,3.895-3.272,5.692-5.06c-3.358-13.904-6.375-28.146-9.803-41.978
		C36.97,7.67,36.438,10.66,36.004,13.832z M61.143,49.093c1.136,0.496,2.284,0.983,3.479,1.422c1.692-1.323,3.35-2.737,5.059-4.193
		c0.379-0.319,1.359-1.303,1.897-1.264c0.459,0.039,0.794,0.675,1.187,1.108c0.807,0.891,1.521,1.52,2.291,2.292
		c0.353,0.35,0.651,0.965,1.11,0.87c1.348-13.409,3.059-26.875,4.268-40.162C74.066,22.537,67.541,35.752,61.143,49.093z
		 M19.007,33.359c-2.633,3.351-5.215,6.751-7.828,10.116c2.277-1.88,4.716-3.859,7.035-5.848c0.767-0.657,1.547-1.661,2.372-1.976
		c1.487-0.566,3.177-0.244,4.901-0.793C23.356,34.333,21.161,33.864,19.007,33.359z M26.595,35.573
		c-1.768,0.287-3.594,0.517-5.375,0.792c2.508,14.327,5.274,28.404,7.826,42.688c4.845-7.488,9.511-15.153,14.151-22.846
		C37.676,49.317,32.264,42.315,26.595,35.573z M15.842,40.633c-1.548,1.317-3.143,2.644-4.425,3.952
		c0.004-0.05,0.011-0.093,0.079-0.078c1.438-0.637,2.885-1.202,4.347-1.822c1.408-0.594,2.821-1.476,4.428-1.579
		c0.556,1.372,0.691,2.893,0.948,4.346c1.724,9.717,3.617,19.766,5.375,29.329c0.129,0.704,0.073,1.541,0.554,2.134
		c1.002-0.159,0.352-1.445,0.236-2.056c-2.354-12.589-4.634-25.541-6.957-37.944C18.924,37.975,17.385,39.322,15.842,40.633z
		 M59.958,48.616c0.148-0.443,0.619-0.939,0.552-1.343c-2.167-0.26-4.362-0.907-6.403-1.027
		C56.102,46.99,57.989,47.844,59.958,48.616z M42.168,52.885c0.645,0.751,1.194,1.599,1.898,2.293
		c1.723-2.89,3.517-5.708,5.295-8.539c0.02-0.099,0.123-0.16-0.077-0.157C47.002,48.706,44.401,50.611,42.168,52.885z
		 M53.868,59.369c3.081-2.457,6.552-5.204,9.567-7.985c-3.998-1.563-7.834-3.286-11.857-4.822
		C52.308,50.865,53.067,55.138,53.868,59.369z M71.421,46.562c-5.672,4.712-11.437,9.328-16.997,14.152
		c14.595,4.508,29.02,9.188,43.559,13.756C89.413,65.196,80.296,55.784,71.421,46.562z M31.182,78.106
		c0.243,0.108,0.414-0.206,0.55-0.319c6.323-5.068,12.457-10.222,18.657-15.493c0.745-0.636,2.548-1.669,2.69-2.374
		c0.12-0.601-0.385-2.275-0.555-3.24c-0.538-3.067-1.272-7.518-1.897-9.802C44.184,57.325,37.706,67.736,31.182,78.106z
		 M49.443,68.46c-1.056,1.743-2.104,3.47-3.084,5.136c-0.344,0.591-0.822,1.188-0.791,1.663c17.107-0.075,34.266-0.101,51.229-0.318
		c-14.379-4.491-28.651-9.084-43.006-13.597C52.31,63.545,50.896,66.059,49.443,68.46z M41.537,71.228
		c-3.1,2.57-6.251,5.227-9.249,7.747c-0.123,0.104-0.451,0.218-0.396,0.474c4.133-1.35,8.206-2.756,12.413-4.031
		c2.484-4.157,5.021-8.265,7.431-12.493c0.085,0,0.062-0.101-0.079-0.077C48.464,65.677,44.926,68.412,41.537,71.228z
		 M23.039,72.568c0.675,0.907,1.355,1.805,2.053,2.69c-0.24-1.418-0.369-2.949-0.789-4.191
		C23.902,71.589,23.376,71.987,23.039,72.568z"/>
</g>
</svg>
