<?xml version="1.0" encoding="utf-8"?>
<!-- Generator: Adobe Illustrator 15.0.0, SVG Export Plug-In . SVG Version: 6.00 Build 0)  -->
<!DOCTYPE svg PUBLIC "-//W3C//DTD SVG 1.1//EN" "http://www.w3.org/Graphics/SVG/1.1/DTD/svg11.dtd">
<svg version="1.1" id="Layer_1" xmlns="http://www.w3.org/2000/svg" xmlns:xlink="http://www.w3.org/1999/xlink" x="0px" y="0px"
	 width="295.173px" height="250.346px" viewBox="0 0 295.173 250.346" enable-background="new 0 0 295.173 250.346"
	 xml:space="preserve">
<path fill-rule="evenodd" clip-rule="evenodd" d="M134.407,99.082c38.237,0,69.247,31.007,69.247,69.245
	s-31.01,69.244-69.247,69.244c-38.236,0-69.245-31.007-69.245-69.244S96.171,99.082,134.407,99.082"/>
<path d="M134.407,237.794c-38.303,0-69.464-31.162-69.464-69.47c0-38.302,31.161-69.463,69.464-69.463
	c38.305,0,69.467,31.162,69.467,69.463C203.874,206.632,172.712,237.794,134.407,237.794 M134.407,99.305
	c-38.058,0-69.021,30.963-69.021,69.02c0,38.062,30.962,69.025,69.021,69.025c38.06,0,69.024-30.963,69.024-69.025
	C203.431,130.268,172.467,99.305,134.407,99.305"/>
<path fill-rule="evenodd" clip-rule="evenodd" fill="#FFFFFF" d="M134.407,108.975c32.775,0,59.354,26.578,59.354,59.352
	s-26.579,59.352-59.354,59.352c-32.773,0-59.351-26.577-59.351-59.352S101.633,108.975,134.407,108.975"/>
<path d="M134.407,227.901c-32.85,0-59.574-26.726-59.574-59.574s26.724-59.575,59.574-59.575c32.851,0,59.575,26.726,59.575,59.575
	S167.258,227.901,134.407,227.901 M134.407,109.196c-32.603,0-59.129,26.526-59.129,59.131c0,32.604,26.526,59.131,59.129,59.131
	c32.604,0,59.131-26.527,59.131-59.131C193.538,135.722,167.011,109.196,134.407,109.196"/>
<path fill-rule="evenodd" clip-rule="evenodd" d="M73.591,5.203c1.374,0.989,2.196,2.143,3.299,3.408
	c8.791-4.506,17.693,1.262,27.036,0.11l6.21-0.495c5.001,2.308,12.97-1.319,15.828,5.11c1.921,3.792,2.088,8.298,3.408,12.31
	c1.318,6.046,3.628,11.707,5.659,17.531c0.822,5.057-4.067,7.476-7.639,9.727c0.934,0.441,1.925,1.156,2.365,2.143
	c0.329,0.992,0.053,2.036-0.662,2.75c-0.823,0.933-2.032,0.548-3.021,0.273c-0.771-0.604-1.318-1.539-1.429-2.527
	c-0.44-1.647,2.748-2.639,0.658-4.176c-0.218-1.045,0.275-1.814,0.771-2.527c1.429-0.716,2.363-2.366,2.527-3.958l-0.165-1.044
	c-5.441-6.595-7.584-14.782-13.41-20.993c-4.559,0-8.077,2.636-12.968,1.867c-1.867,0.221-3.299,1.539-5.001,2.254
	c-0.661,0.769,0.22,1.758-0.276,2.637c-0.713,3.299-1.812,6.652-1.539,10.277c5.991,2.749,8.41,9.012,10.663,14.509
	c3.517,3.463,5.88,7.582,7.362,11.981c2.421,1.758-0.714,4.286,0.661,6.484c1.044,1.705,2.747,3.188,2.253,5.551
	c1.427,2.145,4.397,1.482,5.551,3.518c2.143,1.647,5.714,1.316,6.704,4.395c1.649-0.823,2.583,0.716,3.736,1.538
	c1.265,0.222,2.748,0.441,3.298,1.872c-0.275,1.427,1.374,0.547,1.979,1.207c0.658,2.474,4.123,1.758,4.451,4.343
	c1.65,0.165,1.539,2.143,3.188,2.362c0.493,0.44,0.493,1.156,1.153,1.596c11.485-2.308,23.356-0.058,33.907,2.638
	c2.087-0.331,4.562-1.541,6.32,0.382c1.593-1.264,3.846-0.604,5.659-0.548c2.693,1.869,1.319,5.605,2.804,8.077
	c-0.934,3.792-2.032,7.804-1.595,11.872c0.55,10.276,1.101,20.882,1.044,30.556c0.496,1.101-0.439,2.857,0.826,3.462
	c6.813,0.219,13.684,1.045,20.443,1.813c1.538-2.639,2.362-6.317,5.495-7.64c1.154-0.274,2.363-0.054,3.297,0.386
	c1.045,0.878,1.319,1.979,1.76,3.079c3.406-0.99,5.715,2.251,8.957,1.426c1.098-0.878,2.692-0.713,4.066-0.934
	c3.078-4.562,6.155-9.122,7.528-14.343c0.551-1.32,1.925-2.197,3.188-2.638c1.43-0.385,2.639,0.659,3.794,0.108
	c-0.551-11.87-1.484-24.236-2.254-36.379c-1.373-1.43-4.233-1.318-4.452-3.573c-0.329-14.234-1.867-28.467-2.804-41.933
	c1.266-1.702-1.757-2.032-1.702-3.68c-0.055-2.308,1.044-4.617-0.111-6.872c-0.823-1.318-0.823-3.296-0.383-4.78
	c0.164-0.109,0.494-0.219,0.494-0.494v-0.385c0.493-0.22,1.044,0.77,1.209-0.165c-0.716-1.154,0.715-1.207,0.385-2.251
	c-0.496-0.44-2.034-0.331-1.428-1.432c0.494-0.713,0.823-1.429,1.043-2.251c-2.254-0.88-3.955-3.023-4.617-5.276l-0.659-0.494
	c-2.582,0-5.551,0.165-7.639-1.32c-0.935-0.165-1.813,0.111-2.254,0.769c0.167,0.826-0.219,1.596-0.823,1.978
	c-0.88,0.165-1.538-0.218-2.199-0.658c-0.604-0.769-0.054-1.485,0.386-2.089c1.044-0.549,2.308-0.438,2.637-1.867
	c2.639-3.296,7.311,1.098,9.893-2.75c1.595-0.381,2.143-3.13,3.956-2.143c2.146,1.21,4.231,2.694,6.871,2.805
	c1.483-1.155,1.319-3.298,3.297-3.85c2.364,0,4.617-1.042,6.814-0.658c1.484,2.308,4.066,4.174,3.958,7.144
	c0.548,1.594-3.079,3.902,0.273,4.342c2.31,0,4.671-0.934,6.595,0.493c2.034,1.103,3.956,2.31,6.32,2.419
	c0.386-0.494,1.154-0.494,1.595-0.274c0.548,0.439,1.098,1.043,0.658,1.703c-0.715,1.101-1.979,0.66-3.022,0.549
	c-3.408,2.256-7.804-1.318-10.826,1.705c2.472,3.956,0.55,8.573-0.384,12.641c-0.715,1.867-3.627,1.318-3.298,3.681
	c0.77,0.824,2.583,0.933,2.254,2.527l0.658,15.057l1.703,27.534c-1.317,1.595-3.298,1.813-4.507,3.463l2.528,40.172
	c4.067,2.802,10.168,1.484,13.19,5.935c0.77,2.145-1.43,3.902-0.66,6.212c0.769,2.032,3.133,3.956,1.869,6.319
	c-4.123,3.682,1.374,8.353-1.978,12.309c0.713,6.212-5.883,8.189-9.399,11.706l-0.274,0.386l0.55,10.441l2.747,42.591
	c1.484,2.363,2.804,5.496,1.484,8.298c-0.99,2.693-3.791,4.288-6.484,4.507c-2.858,0.164-5.275-1.209-6.87-3.682
	c-0.988-2.251-1.317-5.826,0.552-7.804c2.087-2.143,0.438-5.001,0.932-7.64c-0.769-14.837-2.143-29.29-2.911-43.8
	c-1.595-0.88-3.792-0.384-5.551-0.932c-3.077,0.272-5.33-3.85-8.299-1.432c-4.45,1.209-9.728-1.925-14.124,0.66
	c-0.658,1.374-1.703,2.914-3.133,3.57c-1.867,0.661-4.396,0.551-5.823-0.934c-3.022-3.352-3.902-7.583-5.662-11.485
	c-7.034-0.274-13.298-2.363-19.785-3.791c-1.703,19.564-12.858,38.303-30.609,48.142c-16.046,9.782-41.106,10.495-57.483,1.044
	c-6.815-3.572-13.188-8.354-18.354-14.674c-2.967-0.934-4.945,2.253-8.024,1.759c-1.705-0.274-3.516-1.154-5.166-0.825
	c-2.473,4.617-8.132,4.617-9.894,9.617c-1.978,2.31-0.604,6.981-4.726,7.256c-3.079,0.494-5.495,4.067-8.738,2.526
	c-1.541-1.044-3.407-2.582-3.683-4.504c-0.218-4.398,4.948-6.598,5.553-10.664c0.108-0.217,0.549-0.329,0.385-0.658
	c-1.485-0.935-2.692,0.493-3.795,1.319c-2.747,2.637-4.999,5.823-8.351,7.528c-3.517,0.988-4.288-3.078-6.979-4.231
	c-1.1-0.989-1.209-2.528-0.935-3.958c1.484-5.384,7.857-4.285,10.169-8.957c-0.66-1.044-1.431-1.759-2.254-2.803
	c-3.683,0.385-6.979,1.702-10.112,3.462c-1.648,0.275-2.802-0.494-3.958-1.209c-1.65-1.703-1.318-4.396-1.318-6.596
	c-1.318-1.702-2.967-3.791-1.758-6.044c2.089-2.858,6.595-2.912,9.672-1.977c1.209,0.548,2.529,1.207,3.518,2.087
	c0.878-0.275,2.252-0.386,2.637-0.935c-3.846-1.705-7.143-4.616-11.322-5.496c-1.374-0.823-2.914-2.197-3.021-3.846
	c-0.663-2.804,2.528-4.013,3.132-6.32c0.822-2.253,0.329-5.222,2.912-6.484c3.957,0.384,7.693,3.735,12.145,1.703
	c1.045,0.386,2.583,0.769,2.747,2.143c0.441,3.022-1.429,5.386-3.518,7.529c1.32,1.209,1.981,2.857,4.069,2.747
	c1.648,0.496,2.802,2.693,4.89,1.869c1.923-0.274,3.408-1.483,5.001-2.528c2.746-4.506-2.362-11.1,2.363-15.058
	c2.035-0.88,4.397,0.223,6.32-0.88c1.813-0.438,2.307,1.595,3.076,2.64c1.649,2.857,0.331,6.428-0.934,9.066
	c0.275,2.858-0.494,5.276-0.383,8.079c1.152-0.495,2.472-1.483,4.066-1.483c1.262,0,2.636,0.715,3.681-0.275l0.551-0.77
	c-5.168-24.95,5.33-48.416,26.102-62.539c-0.714-1.1-2.032-1.869-3.188-2.584c-1.593,0.44-2.418,2.802-4.449,1.538
	c-2.857,0-5.771-0.549-7.256-3.296c-0.879-2.363-4.232-0.936-6.21-1.705c-3.296-0.438-5.057-4.065-7.911-5.274
	c-3.134-0.658-7.202,0.111-8.959-3.022c-0.714-1.152-0.219-2.802-0.934-3.958c-1.374-1.207-2.639-2.527-4.23-3.185
	c-2.804,0.218-5.881,0.271-8.408-0.496c-0.387,0.714-0.991,1.318-1.485,1.976c2.363,2.254,1.044,5.443,1.209,8.3
	c0.549,0.878,1.485-0.108,2.254,0.385c0.822,0.276,1.427,0.934,1.812,1.703c0.769,1.376-0.218,2.585-0.77,3.736
	c2.035,2.969,3.739,6.266,6.595,8.685c1.705-0.987,3.352-2.472,5.553-1.868l1.539,1.318c1.427-0.22,3.076-0.167,4.229,0.549
	c1.32,0.769,1.758,2.365,1.32,3.792c-0.165,0.934-1.1,1.484-1.705,1.978c-1.098,0.33-2.253,0.057-3.187-0.493
	c-1.156-1.099-1.539-2.474-1.703-3.956c-2.308,2.306-3.407,6.319-6.981,7.528c-4.066,0.384-4.339-4.231-7.142-6.21
	c-4.288-6.431-11.047-8.628-17.641-10.278c-2.583-0.877-5.001-3.13-5.661-5.823c-0.825-2.968,0.329-5.826,0.877-8.574
	c-4.285-4.229-11.758-7.528-12.639-14.123c-0.604-6.924-0.44-15.004-0.658-21.764c0.273-2.472,1.374-4.615,2.912-6.595
	c3.185-2.802,7.637-2.69,11.705-3.406c7.693-1.596,15.717,1.045,22.697-1.702l0.934-1.045c-0.604-7.419-4.729-13.301-9.342-19.016
	c-1.923-3.462-3.243-7.144-3.957-11.103c0-4.394,5.441-5.713,6.815-9.343c2.692-2.745,6.264-3.296,9.396-5
	c1.702-1.758,2.747-5.495,5.934-4.89C66.996,2.015,69.854,4.709,73.591,5.203"/>
<path fill-rule="evenodd" clip-rule="evenodd" fill="#D13239" d="M73.591,7.016l2.527,2.914c-1.811,2.857-2.639,6.044-3.296,9.342
	c-1.649-1.044-3.793-1.044-5.168-2.474l0.276-0.933c0.551,0.381,1.044,1.209,1.594,1.429c0-0.88-1.042-1.652-1.207-2.639l1.427,1.21
	c0.44-0.99-1.32-1.814-1.154-3.023c0.661,0.549,0.769,1.539,1.594,1.813c0.054-1.427-1.649-2.473-1.594-4.068
	c0.989,0.881,2.199,2.529,3.408,3.575c0.549-0.498-0.385-1.045-0.274-1.705c0.934-0.66,2.362,1.319,2.525-0.167
	c-1.427-1.262-3.845-0.769-4.616-3.021c0.55-1.594-0.218-3.241-1.703-3.957c-0.218-0.053-0.276,0.165-0.383,0.276
	c0.547,0.878,1.262,2.032,0.77,3.021c-0.827-1.429-1.925-3.242-3.575-3.848l-0.275,0.276c1.156,0.991,1.813,2.418,2.254,3.848
	c-0.88,0.439-2.032,1.317-3.296,0.769c-0.661,0.385,0.549,0.66,0.384,1.209v1.427c-1.705-1.099-3.572-1.923-5.661-2.087
	c-0.165,0.111-0.329,0.276-0.276,0.496c2.2,1.044,4.836,1.591,6.212,3.956c-0.88-0.11-2.638-0.055-2.474-1.702
	c-0.275-0.331-0.604-0.496-0.933-0.496c-0.329,0.438,0.493,2.034-0.934,1.812c-1.265,0.112-2.583,0.769-3.299,1.597
	c1.813,0.053,3.681-1.265,5.659-0.387c1.485,1.319,4.07,1.484,4.617,3.682c1.813,2.035,4.616,2.804,5.826,5.278
	c-2.199-0.165-3.958-2.529-5.663-3.958c-1.315-1.705-2.855-3.903-5.054-3.958c3.901,2.363,6.046,7.419,10.332,9.342l-0.274,2.639
	c-1.211,0.386-2.145-0.549-3.025-1.154c-0.714,0.439,0.165,0.935,0.222,1.429c0.604,1.594,3.901,0.494,2.251,2.912
	c-0.493,2.143-1.1,4.232-1.979,6.21c-0.438-0.332-0.273-1.045-0.936-1.209c-0.383,0.66,0.223,1.482,0,2.363
	c-0.164,2.309-2.307,3.956-1.539,6.483c-2.251,1.374-3.24,4.562-6.099,4.619l-0.384,0.382c-1.703-3.956,1.54-7.582,0.769-11.703
	c0.934-0.991,2.308-1.21,3.19-2.145c-1.32-0.549-2.419,0.824-3.959,0.549h-0.658c-5.113-5-4.617-12.419-9.783-17.312
	c-0.991-2.032-2.473-4.229-1.704-6.702l3.847-3.685c3.461-0.658,7.145-1.539,9.507-4.341c-0.055-0.218,0.111-0.441-0.164-0.549
	l-2.366,1.705c0.88-1.432,1.925-3.135,3.575-3.958C66.667,3.06,69.854,5.752,73.591,7.016"/>
<path fill-rule="evenodd" clip-rule="evenodd" fill="#FFFFFF" d="M108.542,9.819c-7.804,2.912-16.595,1.099-24.951,0.494
	c-1.538,0.164-3.296,0.66-4.726,1.596c-3.185,2.416-2.527,7.033-3.185,10.549c-0.498,3.187-1.431,6.157-2.859,8.958
	c1.703-6.648,0.441-15.498,5.111-21.379c8.024-2.856,16.815,0.387,25.335,0.276L108.542,9.819z"/>
<path fill-rule="evenodd" clip-rule="evenodd" fill="#FFFFFF" d="M66.337,16.415c-0.769-1.265-2.474-3.025-1.044-4.617
	c-0.549-1.262,0.933-1.429,1.429-2.143C67.106,11.576,67.381,14.437,66.337,16.415"/>
<path fill-rule="evenodd" clip-rule="evenodd" fill="#D13239" d="M124.094,13.336c3.354,6.924,2.914,15.386,6.486,22.203
	c0.934,3.792,4.782,7.418,2.639,11.597c-0.936,1.152-1.872,2.527-3.298,2.912c-1.099-1.044-2.033,1.154-3.187,1.538
	c-1.154-2.198,1.925-2.967,2.363-4.837c0.66,0.111,1.044,1.594,1.758,0.769l-1.483-2.747c0.936-0.494,2.252,0.991,2.804-0.276
	c-0.881,0.332-1.539-0.604-2.254-0.933c-2.09-3.461-1.594-7.969-4.505-11.102c-2.419-3.517-6.157-6.759-6.705-11.209
	c-0.44-0.222-0.771-1.209-1.319-0.769c1.044,1.756,1.208,3.846,1.813,5.824c2.859,4.892,8.022,8.793,8.573,14.617
	c-2.254-3.957-5.11-7.969-7.088-12.143c-1.65-2.143-3.298-4.232-4.124-6.707c-0.549-1.703,0.881-2.583,1.318-3.846
	c1.103-0.769,2.419-1.209,2.806-2.473c-1.101-0.494-2.366,0.164-3.298,0.879c-0.826-0.22-1.759-0.111-2.364,0.438
	c0,0.604,0.769,0.441,1.153,0.661c-0.328,0.22-0.055,0.713-0.493,0.877c-1.318-0.658-1.43-2.416-2.254-3.407
	c-0.713,1.319,1.101,4.123-1.705,3.958c-6.319,0.823-13.956,0.053-19.397,3.683c-0.879,0.273-1.265-1.264-1.979-0.496
	c0.659,0.605,0.659,2.143,1.979,1.979c3.683-1.814,7.528-3.299,11.87-3.575c3.572,0.333,6.541-0.329,9.618-1.592
	c0.551,0.385,1.591,0.658,1.43,1.592c-1.483,1.76-4.342,0.827-6.32,1.816c-1.925,1.154-4.123,0.548-6.322,1.098
	c-3.352,0.496-6.045,3.353-9.78,2.089c-3.189-0.934-6.924-2.418-8.409-5.826c-0.661,0.218-0.989-1.099-1.594-0.218
	c0.22,2.086,3.297,3.405,2.363,5.659c0.604-0.22,0.658-0.824,0.822-1.318c1.707,0.987,3.85,1.812,5.938,2.472
	c-2.803,0.823-6.32-0.111-8.849-1.538c-0.218,0-0.549-0.165-0.66,0.109v0.385l4.341,2.365c0.331,4.341-1.099,8.297-1.316,12.527
	c0.329,1.65,1.591,2.967,0.769,4.784c3.077,2.307,4.286,5.769,5.715,8.844c0.44-1.539-0.714-3.021-1.099-4.505
	c-0.936-1.374-1.485-2.912-2.86-4.066c0.167-1.978-0.163-4.011-1.315-5.55c0.381-2.31,0.711-4.617,1.427-6.76
	c0.11,0.275,0.331,0.108,0.551,0.165c0.604-0.604-0.551-1.318-0.165-1.978c0.658,0.22,0.769,1.153,1.482,1.317
	c0.109-1.044-1.264-1.923-1.209-2.912c0.769,0.384,1.101,1.867,1.978,2.527l0.274-0.273c-0.438-1.32-1.428-2.365-1.703-3.681
	c1.209,0.823,1.099,2.472,2.474,3.021c0.165-1.154-0.771-2.145-1.154-3.19l1.703,1.98l0.273-0.273
	c-0.329-0.716-0.769-1.431-0.934-2.2c0.824-0.382,1.374,0.933,1.978,1.319c0.551-0.55-1.262-2.471,0.769-1.978
	c0.33,0,0.661-0.11,0.828,0.218c-0.716,6.487-3.023,12.586-2.419,19.291c0.494,1.813,2.419,3.022,3.188,4.728
	c0.713,1.262,0.769,2.967,1.867,3.956l0.22-0.275c0-1.868-0.385-3.572-1.154-5.11v-1.21c0.33-0.053,0.604,0.33,0.769-0.11
	c-0.275-0.547-0.604-1.316-1.319-1.483c-0.274,0.055-0.605-0.056-0.769,0.274l0.387,1.596c-0.936-1.321-0.992-3.793-0.936-5.936
	c3.792,3.352,5.826,7.804,4.892,13.08c-0.991,3.022-1.76,6.152-2.365,9.34c-0.109-1.756-0.218-4.122-0.934-5.933l-0.383,0.384
	c-1.375,3.681,0.603,6.98,1.592,10.165c0.165,3.683,1.54,7.804-1.098,10.828c-2.254,6.483-4.729,14.563-12.366,16.762l-8.958,3.132
	c-5.606-4.396-11.816-7.804-19.289-7.361c-1.43-0.223-3.628,0.438-4.727-0.551l-0.165-2.747c1.099,0.604,1.538,2.088,2.637,2.471
	c0.165-1.154-1.156-1.374-1.538-2.471c-0.44-0.714-1.209-1.541-0.822-2.252c0.987,0.604,1.591,2.965,3.02,3.021l-0.384-0.936
	c0.605-0.218,1.154,1.264,1.868,1.1c-0.165-0.713-0.658-1.209-0.823-1.869l2.143,1.596c0.22-0.716-0.881-1.209-0.934-1.979
	c0.273,0.165,0.549,0.823,0.934,0.383c0.769,0.275,0.934,1.431,1.812,1.431c0.276-0.604-0.658-1.044-0.769-1.707
	c1.705-0.053,3.738-0.053,5.166,1.045c1.484,2.805,4.341,4.453,6.981,5.55l0.106-0.106c-1.976-1.87-4.67-3.575-5.659-6.102
	c-1.646-1.593-3.901-0.658-5.934-1.32l-2.527-0.381c0.824-1.266,0.439-3.575,1.867-4.893c-0.054-0.164,0.111-0.385-0.109-0.493
	c-2.143,1.151-1.814,3.736-3.298,5.386c-1.043-0.33-1.921-1.485-2.525-2.254c-0.934-2.639,0.546-5.167,0.271-7.749
	c-0.769,0.438-0.987,1.483-1.316,2.088c-0.551-0.987-0.66-2.472-1.705-3.023c0.276,3.903,2.639,7.804,0.661,11.872
	c-0.44-1.429-1.209-2.967-1.979-4.341c0.329-0.66,1.539-1.374,1.317-2.254c-0.713,0.385-1.593,0.826-2.418,0.661l-3.023-2.749
	l-0.382,0.222c3.57,4.176,7.857,9.285,5.548,15.057c-0.822,2.527-3.022,4.505-4.503,6.705c-0.551,0.108-1.65-0.056-1.32-0.77
	c1.649-1.593,1.098-4.179,1.978-5.935l1.045,0.659c0.383-0.714-0.276-1.374-0.222-2.088l0.879,0.495
	c0.551-0.66-0.439-1.211-0.108-1.815c0.438,0.055,0.66,1.156,1.209,0.387c-0.056-0.604-0.549-0.989-0.549-1.594
	c0.218,0.163,0.493,0.163,0.658-0.111c-0.549-0.877-0.549-1.978-0.769-2.912c-0.769,0.385-0.715,1.595-1.098,2.364
	c-2.143,2.638-2.858,5.661-3.134,8.958c-0.276,0.877-1.21,1.813-2.143,1.978c-1.539,0.273-2.639-0.604-3.958,0.273
	c1.043,0.936,2.363,1.705,3.958,1.594c0.275,0.223,0.22,0.934,0.824,0.663c0.825-0.44-0.661-1.925,0.934-1.485
	c0.108,1.649-1.539,3.132-2.912,4.121c-0.385,0-0.661,0.221-0.934,0.496v0.273c1.482,0.056,2.967-0.548,4.23-1.427
	c1.813,0.494,2.418,2.637,3.407,4.066c1.758,3.463,4.672,6.483,8.188,8.188h0.276c0.822,2.803,5.385,4.341,3.681,7.914
	c0.055,0.165,0.22,0.108,0.384,0.108c0.715-0.604,1.098-1.646,1.209-2.636c0.88,0.329,0.385,1.647,1.427,1.702
	c0.938-1.429-2.525-2.529,0-3.68c0.938-0.551,2.09-1.32,3.19-0.663l0.383,0.386c-3.352,1.813-3.736,9.289-8.848,7.035
	c-1.209-0.936-1.263-2.253-2.087-3.298c-3.957-5.55-9.509-8.024-14.508-11.87l-5.936-3.022c2.143-1.154,4.286,0.77,6.32,1.429
	l0.108-0.109c-2.143-2.089-5.166-3.959-8.298-2.803c-0.275-0.167-0.66-0.387-0.769-0.66c0-2.586,1.541-4.506,2.087-6.871
	c0.496-3.847,0.551-7.693,1.979-11.321c-0.823-3.626,0.936-7.144,1.045-10.825c-0.44-3.188-0.659-7.31,2.253-9.068
	c8.08-0.056,16.322-2.472,20.06-10.168c1.429-2.583-1.321-5.879,1.317-7.911c2.089-1.98,5.057-2.364,6.707-4.783
	c0.658,2.143,0.22,4.562,0.165,6.595c0.055,0.167,0.22,0.167,0.385,0.167c3.079-3.246-0.33-7.257,1.044-10.938
	c1.318-3.079,2.639-6.102,3.957-9.123c3.516-5.22,4.067-11.321,4.784-17.696c0.329-2.034,2.141-3.461,4.063-3.959
	c5.606-0.987,11.156,0.769,16.762,0.551c6.21,0.604,10.828-3.242,16.874-2.253C118.71,9.931,121.952,10.588,124.094,13.336"/>
<path fill-rule="evenodd" clip-rule="evenodd" fill="#FFFFFF" d="M47.321,17.732c1.044,2.859,2.363,5.772,4.617,8.024
	c2.694,4.068,2.967,9.398,7.419,12.53c-1.154,0.77-1.813,1.813-2.363,3.022l0.22,0.276c1.098-0.551,1.703-2.254,3.077-2.09
	c0.66,2.53-1.154,4.453-1.319,6.813c-0.331,2.2,1.758,5.057-0.275,6.762c-0.33-0.384,0.11-1.044-0.385-1.318
	c-0.88,0.438-0.551,1.648-0.825,2.472c-1.702,0-2.967,0.934-4.341,1.76c-0.934,0.218-1.429-0.936-2.089-1.103
	c-0.053-1.427,2.419-0.438,3.41-1.316c1.098-0.33,2.361-1.046,2.748-2.2c-0.332-0.549-1.156,0.22-1.321-0.658
	C56.006,40.1,46.499,33.559,43.64,24.162c-0.825-2.031-0.716-4.945,0.382-6.868c0.662-0.824,1.542-1.705,2.529-1.98L47.321,17.732z"
	/>
<path fill-rule="evenodd" clip-rule="evenodd" fill="#D13239" d="M259.561,18.776c0.44,0.22,0.275,0.88,0.111,1.156l-0.111,0.165
	c0.77,0.438,2.089,0.493,2.254,1.703c2.145,3.078-1.649,5.165-1.87,7.804c-2.745-2.034-0.877-6.869-3.681-9.123
	c-0.273,0.604,0.331,1.209,0.11,1.979c-1.484-0.165-1.813-2.198-3.133-2.748c-0.494,0.878,1.209,1.703,0.221,2.472
	c0.275,0.387,0.88,0.329,1.319,0.55c0.438,0.934-0.331,2.472,0.659,3.023c0.493-0.662,0.164-1.596,0.934-2.089l0.55,0.494
	c0,2.418,0.823,4.672,1.593,6.595c-2.912-1.154-6.209-3.296-9.396-1.703c-1.924,1.321-4.617-0.496-6.431,1.044
	c0.661,0.439,1.538,0.276,2.199,0.659c0.11,0.44-0.439,0.604-0.661,0.934c-3.516-1.045-3.352-5.276-6.047-7.143
	c-0.327,0.44,0.224,0.822,0.113,1.316c-2.858,0.331-5.33,0.164-7.75-1.043c-0.713,0.22-1.593,0.056-2.143,0.661
	c-0.055-0.77,1.044-1.597,1.759-1.979c1.703-0.439,3.848-0.33,5.386,0.383c0,0.332-0.056,0.663,0.275,0.827
	c1.374-2.254,4.121-2.583,5.659-4.781c2.143,0.109,3.902,1.976,5.937,2.802l0.77,0.274c-0.604,1.318-2.583,0.495-3.133,1.705
	c1.538,0.053,3.297-0.058,4.614-0.934c0.826-1.925,1.815-4.288,3.794-5.168C255.44,18.503,257.858,17.127,259.561,18.776"/>
<path fill-rule="evenodd" clip-rule="evenodd" fill="#D13239" d="M72.547,20.371v1.427c-1.265-0.604-2.31-1.262-3.188-2.525
	C70.513,19.437,71.724,19.382,72.547,20.371"/>
<path fill-rule="evenodd" clip-rule="evenodd" d="M252.968,22.459h-0.384l0.217-0.385C252.968,22.13,252.968,22.294,252.968,22.459"
	/>
<path fill-rule="evenodd" clip-rule="evenodd" fill="#FFFFFF" d="M227.742,26.801v0.275l-1.044-1.046
	C227.358,25.812,227.632,26.361,227.742,26.801"/>
<path fill-rule="evenodd" clip-rule="evenodd" fill="#FFFFFF" d="M227.356,27.625c-1.099,0.33-0.823-0.604-1.044-1.209
	L227.356,27.625z"/>
<path fill-rule="evenodd" clip-rule="evenodd" fill="#D13239" d="M268.903,29.603c1.319,0.496,1.87,2.474,3.572,2.363
	c0.935-0.934,1.979,0.716,3.188,0.496l0.11,0.165l-0.656,0.385c-3.081,1.044-5.442-0.99-8.467,0.275
	c-0.438-1.044-1.649-1.429-2.748-1.593l-0.11,0.108c0.222,0.661,1.266,0.934,1.047,1.758l-1.484,0.111
	c-0.057,0.603,0.494,1.264,0.548,1.976c-0.987-1.152-3.516-2.249-1.978-4.23c-0.44-0.658-0.715-1.649-0.386-2.471
	C263.849,30.758,266.485,28.669,268.903,29.603"/>
<path fill-rule="evenodd" clip-rule="evenodd" fill="#FFFFFF" d="M258.077,31.416c0.496,0.716,0.496,1.594,1.319,2.143
	c1.484-0.273,2.528,1.32,3.187,2.198c0.771,2.037,2.969,3.41,2.089,6.102c-0.658,2.09-2.143,3.846-1.979,6.319
	c-0.439,0.331-0.823,0.934-1.428,0.934c0.77-2.033-1.978-2.745-1.211-4.617c0.771,0.332,1.651,0.276,2.256,0.936
	c0.108-0.713-0.771-1.375-0.937-2.145l-0.658-0.493c0.494-0.276,0.221-0.826,0.275-1.21c-1.539-1.098-2.475-2.912-4.231-3.683
	c-0.826,1.267,1.263,1.981,1.483,3.135c-0.825,1.044-2.145,0.877-3.188,1.317c0.386,0.661,1.211,0.934,1.867,1.21
	c0.661,0.055,1.43-0.659,1.98-0.109c-0.165,2.145-0.659,4.177-1.595,6.044c-2.032-2.253-3.846,0.824-5.824,1.211
	c-2.42-1.044-5.715-1.044-7.749,0.494c-0.22,1.262,1.265,1.703,1.812,2.364c-0.987-0.497-2.253-1.266-2.088-2.64
	c-0.494-1.318,0.825-2.252,0.936-3.518c0.988-1.869,3.022,0,4.231-1.317c1.484,0.108,2.637,1.374,4.175,0.878
	c0.88,0.055,2.254,2.254,2.64,0.167l-0.222-2.914c-0.548-0.167-0.823-0.167-1.211-0.66c-2.635-1.43-5.549-2.639-8.844-2.087
	c-0.165-0.055-0.275,0.165-0.386,0.22c0.165,0.218,0.11,0.549,0.11,0.822c-0.439,0.112-1.209,0.276-1.703,0.769h-0.275
	c-0.329-1.042-0.056-2.143,0.824-2.912c1.319-0.055,0.825-1.976,2.363-1.539c0.219,0.661-0.551,0.879-0.275,1.539
	c0.33,0.44,0.77,0.386,1.209,0.44c0.386-0.825,0.934-1.704,0.494-2.638c-2.472-0.218-0.384-4.562-3.406-3.077
	c1.593-1.374,1.428-4.562,4.067-4.452C251.483,28.616,255,29.825,258.077,31.416"/>
<path fill-rule="evenodd" clip-rule="evenodd" fill="#FFFFFF" d="M260.991,31.308c-0.11,0.385-0.222,0.987-0.661,1.042
	c-0.438-0.438,0.715-0.989-0.275-1.317c-0.327,0-0.548,0.108-0.767,0.384c0,0.329,0.219,0.548,0.108,0.933h-0.219
	c-0.44-0.658,0.11-1.209,0.494-1.702C260.275,30.537,260.826,30.756,260.991,31.308"/>
<path fill-rule="evenodd" clip-rule="evenodd" d="M256.099,31.966c-0.823,0.053-1.648,0.33-2.361,0.769
	c1.209,0.66,1.428,2.636,3.022,2.53c-3.133-0.551-5.883,2.692-9.234,0.769C249.89,33.998,252.582,30.922,256.099,31.966"/>
<path fill-rule="evenodd" clip-rule="evenodd" fill="#FFFFFF" d="M277.862,32.735c-0.165,0.385-0.99,0.385-1.045,0H277.862z"/>
<path fill-rule="evenodd" clip-rule="evenodd" d="M260.881,37.078c-0.111,1.098,0.825,1.813,1.43,2.637
	c-1.87-1.099-4.398-3.295-4.067-5.936C259.672,34.438,259.728,36.088,260.881,37.078"/>
<path fill-rule="evenodd" clip-rule="evenodd" d="M66.721,34.878c-1.925,0-3.956,0.824-5.771,1.156
	c1.485-1.705,3.516-2.254,5.771-1.596V34.878z"/>
<path fill-rule="evenodd" clip-rule="evenodd" fill="#FFFFFF" d="M248.351,43.012c-0.934,0.496-1.978,0.716-3.022,0.936
	c-0.439-0.661,0.108-1.209,0.494-1.705C246.702,43.287,248.297,41.198,248.351,43.012"/>
<path fill-rule="evenodd" clip-rule="evenodd" fill="#FFFFFF" d="M102.333,49.882c0.934,2.474,2.419,5.33,1.044,8.08
	c-1.649,5.769-1.704,12.695-1.98,18.574c-0.713,3.187-3.352,5.551-3.296,9.122c-1.646,5.112-3.625,10.881-9.233,13.575
	c-4.835,2.694-10.388,3.736-15.386,6.043c-2.254,0.275-5.278,0.771-7.036-0.934c-0.715-0.714-1.098-1.594-1.429-2.472
	c1.705,1.21,3.408,2.637,5.826,2.252c6.046-1.153,11.047-4.945,16.873-6.76c8.298-3.681,6.866-13.079,11.595-19.125
	c0.055-3.792-0.056-7.914-0.385-11.703c0.44-5.826,4.67-11.048,1.979-17.147c-1.099-2.474-2.584-4.781-4.232-7.035
	C99.254,44.387,100.739,47.243,102.333,49.882"/>
<path fill-rule="evenodd" clip-rule="evenodd" fill="#FFFFFF" d="M253.462,44.112c0.165,0.549,1.044,0.604,0.934,1.154
	c-1.595-0.989-3.519-1.209-5.275-1.813v-0.934C251.373,41.638,251.319,44.77,253.462,44.112"/>
<path fill-rule="evenodd" clip-rule="evenodd" fill="#FFFFFF" d="M244.395,43.837c-0.056,0.329-0.221,0.657-0.55,0.934
	c-0.386-0.276-0.222-0.987,0-1.318C244.228,43.286,244.228,43.672,244.395,43.837"/>
<path fill-rule="evenodd" clip-rule="evenodd" fill="#FFFFFF" d="M248.076,45.157c0.221,0.769-0.77,0.714-1.209,0.494
	c0.164-0.549-0.88-1.045,0-1.43C247.69,44.056,248.076,44.44,248.076,45.157"/>
<path fill-rule="evenodd" clip-rule="evenodd" fill="#FFFFFF" d="M250.604,45.65v0.165c-0.604-0.218-1.979-0.053-1.979-1.209
	C249.12,43.837,250.934,44.33,250.604,45.65"/>
<path fill-rule="evenodd" clip-rule="evenodd" fill="#FFFFFF" d="M245.822,45.157v0.384c-1.319-0.824-1.867,2.912-2.088,0.273
	C244.228,45.157,245.383,44.221,245.822,45.157"/>
<path fill-rule="evenodd" clip-rule="evenodd" fill="#FFFFFF" d="M254.561,46.201v0.658c-1.264,0.441-1.868-1.538-3.298-1.042
	c0.057-0.332-0.219-0.881,0.221-0.936C252.637,44.661,253.352,46.201,254.561,46.201"/>
<path fill-rule="evenodd" clip-rule="evenodd" fill="#FFFFFF" d="M262.035,53.565c1.374,13.846,1.648,28.139,2.418,42.205
	c-2.089-0.493-4.123-2.033-6.21-2.856l-2.639-42.207l0.11-0.166C258.022,51.091,259.946,52.519,262.035,53.565"/>
<path fill-rule="evenodd" clip-rule="evenodd" fill="#FFFFFF" d="M257.308,92.748c-2.857,1.374-5.494,3.241-8.463,4.341
	l-1.044-14.728l-1.593-26.653c0.165,0.22,0.438,0.275,0.659,0.275c0.164-0.167,0.383-0.331,0.274-0.551
	c-0.11-0.438-0.66-0.273-0.934-0.108c2.802-1.594,5.495-3.241,8.463-4.232L257.308,92.748z"/>
<path fill-rule="evenodd" clip-rule="evenodd" d="M254.01,51.86c0.275,0.33-0.054,0.604-0.383,0.658h-0.275V51.86H254.01z"/>
<path fill-rule="evenodd" clip-rule="evenodd" d="M256.76,52.025c0.054,0.111-0.057,0.165-0.11,0.22h-0.273v-0.22H256.76z"/>
<path fill-rule="evenodd" clip-rule="evenodd" fill="#FFFFFF" d="M128.601,54.499c-0.934,1.154,1.374,2.637-0.934,2.912
	c-0.769-0.493-0.328-1.979-1.593-1.87c-0.332,0.276-0.496,0.549-0.385,0.936c-0.165-0.824-0.33-1.484,0.111-2.253
	c0.493-0.659,1.482-0.384,2.143-0.22C128.161,54.059,128.383,54.333,128.601,54.499"/>
<path fill-rule="evenodd" clip-rule="evenodd" d="M261.814,54.113v0.276h-0.659C260.881,54.06,261.596,53.838,261.814,54.113"/>
<path fill-rule="evenodd" clip-rule="evenodd" fill="#FFFFFF" d="M50.4,54.224c-0.496,0.494-0.825,2.637-1.979,1.758
	c-4.892-1.264-10.058-0.055-14.675,0.879c-3.296-0.054-7.252-0.934-10.167-0.659c5.003-1.76,10.936-1.539,16.377-1.703
	C43.693,54.608,46.663,54.94,50.4,54.224"/>
<path fill-rule="evenodd" clip-rule="evenodd" d="M253.627,57.686c0.823,2.8,1.373,6.705-0.551,9.232
	c-0.823,0.662-2.199,1.156-3.133,0.387c-2.526-1.265-2.802-4.124-3.188-6.595c0-2.254,0.33-4.837,2.64-5.662
	C251.263,54.443,252.637,56.366,253.627,57.686"/>
<path fill-rule="evenodd" clip-rule="evenodd" fill="#D13239" d="M57.214,57.796c0.549-0.331,0.716-0.989,0.824-1.593
	c0.661,1.923,0,4.45-1.318,6.097c-2.309,2.641-5.55,3.683-8.573,4.892c-4.728,2.037-10.938-0.658-14.674,3.793
	c-1.483-0.33-3.736-1.209-5.001,0.275v0.276l3.681,0.769c0.057,0.824-0.436,1.813-1.152,2.527c-2.694-0.441-3.956-3.188-5.441-5.166
	c-0.824-1.154-0.934-2.638-1.978-3.684c-0.549-0.053-0.604,0.604-0.879,0.936c0.219,1.374,1.374,2.033,2.197,3.132
	c0.715,1.485-0.383,4.232,1.484,5.167c0.441-0.604-0.328-1.594,0.112-2.363c1.042,0.989,2.198,2.363,3.571,2.912
	c-1.813,0.715-4.176,0.44-5.661-0.823c-0.329-0.11-0.604,0.109-0.658,0.383c0.658,1.595,2.581,1.705,4.066,2.143
	c0.769,2.254-2.419,2.585-1.981,4.729c0.716,1.702,0,4.449,2.53,4.89c0.276,0.328,0.276,0.769,0.661,1.044
	c0.934-0.77-0.112-1.758-0.165-2.636c-0.825-0.88-1.925-2.089-1.321-3.575c2.254-1.099-0.22-5.386,3.188-4.834
	c-0.111,3.735-1.428,7.199-0.934,11.045c-1.154,1.265-3.023,1.43-3.959,2.803c0.059,0.273,0.332,0.44,0.551,0.66
	c1.483-0.055,2.419-1.374,3.573-2.254c0.329,2.583,0.275,5.168-0.276,7.749c-4.726-2.914-10.825-6.483-11.594-12.529
	c-0.33-3.573-1.101-7.696-0.441-11.045c0.111,0.769,0.33,1.703,0.826,2.087c1.374-5.826-3.795-13.52,2.362-17.805
	c5.662-1.54,11.761,1.813,17.256-0.66c3.407-0.88,7.748-1.21,10.991,0.275c-0.165,1.372-0.493,3.461,0.77,4.23
	c0.384-1.427-0.387-3.188,0.769-4.505v-1.045c1.265-0.439,1.593,1.595,2.802,0.77c1.045-0.77,2.254-1.321,3.575-1.539L57.214,57.796
	z"/>
<path fill-rule="evenodd" clip-rule="evenodd" fill="#FFFFFF" d="M252.032,56.477c1.924,2.583,2.034,7.2,0.386,9.894
	c-0.494,1.041-1.431,0.712-2.254,0.547c-2.801-1.978-3.243-5.715-2.639-8.956c0.275-0.991,1.101-1.925,1.98-2.421
	C250.55,55.378,251.373,55.817,252.032,56.477"/>
<path fill-rule="evenodd" clip-rule="evenodd" d="M261.539,57.521c0.55,2.418,0.771,5.166-0.934,7.144
	c-0.659,0.385-1.264,0.385-1.979,0.108c-2.361-1.978-2.143-5.11-1.703-8.021c0.33-0.604,0.935-1.101,1.593-1.211
	C259.836,55.378,260.937,56.477,261.539,57.521"/>
<path fill-rule="evenodd" clip-rule="evenodd" fill="#FFFFFF" d="M261.266,60.05c-0.166,1.485,0.055,3.681-1.705,4.505
	c-1.317-0.167-1.813-1.648-2.143-2.638l0.165-3.461c-0.165,1.869,0.054,3.955,1.319,5.439c0.439-0.053,0.934,0.055,1.152-0.44
	c0-0.769-0.934-0.054-1.152-0.659c-0.275-0.495-0.11-1.097-0.165-1.705c0.551,0,0.99-0.329,1.209-0.768
	c0.163-0.66-0.219-1.046-0.658-1.484h-0.11l-0.165,1.318c-0.661-0.661-0.386-1.595-0.11-2.472h1.044
	c0.055-0.551-0.55-0.936-0.934-1.209h-0.77c0.494-0.441,1.209-0.441,1.703,0C260.661,57.576,260.991,58.786,261.266,60.05"/>
<path fill-rule="evenodd" clip-rule="evenodd" d="M251.759,57.136c0.219,1.594,1.209,3.189,1.209,5.001
	c0,1.541-0.331,3.242-1.705,3.848c-0.329-0.165-0.769-0.057-1.099-0.276c0.604-0.44,1.76-0.549,1.98-1.591
	c0.327-0.881,0.052-1.815-0.221-2.641c-0.496,0.496-1.43,0.769-1.98,0.276c-0.165-0.604-0.88-1.154-0.439-1.814
	c0.498,0.386,1.265,1.43,2.145,1.045c0.219-1.154-0.329-2.419-1.044-3.188l-0.661,1.318c-0.548-0.604,1.044-1.923-0.165-2.089
	c-0.769,0.551-0.715,1.652-1.428,1.981c0.33-0.989,0.275-2.363,1.428-2.803C250.494,56.367,251.592,56.313,251.759,57.136"/>
<path fill-rule="evenodd" clip-rule="evenodd" fill="#FFFFFF" d="M111.181,64.006c-0.606-0.496-1.429-0.165-1.705,0.551
	c-1.154,3.35,1.87,5.328,2.474,8.134c0.438,0.493,0.549,1.262,0.275,1.866l-1.429-1.595c-0.716,1.485,2.087,2.089,1.429,3.85
	c-1.1-0.661-1.264-2.143-2.365-2.806c-0.273,2.145,2.639,3.299,2.527,5.551c-0.877-1.099-1.482-2.472-2.527-3.297
	c0.055,1.813,1.76,3.243,2.639,4.892c-1.319-0.879-1.65-2.474-2.748-3.407c-0.496,0.658,0.273,1.482,0.493,2.198l-2.912-3.132
	c-0.549-2.143-0.328-4.619-1.813-6.322l-0.276,0.222c3.135,12.199-4.616,21.486-6.044,32.587c-1.319,1.539-2.748,2.529-4.616,3.023
	c-1.538-0.823-3.957-0.716-5.277,0.44c0.111,0.493,0.827,0.053,1.156,0.384c-0.275,0.825-0.329,1.87-1.156,2.363
	c-4.449,0.77-8.244-1.591-11.868-3.572c2.419-0.825,4.175-2.856,7.089-1.703c0.549-0.112,1.099,0.331,1.209-0.385
	c-0.716-0.22-1.541-0.111-2.145-0.66c1.758-1.485,2.75,2.416,4.506,1.978c-0.604-1.045-1.592-2.363-0.769-3.463
	c3.023-2.361,6.43-4.451,8.573-7.638c2.308-4.232,3.903-8.794,5.278-13.466c3.021-4.176,1.702-9.89,3.132-14.617
	c0.22-3.134,0-6.375,1.209-9.124c0.44-0.604,1.099-0.547,1.594,0C108.761,59.114,110.137,61.479,111.181,64.006"/>
<path fill-rule="evenodd" clip-rule="evenodd" fill="#FFFFFF" d="M126.733,57.411c-0.165,0.111-0.825-0.275-0.934-0.658
	L126.733,57.411z"/>
<path fill-rule="evenodd" clip-rule="evenodd" d="M53.257,57.411c-0.66,1.265,0.769,3.132-0.111,4.505
	c-0.769,0.661-1.592,1.814-2.363,2.201c0.716-1.87,1.814-3.63,1.594-5.938C52.542,57.851,52.873,57.411,53.257,57.411"/>
<path fill-rule="evenodd" clip-rule="evenodd" d="M70.018,60.598c-0.275,0.936-1.044,0.439-1.593,0.111l0.167-0.661
	C68.974,60.433,69.689,60.105,70.018,60.598"/>
<path fill-rule="evenodd" clip-rule="evenodd" d="M255.219,69.83c-0.329,0.275-0.383,0.824-0.164,1.156
	c-2.308,1.101-4.286,3.185-6.868,3.683c-0.661-1.156-0.386-2.365-0.386-3.683l6.32-3.299
	C255.165,68.019,254.342,69.336,255.219,69.83"/>
<path fill-rule="evenodd" clip-rule="evenodd" d="M262.693,71.92c-0.054,2.031-0.054,4.232-1.978,5.384
	c-1.209,0.222-2.253-0.714-2.747-1.703c-0.496-2.089-0.826-4.617,0.274-6.595c0.659-1.374,1.922-0.714,2.912-0.494
	C261.87,69.558,262.364,70.711,262.693,71.92"/>
<path fill-rule="evenodd" clip-rule="evenodd" fill="#FFFFFF" d="M251.648,70.711h-1.98l3.684-2.091
	C253.462,69.447,252.637,70.437,251.648,70.711"/>
<path fill-rule="evenodd" clip-rule="evenodd" fill="#FFFFFF" d="M261.649,71.646c-0.11,1.538-0.054,3.628-1.319,4.779
	c-0.878-0.274-1.98-0.494-2.087-1.592c-0.496-2.143-0.439-4.781,1.153-6.211C261.21,68.514,261.21,70.545,261.649,71.646"/>
<path fill-rule="evenodd" clip-rule="evenodd" d="M260.881,70.874c-0.551,0.22-0.494-0.658-1.045-0.549
	c-0.384,0.549-0.439,1.539-0.275,1.979c0.715,0.056,0.222-1.098,0.935-1.044c0.825,1.76-1.649,2.476-0.44,4.232
	c-0.934-0.33-1.099-1.65-1.428-2.527c-0.11-1.539,0.275-2.912,1.045-4.068C259.728,69.556,261.045,69.997,260.881,70.874"/>
<path fill-rule="evenodd" clip-rule="evenodd" fill="#FFFFFF" d="M254.121,70.215h-0.384l0.272-0.658
	C254.285,69.667,254.121,69.998,254.121,70.215"/>
<path fill-rule="evenodd" clip-rule="evenodd" fill="#FFFFFF" d="M250.823,72.854c0.825-1.044,1.869-1.87,3.187-1.87L250.823,72.854
	z"/>
<path fill-rule="evenodd" clip-rule="evenodd" fill="#FFFFFF" d="M34.573,85.878c0.822,5.003-2.474,9.454-1.87,14.675l-2.253,7.364
	c0.222,0.493,0.055,1.262,0.66,1.482h0.274c3.024,2.31,6.981,3.132,10.168,5.495c-4.397-2.198-11.761-2.309-11.872-8.958
	c1.32-8.021,2.253-15.661,2.253-24.232c0.441-3.959,0.661-8.245,4.342-10.554C35.067,75.713,35.891,81.152,34.573,85.878"/>
<path fill-rule="evenodd" clip-rule="evenodd" fill="#FFFFFF" d="M248.734,73.348c-0.329-0.329-0.438-0.934-0.384-1.538
	c0.713-0.275,1.593-0.11,2.364-0.165L248.734,73.348z"/>
<path fill-rule="evenodd" clip-rule="evenodd" fill="#FFFFFF" d="M115.138,77.58c-0.604,6.044,3.736,10.332,5.824,15.444
	c2.967,1.703,2.529,5.384,2.363,8.188c-0.712,0.769-1.262,1.649-2.143,2.365c-2.032,0.053-4.341-0.441-5.493,1.703
	c-0.387,0.657-0.881,1.262-1.32,1.866c0.658,0.551,1.32-0.549,2.089-0.549c1.041-0.549,0.493-2.032,1.978-1.812
	c0.493-0.112,0.878,0.053,1.207,0.382c-0.22,1.485-2.967,1.76-1.978,3.683c-1.318,0.934-2.747,2.418-2.143,4.232
	c-0.879,0.44-1.758,0.933-2.475,1.813l0.22,1.483c-1.867-0.494-2.912,1.702-4.45,1.429c-1.484,0.329-1.376,2.143-3.022,1.042
	c-1.813-0.604-3.572-1.374-4.892-3.132c0.66,0.057,1.375,0.385,1.978,0.276c-0.714-1.154-2.308-0.989-3.023-1.979
	c-1.262,0.44-3.352,0.494-3.957,1.979c0,0.164-0.218,0.385-0.438,0.385c-2.199-0.881-5.771,0.275-6.705-2.528
	c1.099-0.384,2.252,0.218,3.294,0v-0.276c-4.229-2.472-9.778-1.539-13.957-3.681l-1.209-1.705c3.628,2.804,8.793,3.461,13.299,2.528
	c0.825,0.164,1.429,0.715,2.418,0.495c0.053-1.923,4.67-0.877,2.09-3.023c0.328-1.593,2.362-0.713,3.407-1.429l2.143-1.482
	c1.098,0,2.254,0.108,3.132-0.387c-0.331-0.823-1.376-0.604-1.98-1.043c0.059-1.758,1.872-2.914,3.079-3.683l10.388-5.274
	c1.538-2.143-1.098-3.846-1.428-5.826c-0.331-3.187-3.848-4.232-6.212-5.274c-0.273-1.65,0.44-3.188,0.387-4.89
	c2.199,1.646,3.957,4.505,6.869,3.185c0-0.77-1.21-0.329-1.21-1.042c-0.275-2.365,0-4.344,0.276-6.595
	C114.478,75.107,115.026,76.371,115.138,77.58"/>
<path fill-rule="evenodd" clip-rule="evenodd" d="M253.901,76.26c1.868,2.859,2.254,7.146,0.494,10.167
	c-0.715,0.604-1.265,1.649-2.363,1.43c-1.209-0.604-2.473-1.21-3.022-2.639c-0.988-3.35-1.264-7.582,1.705-10.002
	C251.867,75.381,253.076,75.327,253.901,76.26"/>
<path fill-rule="evenodd" clip-rule="evenodd" fill="#FFFFFF" d="M253.076,77.194c-0.604-0.77-1.428-1.374-2.361-0.934
	c-0.99,0.934-1.374,2.31-1.211,3.573c0.164,0.11,0.386,0.44,0.55,0.11c0.77-0.769,0.057-2.307,1.319-2.749
	c-0.11,0.331-0.658,0.66-0.274,1.044c0.66-0.328,1.538-0.548,1.869,0.385c0.329,0.663,0.438,1.76,0,2.419
	c-0.221,0.44-0.882,0.275-1.209,0.11c-0.825-0.44,0.77-1.54-0.496-1.431c-0.88,0.44-0.548,1.54-0.439,2.2
	c0.498,0.934,1.595,0.989,2.253,0.549l0.165-0.108c0.386,0.769-0.055,2.143-0.659,3.021c-0.823,0.222-1.261-1.154-1.867-0.549
	c-0.057,0.661,0.438,1.318,1.044,1.485c1.264,0,1.922-0.989,2.362-1.979c0.55-2.364-0.275-4.507-0.77-6.595
	c1.648,2.31,1.924,5.99,0.55,8.573c-0.604,0.658-1.54,0.989-2.418,0.658c-2.198-1.702-3.133-4.614-2.474-7.528
	c0.164-1.374,0.604-2.583,1.595-3.572C251.759,75.491,252.528,76.425,253.076,77.194"/>
<path fill-rule="evenodd" clip-rule="evenodd" d="M58.808,84.723c0.44-0.822,1.262-1.703,1.318-2.801
	c1.264-0.88,1.869-2.309,2.363-3.683C62.378,80.602,61.556,83.681,58.808,84.723"/>
<path fill-rule="evenodd" clip-rule="evenodd" d="M263.244,83.681c0.715,2.143,0.604,5.275-1.209,7.089
	c-1.484,0.768-2.639-0.661-3.298-1.705c-0.715-1.814-0.879-4.727,0.165-6.484c0.329-0.604,0.99-0.989,1.593-1.32
	C262.087,80.987,262.64,82.581,263.244,83.681"/>
<path fill-rule="evenodd" clip-rule="evenodd" fill="#FFFFFF" d="M262.693,83.789c0.551,2.09,0.33,4.67-1.319,6.044
	c-0.658,0.44-1.263-0.106-1.813-0.382c-1.317-1.925-0.936-5.057,0.111-6.98C260.826,81.095,262.419,82.636,262.693,83.789"/>
<path fill-rule="evenodd" clip-rule="evenodd" d="M102.223,83.406c0.329,0.88-1.044,0.716-0.824,1.591
	c-0.826,0.165-0.496-0.822-0.77-1.207C100.08,82.582,102.058,82.305,102.223,83.406"/>
<path fill-rule="evenodd" clip-rule="evenodd" d="M262.311,84.064v0.384c-0.496-0.165-1.045-1.318-1.815-0.769
	c-0.273,0.549-0.713,1.042-0.549,1.813c0.165,0.33,0.604,0.33,0.77,0.165l0.438-0.824c0.442,0.22,0.661,0.989,0.386,1.485
	c-0.219,0.658-0.934,0.108-1.209,0.658c0.275,0.66-0.055,1.54,0.823,1.98c-0.932,0.44-1.371-1.044-1.593-1.76
	c-0.108-1.318-0.439-2.638,0.275-3.79C260.495,82.033,262.146,83.02,262.311,84.064"/>
<path fill-rule="evenodd" clip-rule="evenodd" fill="#FFFFFF" d="M118.543,83.681c3.025,4.78,10.003,6.54,9.782,12.639
	c0.769,3.956,3.519,7.033,5.663,10.443c2.527,4.341,6.372,8.351,10.167,11.978c1.482,2.419,1.703,4.837,3.571,7.091
	c0.056,1.153,0.55,2.912-0.934,3.296c-2.252,0-3.846,1.87-5.386,3.189c-0.547,0.054-0.987-0.057-1.316-0.386
	c0.382-0.659,1.868-0.823,1.811-1.979c-0.438-0.329-0.877,0.055-1.318,0.11c-0.386,0.22,0.441-0.331,0.659-0.493
	c-0.439-1.431,1.209-0.937,1.596-1.98c-0.111-2.197,1.427-4.616-0.771-6.209c-0.22-2.032-2.581-2.801-2.914-4.726
	c-1.427-0.385-1.703-1.87-2.252-2.914c-2.306-1.21-2.253-4.45-4.89-5.166c-0.22-2.416-3.683-2.803-3.571-5.386
	c-1.485-1.315-0.22-3.901-2.198-4.89c-0.825-1.482-1.595-2.31-2.419-3.848c-2.145-1.427-3.463-3.957-4.341-6.319
	c1.262,0.493,1.925,2.254,3.187,2.802v-0.933l-4.892-5.663C117.557,83.681,118.106,83.569,118.543,83.681"/>
<path fill-rule="evenodd" clip-rule="evenodd" fill="#FFFFFF" d="M127.392,86.042c-1.042,1.594,1.98,2.363,0.66,3.792
	c-1.154-1.209-0.769-3.572-2.473-4.449c-0.604,0.933,0.328,2.086-0.165,3.132c0.493-1.594-2.308-2.363-1.321-4.177
	C125.414,84.339,126.623,84.998,127.392,86.042"/>
<path fill-rule="evenodd" clip-rule="evenodd" fill="#FFFFFF" d="M110.246,87.856c0.44,2.75-0.549,5.551-3.023,6.87
	c-0.769,0.112-1.647,0.494-2.361,0l-1.044-0.769l2.196-8.573C107.389,86.318,109.696,85.878,110.246,87.856"/>
<path fill-rule="evenodd" clip-rule="evenodd" fill="#D13239" d="M53.697,89.175c-0.769-0.551-0.88-1.593-1.32-2.363l1.538,2.145
	L53.697,89.175z"/>
<path fill-rule="evenodd" clip-rule="evenodd" fill="#FFFFFF" d="M133.876,89.065c0.604,0.551,1.101,1.541,0.385,2.254
	c-0.934,0.165-0.824-1.374-1.868-0.934c-0.108-1.101-1.317-0.66-1.813-1.32c-0.438,0.44,0.22,1.044,0.385,1.594
	c0.934,0.496,1.978,1.374,3.187,1.593c0.329,1.047-0.493,1.981-1.209,2.75c-0.769,0.546-1.867,1.152-2.748,0.546
	c-1.76-0.933-0.989-2.8-1.76-4.121c0.991-0.604,1.813-2.086,1.103-3.296c-0.222-0.44-0.607-1.044,0.106-1.156
	C130.853,87.803,132.063,89.285,133.876,89.065"/>
<path fill-rule="evenodd" clip-rule="evenodd" d="M100.738,88.296c0.33,0.275,0.056,0.66-0.218,0.879
	C99.916,89.065,100.022,88.022,100.738,88.296"/>
<path fill-rule="evenodd" clip-rule="evenodd" d="M106.675,89.065c-0.055,0.276-0.385,0.44-0.22,0.769
	c0.22,0.496,0.714,0.387,1.154,0.44l0.934-1.209c0.329,0.716,0.55,1.541,0.11,2.254c-0.495,0.933-1.705,1.154-2.474,0.66
	c-0.769-0.495-1.209-1.485-0.824-2.363C105.741,89.229,106.179,88.625,106.675,89.065"/>
<path fill-rule="evenodd" clip-rule="evenodd" fill="#FFFFFF" d="M138.877,93.571c0.716,0.496,1.594,0.551,2.256,1.321
	c-0.441,0.769-1.54,0.438-2.256,0.877c-0.987,1.156-1.868,2.912-3.405,3.188c-1.156-0.987-3.792-0.111-3.739-2.254
	c1.485-0.658,3.134-1.427,4.122-2.747c0.715,0.824,1.649,1.485,2.75,1.978l0.165-0.165c-0.605-0.604-1.154-1.538-1.594-2.198
	c-0.329-0.273-0.825-0.108-1.209-0.165c-0.053-0.604-0.493-1.317,0-1.813C137.45,91.54,137.779,92.967,138.877,93.571"/>
<path fill-rule="evenodd" clip-rule="evenodd" d="M256.374,91.979c0,0.11,0.054,0.273-0.108,0.384h-0.386
	c-0.11-0.22-0.11-0.331,0.11-0.549C256.155,91.814,256.319,91.814,256.374,91.979"/>
<path fill-rule="evenodd" clip-rule="evenodd" d="M259.288,92.473l-0.275,0.275l-0.661-0.66
	C258.682,91.815,259.396,91.98,259.288,92.473"/>
<path fill-rule="evenodd" clip-rule="evenodd" d="M263.902,94.341c-0.054,0.167-0.219,0.111-0.385,0.111
	c-0.22-0.111-0.384-0.441-0.163-0.661C263.684,93.792,264.067,93.903,263.902,94.341"/>
<path fill-rule="evenodd" clip-rule="evenodd" fill="#FFFFFF" d="M74.91,101.486c-1.705,1.649-4.505,1.758-6.707,0.881L62.27,97.53
	c1.485,0.165,3.461,0.989,5.112,1.813c0.165-0.055,0.165-0.22,0.165-0.385c-4.234-4.343-11.101-2.583-16.488-3.574
	c-0.165-1.316,1.103-0.712,1.814-1.045C61.391,93.133,68.809,96.1,74.91,101.486"/>
<path fill-rule="evenodd" clip-rule="evenodd" d="M98.542,95.55c-0.22,0.167-0.111,0.661-0.551,0.496l-0.273-0.496
	C97.99,95.441,98.322,95.057,98.542,95.55"/>
<path fill-rule="evenodd" clip-rule="evenodd" d="M249.668,95.66c-0.164,0.22-0.438,0.055-0.658,0.111l0.275-0.496
	C249.449,95.385,249.835,95.275,249.668,95.66"/>
<path fill-rule="evenodd" clip-rule="evenodd" fill="#FFFFFF" d="M144.703,98.407c0.385,0.66,0.824,1.541,0.658,2.254
	c-1.151-0.165-2.581-0.769-3.57,0c-0.879,0.989-1.813,1.704-2.914,2.145c-1.209-0.386-2.747-0.934-3.022-2.419
	c0-0.936,1.32-0.275,1.813-0.879c0.936-1.758,2.914-1.979,4.234-3.296C143.218,96.32,143.33,98.189,144.703,98.407"/>
<path fill-rule="evenodd" clip-rule="evenodd" fill="#FFFFFF" d="M126.733,100.277l-0.111,1.427
	c-0.713-0.271-1.538-0.658-1.979-1.315l1.045-0.112c-0.549-0.658-1.43-1.429-1.045-2.747
	C125.853,97.97,125.413,99.726,126.733,100.277"/>
<path fill-rule="evenodd" clip-rule="evenodd" d="M142.561,98.683v1.209c-1.044,0.111-0.552-1.262-1.427-1.484
	c-0.165-0.547,0.493-0.329,0.769-0.494C142.285,98.078,141.956,98.847,142.561,98.683"/>
<path fill-rule="evenodd" clip-rule="evenodd" d="M92.826,98.407c0,0.332-0.056,0.716-0.496,0.551v-0.661L92.826,98.407z"/>
<path fill-rule="evenodd" clip-rule="evenodd" fill="#FFFFFF" d="M134.921,100.936l0.66,1.705l-1.704,0.658l-2.527-4.23
	C132.338,100.167,134.646,99.013,134.921,100.936"/>
<path fill-rule="evenodd" clip-rule="evenodd" fill="#FFFFFF" d="M181.195,103.464c0.934-0.823,2.361-0.77,3.57-0.552
	c0.661,0.333,0.936,0.991,1.209,1.596c-2.032,0.383-4.342,0.659-6.209,1.703l-0.935-0.549c-4.946-0.989-9.398-3.132-14.618-3.407
	c-3.791-0.112-7.749,0.053-11.484,0.386c4.34-0.551,9.836-1.156,15.001-0.498l0.275-0.271c-3.241-1.375-7.311-0.716-10.937-1.047
	c-3.077-0.22-5.66,1.981-8.957,1.154c-0.44,0.663-0.934-0.053-1.318-0.273c-0.331-0.385-0.497-0.881-0.385-1.429
	C158.223,97.97,170.368,100.221,181.195,103.464"/>
<path fill-rule="evenodd" clip-rule="evenodd" fill="#FFFFFF" d="M259.946,100.167l2.526,38.087v0.548
	c-1.536-1.43-3.627-1.538-5.713-1.595c-1.374-2.528,0.548-5.11-0.661-7.528c-0.604-6.428,0.221-13.961-1.152-20.554l0.108-8.738
	C256.266,98.958,258.573,99.177,259.946,100.167"/>
<path fill-rule="evenodd" clip-rule="evenodd" fill="#D13239" d="M49.08,106.101c-1.098-0.714-2.967-2.361-2.639-3.846l1.43-2.253
	C50.014,101.211,48.969,103.958,49.08,106.101"/>
<path fill-rule="evenodd" clip-rule="evenodd" fill="#FFFFFF" d="M128.053,104.617c-1.541-0.163-2.639-1.427-3.299-2.745
	C126.567,101.816,127.284,103.245,128.053,104.617"/>
<path fill-rule="evenodd" clip-rule="evenodd" fill="#FFFFFF" d="M147.066,103.299c-0.439,1.758,1.868,2.472,1.539,3.957
	l-2.197,0.165c0.438-1.262-0.827-1.923-0.935-3.187c-0.934-0.33-1.318-1.65-2.363-1.318c0.165,0.936,1.209,1.207,1.154,2.252
	c1.429,0.387-0.109,1.869,1.317,2.253c-0.548,0.496-1.538,1.101-2.363,1.705c-0.769,0.165-1.646-0.332-2.362-0.66
	c-0.77-1.099-1.318-2.308-2.363-3.299c-0.44-2.197,2.089-0.604,2.912-1.483c0.495-1.265,2.033-1.374,3.134-1.812
	C145.693,101.594,146.351,102.695,147.066,103.299"/>
<path fill-rule="evenodd" clip-rule="evenodd" fill="#FFFFFF" d="M254.01,102.914c-0.439,4.399,1.431,8.464,0.386,12.914
	c1.155,2.912-0.054,6.871,1.045,9.783c0.825,3.517-1.264,7.09,0.439,10.387c-0.057,0.44,0.165,1.045-0.275,1.317
	c-0.438,0.112-0.604-0.384-0.55-0.769l-1.979-34.675C253.901,101.54,253.846,102.474,254.01,102.914"/>
<path fill-rule="evenodd" clip-rule="evenodd" d="M104.201,102.255c0.111,0.384-0.218,0.275-0.385,0.384h-0.438v-0.66
	C103.708,101.98,104.036,101.926,104.201,102.255"/>
<path fill-rule="evenodd" clip-rule="evenodd" fill="#D13239" d="M54.577,116.873c-2.694-1.209-4.234-4.67-6.155-7.088
	c-1.099-1.65-2.088-3.848-4.123-4.617v-2.527C46.993,107.806,51.938,111.707,54.577,116.873"/>
<path fill-rule="evenodd" clip-rule="evenodd" fill="#FFFFFF" d="M191.911,103.024c0.769,2.254,1.044,4.67,1.813,6.87
	c-0.275,2.143-1.484,3.846-1.597,6.1c0,11.759,0.441,22.915,1.211,34.402l-0.273,5c-1.648-0.054-0.439-2.417-2.088-2.088
	c-0.386-2.256-0.88-4.726-0.937-6.76c-0.108-0.055-0.219-0.275-0.383-0.275l-0.826,3.572c-0.713-2.417-0.658-5.329-1.044-8.022
	c0.331-0.77,0.055-1.705-0.273-2.255c-0.331,1.373-0.879,2.639-1.046,4.068c-0.108-8.521-0.438-16.817-2.745-24.622l1.703,0.769
	c-0.715-2.8-4.013-4.009-6.045-5.769c-0.604-0.825-0.551-2.034-0.551-2.912c0.275,1.045,1.593,1.592,1.593,2.748
	c1.759,0.548,2.859,2.638,4.893,2.528c0.987,1.262,2.198-0.221,3.295-0.276c0.606-1.978-0.823-3.901-2.143-5.274
	c-0.659-0.111-1.099,0.549-1.428,1.044c0,0.712-0.055,1.428,0.494,1.868c0.221,0.055,0.274-0.22,0.439-0.273
	c-0.055-0.549-0.548-1.101,0-1.595c1.43-0.222,1.376,1.648,2.089,2.527c0.604,1.43-0.88,0.881-1.428,1.595
	c-2.254-0.549-5.058-1.539-5.716-3.958c-0.496-0.715-1.484-1.044-0.88-1.978c0.384-0.329,0.715-0.769,0.384-1.209
	c-0.934-0.165-0.934,1.262-1.593,1.868c-0.164-0.605,0.165-1.759,0.77-2.419c2.089-1.374,4.396-2.912,7.035-2.087
	c0.987,0.22,2.361,0.329,2.857-0.769c0-1.154-1.266-0.933-1.813-1.594C188.56,102.584,190.592,102.308,191.911,103.024"/>
<path fill-rule="evenodd" clip-rule="evenodd" fill="#FFFFFF" d="M137.174,105.167c-0.604,0.165-1.209,0.44-1.868,0.496
	c-0.165-0.441-0.44-0.936-0.493-1.43c0.711-0.44,1.538-0.769,2.471-0.769L137.174,105.167z"/>
<path fill-rule="evenodd" clip-rule="evenodd" fill="#FFFFFF" d="M171.577,104.892c-7.146,0.879-14.839,0.22-21.763,2.091
	l-0.935-1.981C155.97,102.969,164.432,103.136,171.577,104.892"/>
<path fill-rule="evenodd" clip-rule="evenodd" fill="#FFFFFF" d="M122.502,105.936c0,1.156-0.055,1.758,0.549,2.639
	c-1.101-0.549-1.318-2.363-2.527-3.132C120.853,104.727,122.447,104.949,122.502,105.936"/>
<path fill-rule="evenodd" clip-rule="evenodd" fill="#FFFFFF" d="M130.965,108.189c0,0.165-0.053,0.332,0.111,0.385
	c-1.32-0.165-2.694-0.549-3.52-1.703l-0.438-1.429C128.769,105.498,130.414,106.598,130.965,108.189"/>
<polygon fill-rule="evenodd" clip-rule="evenodd" fill="#FFFFFF" points="125.964,106.101 126.239,105.663 126.349,106.101 "/>
<path fill-rule="evenodd" clip-rule="evenodd" fill="#FFFFFF" d="M179.106,106.486c-1.87,0.825-1.924,3.352-1.979,5.002
	c-8.573-0.604-15.664-0.549-24.127-0.549c-2.857,0.604-5.604,0.108-8.572,0.275c-0.549-0.991,0.66-1.705,1.429-1.813
	c8.573-2.256,17.805-2.967,27.037-3.736C175.04,105.717,176.743,106.926,179.106,106.486"/>
<path fill-rule="evenodd" clip-rule="evenodd" fill="#FFFFFF" d="M137.174,106.101c-0.165,0.439-0.658,0.66-1.044,0.771
	c-0.165-0.111-0.165-0.275-0.165-0.387C136.293,106.212,136.68,106.101,137.174,106.101"/>
<path fill-rule="evenodd" clip-rule="evenodd" fill="#FFFFFF" d="M122.777,109.895l-0.384,1.044c-0.332,0-0.771-0.55-1.044,0
	c0.22,0.494,0.604,0.988,0.493,1.592c-1.262-1.316-2.583-2.912-3.299-4.615c0-0.66,0.771-1.101,1.212-1.429
	C121.457,106.763,121.621,108.794,122.777,109.895"/>
<path fill-rule="evenodd" clip-rule="evenodd" fill="#FFFFFF" d="M138.494,109.125c-0.881,0.275-1.209-0.385-1.594-0.936
	l1.209-0.658C138.604,107.917,138.164,108.686,138.494,109.125"/>
<path fill-rule="evenodd" clip-rule="evenodd" fill="#FFFFFF" d="M53.422,109.62l-0.275,0.275c-0.276-0.386-0.769-1.264-1.593-0.935
	l-0.495,0.825c-0.22-0.383-0.496-0.658-0.549-1.044C51.497,107.806,53.147,108.246,53.422,109.62"/>
<path fill-rule="evenodd" clip-rule="evenodd" d="M101.178,110.829c0.989-0.493,2.583,0.551,2.639-1.044
	c2.253,0.328,4.614,0.66,6.152,2.365c-0.329,1.646-2.196,0.329-2.472,1.867c-0.989,0.054-1.867,1.154-2.912,0.384
	c-1.264-1.539-3.901-0.824-4.892-2.638c-1.427-0.604-1.482-2.308-2.748-3.023C99.2,108.189,98.706,111.709,101.178,110.829"/>
<path fill-rule="evenodd" clip-rule="evenodd" fill="#FFFFFF" d="M134.152,111.762c-1.756-0.822-4.615-0.33-5.057-2.803
	C131.02,109.29,133.436,109.62,134.152,111.762"/>
<path fill-rule="evenodd" clip-rule="evenodd" fill="#FFFFFF" d="M121.622,113.74c0.111,0.716-0.716,0.275-1.098,0.385
	c-0.111-0.438-0.604-0.658-1.044-0.769c-0.22,0.989,1.044,1.758,1.32,2.747c-0.111,0.332-0.498,0.551-0.498,0.936
	c-1.646-1.374-2.912-3.299-4.121-5.002c-0.055-0.991,0.936-1.648,1.485-2.253C119.315,110.224,120.357,112.478,121.622,113.74"/>
<path fill-rule="evenodd" clip-rule="evenodd" fill="#FFFFFF" d="M142.946,110.278c0.165,0.384-0.22,0.275-0.384,0.439h-0.275
	C142.395,110.498,142.726,110.443,142.946,110.278"/>
<path fill-rule="evenodd" clip-rule="evenodd" fill="#FFFFFF" d="M53.037,111.214c0,0.218-0.218,0.273-0.275,0.385l-0.823-0.881
	C52.432,110.609,52.872,110.772,53.037,111.214"/>
<path fill-rule="evenodd" clip-rule="evenodd" fill="#FFFFFF" d="M170.533,114.509c0.659,0.881,0.934,1.98,0.77,3.189
	c-7.805-2.034-16.926-2.858-25.061-0.935c-0.331-0.109-0.824-0.22-0.88-0.661c-0.329-0.604,0.771-1.209-0.162-1.427
	c-0.936,0.384-1.156,1.374-1.32,2.196l-3.132-3.405c4.945-1.595,11.209-0.661,16.431-1.87
	C161.85,112.037,166.686,112.091,170.533,114.509"/>
<path fill-rule="evenodd" clip-rule="evenodd" fill="#FFFFFF" d="M136.626,115.335c-1.925-0.658-4.452-0.658-5.277-3.079
	l0.273-0.385C133.436,112.641,136.241,112.752,136.626,115.335"/>
<path fill-rule="evenodd" clip-rule="evenodd" fill="#FFFFFF" d="M119.754,117.807c0.218,1.265-1.265,1.87-2.089,2.363l-3.079-3.955
	c0.551,0.053,0.934,0.934,1.485,0.547l-1.485-1.868c0.496-0.494,0.934-0.989,1.597-1.044L119.754,117.807z"/>
<path fill-rule="evenodd" clip-rule="evenodd" fill="#FFFFFF" d="M179.766,117.038c-1.155,4.288,1.044,8.683,0.11,12.915l-0.11,0.11
	c-0.659-1.43-1.484-2.803-3.022-3.572c0.221-3.24-1.593-6.045-4.231-8.132c0.221-0.881-0.551-2.529,0.658-2.641
	c1.209-0.218,2.31,0.991,3.298-0.163c0.604-0.442,0.934-1.375,1.595-1.429C178.777,115.006,178.667,116.269,179.766,117.038"/>
<path fill-rule="evenodd" clip-rule="evenodd" d="M169.489,116.654c-3.517,0-6.431-2.145-10.058-2.254
	C163.059,114.509,166.41,115.499,169.489,116.654"/>
<path fill-rule="evenodd" clip-rule="evenodd" fill="#FFFFFF" d="M125.799,115.718l1.485,1.594
	c-0.498,0.716-1.101-0.769-1.597-0.822c0-0.771-0.44-1.32-0.769-1.98C125.524,114.676,125.744,115.114,125.799,115.718"/>
<path fill-rule="evenodd" clip-rule="evenodd" fill="#FFFFFF" d="M138.988,118.193c-1.262-0.112-2.361-1.044-3.681-0.77v0.275
	c1.813,1.703,5.439,0.659,5.935,3.792c-1.374,0.218-2.419-0.827-3.681-0.496v0.221c1.539,1.318,5.826,0.604,4.616,3.957
	c-1.649-0.44-3.407-0.661-5.002-1.32l-0.276,0.275c1.432,0.99,3.41,1.319,5.168,1.978c0.384,0.88-0.33,1.87-1.209,1.98
	c-1.65-0.551-3.297-1.101-4.729-2.089c0.058-0.936,0.222-1.813,0.88-2.529c0.88-0.273,1.76,0.604,2.638,0.276
	c-0.825-1.101-3.078-0.881-3.132-2.749c0.382-2.033-2.089-2.858-2.253-4.616l-1.045-1.319
	C134.867,116.708,138.273,115.39,138.988,118.193"/>
<path fill-rule="evenodd" clip-rule="evenodd" fill="#FFFFFF" d="M123.436,118.082c0.658,0.385,0.658,1.099,0.823,1.703
	c-3.459,2.365-7.033,4.341-10.44,6.706c-0.494-0.659-1.593-1.098-1.703-1.978c1.427-1.429,3.681-0.825,5.11-2.198
	c3.628,0.055,3.023-4.397,5.718-5.441L123.436,118.082z"/>
<path fill-rule="evenodd" clip-rule="evenodd" fill="#FFFFFF" d="M117.116,120.83c-2.254,1.925-4.068-1.209-5.936-2.252
	c0-0.604,0.385-1.264,1.045-1.429c2.418-0.881,3.463,1.978,4.89,3.296V120.83z"/>
<path fill-rule="evenodd" clip-rule="evenodd" fill="#FFFFFF" d="M173.445,120.554c1.044,1.376,1.265,3.025,1.319,4.782
	c-2.968,0.715-2.199-3.406-5.057-3.023c-2.418-0.547-4.782-1.098-7.254-1.591l-0.219,0.275c2.747,1.316,6.209,1.043,8.792,2.749
	l0.165,0.381c-6.21-1.813-13.685-3.405-20.444-2.911l-0.165,0.164c0.771,0.496,1.87,0.165,2.804,0.276
	c-1.209,0.769-3.022,1.209-4.617,0.88c0.165-0.222,0.661-0.495,0.661-0.88c-0.551-0.44-1.376,0-1.979,0.22l-2.363-3.516l0.658-0.385
	c8.191-1.047,16.378,0,24.237,1.427L173.445,120.554z"/>
<path fill-rule="evenodd" clip-rule="evenodd" fill="#FFFFFF" d="M125.964,118.468c-0.551,0.053-0.551-0.494-0.824-0.769
	C125.468,117.917,125.964,117.974,125.964,118.468"/>
<path fill-rule="evenodd" clip-rule="evenodd" fill="#FFFFFF" d="M184.766,136.823c-0.77-1.924-2.802-3.243-3.57-5.167
	c1.757-3.57-0.44-7.472-0.11-11.486c-0.057-0.77,0-1.592,0.383-2.196C183.724,123.745,184.712,130.118,184.766,136.823"/>
<path fill-rule="evenodd" clip-rule="evenodd" fill="#FFFFFF" d="M128.437,119.512c-0.44,0.218-0.987-0.496-1.154-1.044
	C127.778,118.523,128.218,119.127,128.437,119.512"/>
<path fill-rule="evenodd" clip-rule="evenodd" fill="#FFFFFF" d="M114.093,122.039c-0.716,0.165-1.101-1.209-1.705-0.385
	l0.496,0.769c-1.538-0.549-2.968-1.483-4.342-2.527c-0.164-0.44,0.109-1.099,0.661-1.318
	C111.234,118.74,112.665,120.72,114.093,122.039"/>
<path fill-rule="evenodd" clip-rule="evenodd" fill="#FFFFFF" d="M104.697,120.83c0.494,0.167,1.374,0.384,1.318,0.824
	c-19.401,12.477-30.117,33.908-25.721,57.21c-1.702-0.496-2.693,0.88-3.68,1.868c-2.307-9.618-1.597-21.049,1.482-30.227
	c4.014-12.144,12.805-24.509,24.62-31.268C103.156,120.116,103.926,120.445,104.697,120.83"/>
<path fill-rule="evenodd" clip-rule="evenodd" fill="#FFFFFF" d="M127.284,120.721c-0.716-0.167-1.264-0.66-1.594-1.321
	C126.459,119.292,127.008,120.17,127.284,120.721"/>
<path fill-rule="evenodd" clip-rule="evenodd" fill="#FFFFFF" d="M111.455,122.81c-2.196-0.167-3.957-2.089-6.099-2.914
	C107.885,119.784,109.698,121.709,111.455,122.81"/>
<path fill-rule="evenodd" clip-rule="evenodd" fill="#FFFFFF" d="M130.415,122.149v0.275c-0.879-0.275-1.756-0.991-2.196-1.702
	C129.206,120.61,130.085,121.327,130.415,122.149"/>
<path fill-rule="evenodd" clip-rule="evenodd" fill="#FFFFFF" d="M126.458,122.699c-2.031,1.154-3.956,2.912-5.274,4.89
	l-2.641,2.089c-0.934-4.067,3.795-6.428,6.213-8.682C125.524,121.379,126.458,121.655,126.458,122.699"/>
<path fill-rule="evenodd" clip-rule="evenodd" fill="#FFFFFF" d="M71.502,122.424c0.329,0.825,1.044,1.868,0.384,2.748
	c-0.877-0.493,0.22-3.132-1.705-2.196c-0.493,0.218-0.329,0.876-0.165,1.152c0.716,0.551,0.77,1.484,0.551,2.253
	c-1.813,0.934-1.374-2.967-2.914-1.209c-0.549-0.658-0.658-1.758-0.385-2.636c0.276-0.387,0.496-0.992,1.045-1.045
	C69.524,121.435,70.678,121.543,71.502,122.424"/>
<path fill-rule="evenodd" clip-rule="evenodd" fill="#FFFFFF" d="M108.542,122.81c-0.716,1.318-2.254,2.472-1.868,4.121
	c-1.704,0.77-3.242,1.045-5.279,1.045c-0.602,0.274-1.207,0.713-1.703,1.319c-0.329,2.47,0.386,5.275,1.485,7.528
	c2.254,1.537,5.386,2.473,6.595,5.276c1.65,4.726,5.274,10.991,1.32,15.827c-0.387,1.813-0.551,4.175,0.658,5.659
	c-1.484,2.584-3.134,6.101-1.32,9.067c-0.933,1.924-2.031,3.737-2.143,5.936c-4.449,1.266-9.286,1.649-13.958,2.418
	c-1.868-2.418-4.066-4.836-6.76-6.099c-1.099-0.11-2.419,0.165-3.295,1.044c-0.716,0.604-0.222,1.703-0.88,2.252
	c-1.209-3.131-0.991-7.09-1.209-10.825c0.549-18.301,10.276-35.614,26.763-45.229C107.662,121.929,108.048,122.535,108.542,122.81"
	/>
<path fill-rule="evenodd" clip-rule="evenodd" fill="#FFFFFF" d="M130.854,124.513c-0.822,0.165-1.153-0.825-1.209-1.429
	C130.801,122.81,130.36,124.02,130.854,124.513"/>
<path fill-rule="evenodd" clip-rule="evenodd" fill="#FFFFFF" d="M175.645,127.149c1.483,1.157,2.801,2.583,2.912,4.396
	c-2.527-0.438-3.627-3.57-6.21-3.956c-1.43-0.219-2.968-0.659-4.342-0.659v0.219c2.857,0.496,5.33,1.979,7.804,3.463
	c0.275,1.484,2.254,1.101,2.748,2.253c-4.891-2.143-9.343-5.494-15.002-5.824l-8.079-0.771c-1.979,0.606-4.121,0.879-6.212,1.319
	c0-0.219-0.108-0.494-0.108-0.823c0.219-0.603,1.153,0.164,1.209-0.661c-0.275-0.438-0.825-0.162-1.209-0.273
	c3.188-1.594,7.473-0.274,10.826-1.429l-0.385-0.276c-3.573,0.441-7.419-0.328-10.991,0.387c-0.055-0.222-0.33-0.44-0.219-0.768
	C157.894,123.082,167.454,123.851,175.645,127.149"/>
<path fill-rule="evenodd" clip-rule="evenodd" fill="#FFFFFF" d="M110.521,123.852c-0.109,0.824-1.156,0.606-1.591,1.209
	l-1.156,1.044C107.884,124.788,109.312,123.907,110.521,123.852"/>
<path fill-rule="evenodd" clip-rule="evenodd" fill="#FFFFFF" d="M128.437,125.997c0.165,0.986-1.099,1.152-1.427,1.813
	c0.546,0.165,2.031-0.88,2.251,0.439c-4.561,1.703-8.3,5.659-12.256,8.407c-0.493-0.713-0.33-2.087-0.165-3.022
	c2.145-4.45,7.146-6.374,10.938-8.958L128.437,125.997z"/>
<path fill-rule="evenodd" clip-rule="evenodd" fill="#FFFFFF" d="M131.624,125.832c-0.549-0.056-1.374,0-1.427-0.659
	C130.689,125.392,131.405,125.337,131.624,125.832"/>
<path fill-rule="evenodd" clip-rule="evenodd" fill="#FFFFFF" d="M112.609,127.589c1.099,1.926,1.374,4.561,0.275,6.595
	c-1.044,1.538-2.365,3.354-1.431,5.387c0.222,0.385,0.222,0.989,0.662,1.209c0.382-1.319-0.222-3.133,0.934-4.231l0.218-0.275
	c0.604,2.089,2.036,4.066,1.87,6.595c-0.438,0.988-0.934,1.979-1.87,2.748c-0.823-0.33-0.547-1.484-1.539-1.813
	c-0.439,0.989,0.828,1.702,0.387,2.911c-0.328,0-0.715-0.604-0.933,0c-1.979-3.516-2.586-8.408-6.595-10.551
	c-0.604,0.275-0.222,0.715,0,1.044c-1.045-0.054-2.586-1.152-3.023-2.363l-0.825-5.055c0.495-0.551,1.482-0.386,2.143-0.219
	c0.332,1.371-0.276,3.352,1.042,4.175c0.44-1.153-0.383-2.362,0.276-3.682c1.704-2.034,4.616-1.759,6.319-4.229
	C111.454,125.886,112.058,126.93,112.609,127.589"/>
<path fill-rule="evenodd" clip-rule="evenodd" d="M153.772,125.997c-0.661,0.219-1.98,0.88-2.255-0.165L153.772,125.997z"/>
<path fill-rule="evenodd" clip-rule="evenodd" fill="#FFFFFF" d="M132.667,127.424c-0.384,0.825-1.263,0.165-1.703-0.275
	l-0.551-0.658C131.185,126.876,132.063,126.82,132.667,127.424"/>
<path fill-rule="evenodd" clip-rule="evenodd" fill="#FFFFFF" d="M140.472,128.744c0.111,0.494-0.44,0.44-0.658,0.659
	c-1.265,0.439-2.254-1.264-3.023-0.384l-2.529-1.209C136.131,125.997,138.382,128.469,140.472,128.744"/>
<path fill-rule="evenodd" clip-rule="evenodd" fill="#FFFFFF" d="M179.766,134.843c2.749,1.759,3.518,4.946,2.913,7.914
	c-5.167-5-11.266-8.188-17.972-9.782c-4.726,0.055-10.001-0.879-14.343,0.77h-1.759c-0.275-1.264,2.584-0.165,1.209-1.428
	c-0.935,0-1.703,0.384-2.362,1.042c-0.274,0.825,0.329,1.54,1.043,1.595c3.464-0.549,7.31-1.153,10.937-0.549
	c6.32,0.878,11.871,3.792,17.532,6.21c3.791,2.418,8.956,5.824,8.077,11.102c-2.362-1.65-4.507-3.794-6.76-5.661
	c-6.539-3.188-13.355-5.716-20.938-6.484c-1.978,0.274-4.836,0.715-6.484-0.386c0.823-0.384,1.872-0.329,2.363-1.045
	c-1.044-0.55-2.198,0.386-3.407,0.222c-0.659,0.383-0.384,1.319-0.275,1.867l0.825,0.661c11.761,0.769,22.752,4.34,32.423,10.661
	c2.089,1.593,5.332,3.186,5.276,6.21c-0.219,1.044,0,2.253-0.77,3.022c-3.902-1.209-6.813-4.728-10.44-6.595
	c-7.09-4.067-14.508-8.08-22.973-8.023l-1.428-0.386c0.823-0.441,2.253-0.164,2.361-1.484c-0.494-0.329-1.317,0.111-1.978,0.165
	c-0.878,0.331-2.197-0.548-2.912,0.496c-0.219,0.988,0.934,1.374,1.483,1.757c8.628,2.804,16.872,6.541,24.511,11.871
	c3.847,2.089,8.573,2.089,12.255,4.617c1.428,1.538,2.089,3.904,1.209,5.935c-0.823,0.989-1.649-0.384-2.528-0.549
	c-1.922-3.188-5.165-5.99-8.682-6.87c-2.693-0.934-5.003-2.747-7.531-4.231c-0.327,0.329,0.057,0.604,0.275,0.823
	c4.013,4.617,10.168,4.452,14.124,8.959v0.659c-4.231-0.549-7.748-3.463-11.375-5.935c-6.266-4.452-11.927-10.552-19.62-11.596
	c-0.33-0.661,0.55-0.439,0.495-0.934c-0.66-0.551-1.648-0.661-2.474-0.386c-0.439,0.275-0.275,0.934-0.165,1.319
	c3.188,2.857,7.311,3.956,10.827,6.209c4.89,2.914,9.013,6.925,13.738,10.276c4.454,2.362,12.969,0.275,13.19,7.529
	c0.164,3.133-0.935,6.651-4.123,8.025c-0.659,0.219-1.264,0.548-1.812,1.042c0.384,0.604,0.988,0,1.428,0
	c-8.628,7.969-22.806,4.287-32.04-0.108l-0.658-0.934c1.703-0.386,3.076,1.263,4.726,1.428c3.958,2.308,8.737,2.639,13.354,3.297
	c2.143,0.055,4.396,0.11,5.935-1.044c-5.88,1.154-11.267-1.264-16.761-2.253c-2.583-0.935-4.946-2.473-7.805-2.858
	c-0.439-0.877-0.713-1.978-0.494-2.912c3.738,0.055,7.144,1.76,10.827,2.473c5.165,1.87,11.649,0.55,16.979-0.384
	c1.209,0,2.528-1.759,3.464-0.386c0,1.87-1.705,3.079-2.913,4.231c1.098,0.386,2.309-0.55,3.299-1.317
	c1.153-0.882,2.416-2.091,1.701-3.683c-5.988-5.826-14.124-6.649-19.673-13.19c-6.87-6.649-14.839-15.388-25.171-10.716
	c-7.144,3.848-10.549,11.816-14.344,18.355c-3.845,5.275-10.44,6.045-13.628,11.485c-0.273,1.1,0.936,2.198,1.87,2.749
	c0.824,0.494,1.812,0.988,2.747,0.769c-0.331-0.658-1.374-0.715-1.978-1.43c-0.33-0.658-0.88-1.209-0.661-2.088
	c9.452,0.439,18.245-1.484,26.653-3.957c0.992,1.595-0.66,2.693-0.768,4.176c-7.089,1.65-13.849,4.452-21.488,4.233
	c-0.604,0.55-1.813,0.054-1.978,0.934c1.262,0.55,2.912-0.715,4.176,0.275c1.374-1.099,2.912-0.604,4.617-0.935
	c5.275-0.55,9.947-2.474,15.057-3.407c-6.979,2.363-14.121,4.396-21.654,5.386c-3.35-0.055-6.813-0.55-8.571-3.57
	c-0.824-2.199,0.273-4.123,1.594-5.937c4.397-4.342,10.663-5.497,14.013-11.048c0.386-1.592,1.978-2.912,1.978-4.506
	c-1.48,1.705-2.416,4.122-4.614,5.386c-0.936,2.253-3.461,3.243-5.275,4.617c-3.739,1.867-7.2,5-9.236,8.571
	c-0.493-1.428-0.877-3.406-0.165-4.834c2.805-3.079,6.65-4.288,9.783-6.87c8.19-4.452,10.387-13.464,16.981-19.289
	c0.165-0.716,1.539-2.199-0.111-2.473c-0.933-0.386-1.592,0.548-2.251,1.152c0.165,0.826,2.034-0.715,1.594,0.826
	c-7.639,6.924-16.267,13.518-22.037,22.146l-0.384,0.11c0.328-2.088,2.855-3.791,4.229-5.386c0.441-2.034,2.806-2.804,3.683-4.728
	c0.934-0.934,2.199-1.593,2.748-2.802l-0.22-0.275c-1.427,1.595-3.901,2.638-4.614,4.617c-2.256,1.153-2.31,3.846-4.617,4.891
	c-0.663,1.703-2.476,2.692-2.529,4.506l-1.868,1.703c-1.484-2.966,1.921-5.11,3.188-7.528c6.923-7.638,15.551-14.948,23.355-21.872
	c0.11-0.604-0.165-1.155-0.659-1.319c-1.099-0.055-2.033,0.496-2.638,1.319c0.329,0.658,0.769-0.11,1.318,0.11
	c-6.32,6.76-15.333,10.605-19.95,18.739c-1.374,1.265-2.419,2.639-3.681,3.958c-1.594-2.528,0-5.551,1.044-7.915
	c6.485-8.627,15.551-13.298,23.906-18.466c0.549-0.493,1.593-1.373,0.77-2.253c-0.387-1.317-1.76-0.823-2.473-0.384l-0.439,0.384
	c0.383,0.604,1.263-0.056,1.593,0.551c-4.835,4.671-11.926,5-16.872,10.001c-2.857,2.198-4.729,5.221-6.485,8.079
	c-1.538-4.889,1.979-8.902,5.551-11.761c5.99-4.506,12.748-7.144,19.289-10.44c0.716-0.386,1.374-1.209,0.88-2.091
	c-1.21-1.264-2.747,0.057-3.957,0.55v0.222c0.494,0.329,1.043-0.386,1.593,0c-2.802,2.253-6.649,2.582-9.728,4.396
	c-4.01,1.045-6.264,5.497-9.891,7.364c-1.319-5.604,5.218-8.573,8.793-11.102c3.625-1.867,7.529-3.133,11.375-4.45
	c0.659-0.604,2.088-0.99,1.814-2.253c0.44-0.221,1.098-0.057,1.592-0.11c0.551,0.548,1.101,1.594,1.978,1.538
	c3.189,0.329,4.505-3.846,7.639-3.682c2.034-2.253,5.222-1.101,7.915-1.978C164.159,128.58,172.4,130.776,179.766,134.843"/>
<path fill-rule="evenodd" clip-rule="evenodd" d="M126.075,128.358c-0.66,0.716-1.649,1.045-2.474,1.595
	C124.094,128.962,125.139,128.633,126.075,128.358"/>
<path fill-rule="evenodd" clip-rule="evenodd" fill="#FFFFFF" d="M137.943,130.612c-1.868,0.496-3.681-0.713-5.001-1.979
	C134.756,128.962,136.294,129.953,137.943,130.612"/>
<path fill-rule="evenodd" clip-rule="evenodd" fill="#FFFFFF" d="M134.646,131.656c-0.218,0.165-0.276,0.384-0.276,0.661
	c0.223,0.329,0.992-0.11,0.828,0.548c-3.188,0.936-6.429,1.76-9.399,3.298c-3.407,1.484-6.319,4.231-9.618,6.155
	c-1.1-5.991,5.935-7.475,9.398-10.552c1.978-0.715,3.848-2.253,6.044-2.196L134.646,131.656z"/>
<path fill-rule="evenodd" clip-rule="evenodd" fill="#FFFFFF" d="M139.813,130.228c-0.22,0.165-0.551,0.108-0.824,0.108
	C139.208,130.171,139.537,130.228,139.813,130.228"/>
<path fill-rule="evenodd" clip-rule="evenodd" d="M107.333,131.545v0.496c-0.275-0.055-0.549-1.319-1.32-0.77
	c-0.547,0.494-0.106,1.209,0.165,1.703c0.44,0.99,1.707,1.595,2.641,0.934c0.546-0.493,1.374-0.439,1.813-1.206
	c-0.167-0.606-0.332-1.651,0.549-1.815c0.165,0,0.329-0.055,0.385,0.11c-1.154,0.989,0.22,2.747-1.705,3.187
	c-1.042,0-1.758,1.595-2.912,0.661c-1.101-0.937-1.925-2.091-1.594-3.463C105.685,130.447,107.116,130.612,107.333,131.545"/>
<path fill-rule="evenodd" clip-rule="evenodd" d="M169.324,132.207c-2.089,0.658-3.902-0.88-6.212-0.551
	c0.496-0.658,1.76-0.384,2.528-0.273C166.741,132.042,168.168,131.712,169.324,132.207"/>
<path fill-rule="evenodd" clip-rule="evenodd" fill="#FFFFFF" d="M116.071,132.042c-0.275,0.713-0.551,1.428-0.822,2.143
	c-0.663-0.384-0.167-1.099-0.111-1.759C115.467,132.317,115.687,132.042,116.071,132.042"/>
<path fill-rule="evenodd" clip-rule="evenodd" d="M130.415,132.425c-0.218,0.66-1.209,0.55-1.813,0.825
	C129.151,132.865,129.645,132.317,130.415,132.425"/>
<polygon fill-rule="evenodd" clip-rule="evenodd" points="171.192,133.085 170.368,133.085 170.368,132.591 171.192,132.703 "/>
<polygon fill-rule="evenodd" clip-rule="evenodd" fill="#FFFFFF" points="171.961,137.042 164.049,134.57 168.17,135.503 "/>
<path fill-rule="evenodd" clip-rule="evenodd" d="M122.281,136.383c0.936-0.936,2.363-0.715,3.299-1.705
	C125.248,135.668,123.161,136.054,122.281,136.383"/>
<path fill-rule="evenodd" clip-rule="evenodd" d="M177.401,136.383c0.936,0.713,2.199,1.207,2.749,2.253
	c-1.54-1.813-4.123-1.43-5.386-3.572C175.646,135.448,176.578,135.779,177.401,136.383"/>
<path fill-rule="evenodd" clip-rule="evenodd" fill="#FFFFFF" d="M254.396,139.02c-0.164,0.384-0.934,0.057-0.769,0.661
	c0.604,0.327,1.098,0.164,1.702,0c1.209-1.484,3.188-0.386,4.893-0.88c3.737,1.428,0.604,5.494,1.152,8.408
	c0.222,2.526,2.585,5.716,0,7.803c-1.592,0.439-3.627,0.879-5.108-0.165c-2.86-1.152-0.496-4.285-1.98-6.155
	c0.386-0.548-0.219-1.209,0.11-1.757c0.165,0,0.329,0,0.386,0.164c0.438-0.99,0.219-2.199,1.209-2.914
	c0.275,0.878-0.604,1.87,0.275,2.364l0.767-3.298c0.332,0.438-0.11,1.374,0.386,1.595l0.551-1.319
	c0.219,0.056,0.054,1.265,0.658,1.319c0.661-0.604-0.219-1.813,0.77-2.253c0.331,0.219-0.108,0.989,0.441,1.209
	c0.492-0.716,0.492-1.649,1.428-1.868c-1.594-1.979-3.133,0.548-5-0.66c-1.319,2.968-4.562,5.604-2.914,9.231v1.046
	c-1.428-2.805-0.329-6.488,1.209-9.069c-1.264,0.222-2.747,0.659-4.231,0.659c0.329,0.715,1.209,0.715,1.813,1.044l-0.77,1.98
	c-1.483-0.88-1.705-3.133-2.528-4.728h-0.219c-0.496,1.54-0.167,3.408-0.825,4.836c0.55,0.496,0.715-0.494,1.209-0.494l1.154,1.813
	l-4.177,9.232c1.154,2.639-1.538,5.99,0.88,8.354c-1.813,2.693,0.717,5.276-0.386,8.023c0.056,0.88-0.219,1.593-0.108,2.528
	c-1.484-0.054-2.914-0.275-3.959-1.484c-0.054-4.066,2.089-7.308,2.254-11.32l-0.273-0.275c-1.101,2.31-1.98,4.728-2.914,7.146
	c-1.922,1.153-4.231,0-6.319,0l-0.275,0.219c1.484,1.155,3.464,1.649,5.551,1.595h0.386c-1.101,2.858,0.604,5.659,2.637,7.529
	c0.604-0.936-0.44-1.87-0.659-2.749c1.209,0.056,2.364,0.441,3.573,0.11c0.548,3.022,3.846,3.848,6.045,5.167
	c0.769,0.439,2.418,0.054,2.253,1.317c0.11,0.77-0.99,0.548-1.43,0.88c-3.846,0.219-6.868-1.539-9.782-3.517
	c-1.153,0.329,0.164,1.154-0.384,1.813c-3.683,2.472-7.035-1.87-10.937-0.11c-3.188,2.528-5.662-1.264-8.573-1.595
	c-0.99,1.595,1.594,1.759,1.978,2.914c0.11,0.329-0.275,0.439-0.439,0.658c-1.099,0.386-2.197,0-3.022-0.823
	c-1.648-1.815-1.648-4.342-2.361-6.595c0.769,0.715,0.604,2.143,1.428,2.802c0.494-1.153-0.823-2.033-0.382-3.188
	c0.546,0.66,0.546,1.705,1.042,2.145c0.384-0.715-0.056-1.432-0.11-2.145c0.659,0.221,0.878,1.319,1.319,1.979
	c0.108,0.056,0.165,0.221,0.273,0.166c0.55-0.771-1.538-2.584,0.496-2.253c0.604,0.494-0.108,1.538,0.658,1.978
	c0.659-0.439-0.11-1.373,0.659-1.704c0.494,0.166,0.494,1.648,1.209,0.879c-0.055-0.604-0.604-0.987-0.384-1.705
	c0.219-0.272,0.604-0.548,0.934-0.272c0.219,1.373,1.484,2.308,1.979,3.572h0.386c0.272-0.934-0.492-1.759-0.386-2.747
	c0.77,0.329,0.55,1.648,1.319,2.253c0.55-0.936-0.494-1.924-0.165-2.914c0.935,0.77,0.88,2.31,1.595,3.133
	c0.273-0.989-0.441-1.924-0.386-3.024c0.823,0.882,1.045,2.144,1.703,3.189c0.386-0.77-0.274-1.759-0.384-2.637
	c1.703-0.386,0.988,2.308,2.089,3.022c0.384-0.604-0.056-1.595-0.11-2.364c1.757,0,1.374,1.979,2.363,2.912
	c0.438-0.606-0.274-1.428-0.385-2.143c1.373-0.934,1.209,1.264,2.088,1.595c0.277-1.209-1.101-2.364-0.274-3.684l1.099,1.705
	c0.55-1.101-0.88-2.804,1.154-2.914c-1.044-0.108-2.583-0.987-3.408,0.275c0.11,0.439-0.273,0.715-0.164,1.209
	c-2.748-0.167-5.44-2.472-8.299-1.593c0.221-3.848-1.538-7.42-0.494-11.377l-0.274-0.221l-0.386,0.386
	c-0.329,3.737-1.593,7.475-0.934,11.212c-0.659-0.056-1.868,0.713-1.979-0.274c-1.264-6.431,0.825-12.751,2.639-18.577
	c1.758-0.769,4.011-0.383,5.551,0.659c0.823,2.859,0.055,6.211,0.108,9.069c1.87-2.31,1.374-5.991,1.43-8.959
	c1.317-0.494,2.693-1.319,4.231-0.77c0.384,2.035-0.274,4.34,0.824,6.32c0.439,0.77,1.1,1.813,1.979,2.089
	c-0.771-3.627-1.101-8.299,0.77-11.706c2.637-3.627,4.561-7.529,5.384-11.871c0.661-1.042,1.209-2.802,2.804-2.637
	C251.759,137.866,253.57,137.866,254.396,139.02"/>
<path fill-rule="evenodd" clip-rule="evenodd" fill="#FFFFFF" d="M184.876,139.845l0.165,4.231
	c-2.199-1.209-0.219-3.901-1.209-5.715C184.49,138.526,184.712,139.295,184.876,139.845"/>
<path fill-rule="evenodd" clip-rule="evenodd" d="M129.92,138.91c0,0.441-1.099,0.771-1.485,1.209
	c-1.978,0.88-4.121,1.376-5.768,3.133c1.539-2.089,4.229-2.857,6.208-4.342H129.92z"/>
<path fill-rule="evenodd" clip-rule="evenodd" fill="#FFFFFF" d="M275.388,145.89c0.661,1.593-0.548,3.077-0.823,4.615l-1.813-1.977
	c-0.386,0.878,0.165,2.197,0,3.188c1.264,1.868,4.342,2.416,4.342,5.001c-1.209-0.77-2.639-1.266-3.956-0.661
	c-2.749,1.759-5.386-1.648-8.298-0.659c0.658,0.22,1.757,0.494,1.317,1.595c0.056,0.167,0.221,0.108,0.386,0.108l0.383-0.769
	c0.222,0.056,0.44,0.164,0.661,0.11l0.165,1.486l1.428-0.663c0.439,0.331-0.33,1.54,0.658,1.319
	c0.108-0.275,0.332-0.439,0.551-0.656c0.55-0.496,0.658,0.327,0.769,0.767l0.275,0.275c0.604-0.329,0.165-1.374,1.044-1.209
	c0.055,0.219-0.11,0.548,0.111,0.658c0.987,0.055,0.164-1.538,1.319-1.154c0.329,0.331-0.111,1.044,0.439,1.319
	c0.603-0.165,0.438-0.88,0.658-1.319c0.988-0.329,0.716,2.693,1.429,0.663c1.101,1.15-1.099,2.194-1.429,3.405
	c-0.55,2.252,2.033,3.735,1.32,6.045c-3.627,2.197-0.222,6.264-2.804,8.847c-1.703,2.253-4.507,2.528-6.32,4.507l-0.275-0.275
	c0.165-0.163,0.386-0.273,0.386-0.549c-0.604-0.439-1.538-0.11-2.088-0.769l0.55-0.551c-2.418-0.604-5.332-0.769-7.695-1.978
	c-0.77-0.329-1.482-0.825-2.197-1.319c0.934-0.659-0.88-2.912,1.042-2.364l0.277,1.87c0.604-0.11,0.438-0.99,0.659-1.484
	c1.373,0.221,0,2.199,1.154,2.253c0.275-0.327,0.108-0.879,0.165-1.319c0.987,0.057,1.592,0.77,1.317,1.87
	c-0.055,0.273,0,0.494,0.221,0.658c0.658-0.219,0.384-1.044,0.55-1.594c0.273-0.055,0.988,0,1.045,0.55
	c-0.222,0.277-0.057,0.77-0.11,1.154l0.274,0.275c0.549-0.166,0.549-0.771,0.494-1.319h0.823c0.386,0.44-0.272,1.428,0.496,1.593
	c0.494-0.273,0.219-0.878,0.275-1.317c0.77-0.331,1.209,0.494,1.209,1.152c0.055,0.165,0.219,0.165,0.384,0.165
	c0.221-0.329,0.11-0.713,0.275-1.044c0.604,0.056,1.812-0.273,1.538,0.771c-0.108,0.329,0.274,0.438,0.439,0.659
	c0.439-0.11,0.165-0.77,0.221-1.209c0.77-0.055,1.593,1.759,1.979,0.164c0.275-0.934-0.551-1.263-1.319-1.209
	c-5.44,0.494-9.014-3.627-14.07-4.231c-0.054-1.594-1.263-2.747-0.823-4.616c0.604-0.659,1.76-0.33,2.526-0.219
	c4.178,0.823,7.917,3.133,12.257,3.297c0.439-0.274,0.55-0.55,0.767-0.934c-5.163,0.054-9.284-2.475-13.847-3.958
	c-0.604-0.275-1.374-0.11-2.091-0.165c-0.217-1.263-0.656-2.802-0.106-4.066c5.387-1.538,10.112,1.648,15.663,1.319
	c-0.165-0.604,0.934-1.264,0-1.595c-5.662,0.825-10.443-1.319-15.827-1.703c-2.199,0.934-3.298,3.682-5.551,4.617
	c0.604-2.418,3.846-3.354,3.956-5.937l-0.219-0.275c-1.101,1.87-3.133,3.298-4.507,5.001c-0.88-0.713-0.11-1.979,0.108-2.857
	c0.99-2.144,2.857-3.9,4.233-5.824c0.713,1.099,0.055,3.298,1.868,3.846c0.769-0.548-0.386-0.934,0-1.593
	c1.978,0.659,3.572,2.802,6.045,1.979c1.319-0.825,3.187-0.88,3.956-2.364l0.55-3.57c2.143,0,4.231,1.044,6.21,0.659
	c-0.384-0.386,0.221-1.266-0.551-1.32c-2.086,0.33-4.561,0.055-6.482-0.823c-1.101-2.692-0.11-5.715,0.165-8.684
	C267.311,143.417,271.761,143.637,275.388,145.89"/>
<path fill-rule="evenodd" clip-rule="evenodd" d="M131.515,143.913c-0.275,0.604-1.266,0.987-1.979,1.209
	c-0.165,0-0.331,0-0.442-0.165C129.702,144.46,130.526,143.856,131.515,143.913"/>
<path fill-rule="evenodd" clip-rule="evenodd" d="M162.729,145.78c-2.089-0.221-4.342-0.88-6.706-0.823
	c0.329-0.661,1.54-0.439,2.254-0.88C159.597,145.011,161.521,144.793,162.729,145.78"/>
<path fill-rule="evenodd" clip-rule="evenodd" d="M127.284,146.055c-0.275,0.55-1.209,0.494-1.705,1.044
	C125.579,146.22,126.567,146.109,127.284,146.055"/>
<polygon fill-rule="evenodd" clip-rule="evenodd" fill="#FFFFFF" points="179.106,147.869 177.897,147.099 178.723,147.485 "/>
<path fill-rule="evenodd" clip-rule="evenodd" d="M122.942,147.869c0.165,0.494-0.44,0.329-0.551,0.66h-0.273
	C122.006,148.034,122.612,148.087,122.942,147.869"/>
<path fill-rule="evenodd" clip-rule="evenodd" d="M176.578,152.21c-1.264-0.11-2.526-1.044-3.792-1.538
	c-0.11-0.715-0.825-0.77-0.936-1.484C173.391,150.34,175.314,150.781,176.578,152.21"/>
<path fill-rule="evenodd" clip-rule="evenodd" fill="#FFFFFF" d="M251.483,151.825l-3.793,4.781c0.11-2.363,1.869-4.671,3.297-6.595
	L251.483,151.825z"/>
<path fill-rule="evenodd" clip-rule="evenodd" fill="#FFFFFF" d="M223.676,151.99c-1.264-0.33-2.308,0.386-2.748,1.43
	c-3.078,6.045-3.901,12.969-4.397,20.059c0.167,2.199,1.265,4.066,1.595,6.209c-0.165,0.386-0.604,0.221-0.935,0.221
	c-2.911-6.705-1.265-15.333,0.165-22.422c0.77-2.418,1.428-5.332,3.956-6.595C222.302,150.726,223.071,151.22,223.676,151.99"/>
<path fill-rule="evenodd" clip-rule="evenodd" fill="#FFFFFF" d="M176.468,156.167c-3.408,0.659-5.495-2.802-8.077-4.342
	C171.248,152.867,173.941,154.353,176.468,156.167"/>
<path fill-rule="evenodd" clip-rule="evenodd" d="M127.942,152.65c-0.989,0.549-1.925,1.703-3.187,1.979
	c-0.057-0.88,1.319-1.264,1.978-1.868C127.12,152.705,127.558,152.266,127.942,152.65"/>
<polygon fill-rule="evenodd" clip-rule="evenodd" fill="#FFFFFF" points="164.432,156.167 158.662,152.76 161.574,154.078 "/>
<path fill-rule="evenodd" clip-rule="evenodd" fill="#FFFFFF" d="M225.543,155.123c0.11,5.715-3.462,10.332-2.528,15.827
	l0.661,4.123c-1.374,0.108-3.022-0.88-4.507-0.165c-0.88-7.529,0.77-14.729,3.188-21.213
	C223.621,153.695,224.83,154.078,225.543,155.123"/>
<path fill-rule="evenodd" clip-rule="evenodd" d="M168.83,156.442c-0.331,0.384-1.044-0.165-1.101-0.659
	C168.115,156.001,168.72,155.891,168.83,156.442"/>
<path fill-rule="evenodd" clip-rule="evenodd" d="M119.369,158.805c0.551-0.936,1.703-1.54,2.636-2.199
	C121.896,157.705,120.249,158.09,119.369,158.805"/>
<path fill-rule="evenodd" clip-rule="evenodd" fill="#FFFFFF" d="M215.213,158.419l-0.661,2.804
	c-7.254-1.924-14.672-1.209-22.422-2.145c-0.658-0.494,0.165-1.099,0.439-1.593c3.408-1.265,7.476-0.329,11.321-0.223
	C207.849,157.263,211.365,158.255,215.213,158.419"/>
<path fill-rule="evenodd" clip-rule="evenodd" d="M127.119,158.695c0.33,0.88-1.1,1.155-1.705,1.703
	C125.634,159.904,126.35,158.75,127.119,158.695"/>
<path fill-rule="evenodd" clip-rule="evenodd" d="M170.147,165.838c1.813,3.188,5.332,3.519,7.75,5.937
	c2.253,0.384,3.902,2.197,6.099,2.747c0.937,0.77,1.924,1.924,1.979,3.022c-0.494-0.11-0.658-0.88-1.099-1.319
	c-2.802-2.473-6.045-3.737-9.453-4.726c-1.538-2.637-4.892-2.308-6.099-5.165c-2.31-0.551-3.133-3.188-5.111-4.617l-2.803-1.703
	c0.769-0.386,1.43,0.33,2.145,0.549C165.862,162.046,167.4,165.069,170.147,165.838"/>
<path fill-rule="evenodd" clip-rule="evenodd" fill="#FFFFFF" d="M208.617,160.949l5.826,1.319
	c-6.87-0.771-13.851-2.31-21.215-1.705l-0.934-0.275c2.639-0.329,5.275,0.167,8.024,0
	C203.121,160.894,205.704,160.729,208.617,160.949"/>
<path fill-rule="evenodd" clip-rule="evenodd" d="M117.391,161.223c-2.528,1.319-2.859,4.011-5.167,5.659
	c-0.055,0.551-0.275,0.99-0.66,1.431c0.22-3.188,3.298-5.937,6.101-7.915C118.107,160.729,117.335,160.894,117.391,161.223"/>
<path fill-rule="evenodd" clip-rule="evenodd" fill="#FFFFFF" d="M214.168,163.696l-0.66,5.551
	c-6.539-0.549-13.134-1.868-19.235-3.956c0.167-1.209-1.044-3.244,0.496-3.573C201.747,161.607,207.902,162.268,214.168,163.696"/>
<path fill-rule="evenodd" clip-rule="evenodd" fill="#FFFFFF" d="M251.924,166.993c-0.937,1.539-2.75,1.264-3.737,2.364
	c-0.77-1.155-0.165-2.804,0-4.066c1.428-0.88,2.857-1.595,3.954-3.022C252.086,163.86,253.57,165.73,251.924,166.993"/>
<path fill-rule="evenodd" clip-rule="evenodd" fill="#FFFFFF" d="M159.432,163.202l3.572,3.791c-1.101,0.386-3.407,0-5-0.274
	c-2.364-0.88-6.266-0.494-6.596-3.792l-0.385-0.55C153.826,163.037,156.464,163.312,159.432,163.202"/>
<path fill-rule="evenodd" clip-rule="evenodd" fill="#FFFFFF" d="M178.062,166.059c-1.703-0.604-3.133-1.813-4.617-2.857
	C175.094,163.86,176.578,164.96,178.062,166.059"/>
<path fill-rule="evenodd" clip-rule="evenodd" fill="#FFFFFF" d="M193.229,164.74c-0.549-0.054-1.317-0.329-1.868-0.77v-0.385h1.705
	L193.229,164.74z"/>
<path fill-rule="evenodd" clip-rule="evenodd" fill="#FFFFFF" d="M141.516,165.838v1.319c-3.736,1.374-7.417,2.804-11.597,3.133
	c0.387-0.934,0.663-1.978,1.597-2.747c3.24-0.661,6.264-1.813,9.342-2.914L141.516,165.838z"/>
<path fill-rule="evenodd" clip-rule="evenodd" fill="#FFFFFF" d="M68.205,168.202c0.44,2.912-1.262,5.276-1.868,7.915
	c-1.264,1.757-3.354,1.593-5.278,1.152c-2.912-1.978-2.801-6.595-2.084-9.726c0.933-3.354,4.78-0.661,6.813-2.364
	C67.271,165.455,67.382,167.212,68.205,168.202"/>
<path fill-rule="evenodd" clip-rule="evenodd" fill="#FFFFFF" d="M43.144,169.136c1.54-0.549,2.033,0.715,2.362,1.813
	c-0.329,1.538-0.329,4.177-2.636,3.958c-2.199,0.441-5.498,1.099-7.144-1.044c-0.496-0.222-1.209-0.222-1.705,0
	c0.769,0.439,1.978,0.604,2.529,1.702c1.703,1.209,4.013-0.11,5.936,0.659c-1.43,1.705-4.068,1.209-5.936,0.936
	c-1.485-0.166-2.859-1.319-3.463-2.639c-0.22-0.439-0.055-1.263-0.66-1.317c-0.438,1.428,0.715,2.802,1.044,4.229
	c0.276,0.386,0.88,0.99,0.276,1.43l-2.472,2.143c0.934,0.551,2.581-0.769,3.132,0.88c0.714-0.329-0.22-0.713-0.112-1.154
	l0.661-0.384c0.603,0.272,0.056,1.209,0.934,1.154c0.44-0.66-0.825-2.253,0.385-2.09c0.604,0.441,0.386,1.483,1.044,1.704
	c0.383-0.66-0.165-1.209-0.275-1.867l1.319,2.253c0.494-0.825-0.275-1.483-0.387-2.253c0.881-0.167,1.101,1.428,1.703,1.757
	c0.498-0.658-0.934-1.867,0.276-1.978c0.607,0.221,0.275,0.934,0.933,1.044l0.111-1.319c0.495,0.275,0.66,1.044,1.209,1.154v-1.43
	c0.771,1.101,2.363,2.31,1.154,3.684c-0.053,1.099-1.868,2.032-1.042,2.912c1.594-0.824,2.251-2.473,3.185-3.846
	c1.268,0.658,2.583,1.263,3.684,2.251c4.672,1.046,7.637-2.197,10.661-4.891c1.375,0.33,2.914,0.604,4.399,0.275
	c0.329,3.462-0.496,7.309,1.702,10.058c-0.604-3.243,0-7.311,0-10.443c0.111-0.164,0.276-0.329,0.494-0.274
	c0.22,3.518-1.045,7.199,0.551,10.442l-0.112,5.001c-1.209,0.494-2.363-0.33-3.463-0.111c2.914,1.705,6.486,2.64,8.738,5.937
	c0.331,0.604,0.991,0.988,1.538,1.317c0-3.076-3.294-5.275-5.492-7.032c-0.332-1.045,0.934-1.155,1.538-1.43
	c2.251-0.77,4.945-0.549,7.033-1.703l-0.273-0.275c-2.639,0-5.553-0.055-8.08,0.55c0.111-1.594-0.053-3.352-0.385-4.892l2.639-1.868
	c6.319-1.044,9.727,5.111,13.574,8.738l0.165-0.165c-2.363-2.472-2.143-6.374-5.275-8.188c-1.101-0.604-2.253-0.936-3.463-1.319
	c1.923-0.221,2.747-3.519,5.055-2.363c1.485,0.274,2.912,1.705,4.617,0.825c-0.658-0.99-3.35-0.604-2.527-2.418
	c0.716-1.211,2.09-0.057,3.023,0.163c6.154,4.671,9.011,11.651,10.167,18.851c-0.275,0.275-0.716,0.108-1.044,0.108
	c-0.385-1.813,0.385-4.504-1.21-6.044c-1.209-1.153-1.482-3.298-3.021-4.067c-0.167,1.319,1.262,2.364,1.316,3.792
	c1.541,2.749,1.815,6.486,1.429,9.509l0.275,0.275c0.496-0.496,0.825-1.209,0.825-1.98h1.541c0.328,1.319,0.106,2.804-0.771,3.684
	l-3.299,0.11c-0.382-0.44,0.222-1.595-0.769-1.43c-0.769,1.098-1.593,2.363-2.912,2.747c-3.077-1.538-4.562,2.199-7.418,1.978
	c-2.088,0.111-3.682-1.042-5.497-1.538c-0.053-0.439-0.053-1.097,0.496-1.097c1.042-0.056,0.658,1.262,1.484,1.482l0.107-1.703
	c0.551-0.11,0.66,0.878,1.209,0.878c0.439-0.604-0.438-1.317,0.222-1.813c0.494,0.164-0.057,1.044,0.659,0.936
	c0.275-0.496,0.11-1.54,0.165-2.253c0.66,0.108,0.493,0.988,0.933,1.428c0.827-0.494-0.658-2.032,0.769-1.813
	c0.441,0.386,0.111,1.374,0.771,1.428c0.274-0.384,0.11-0.988,0.163-1.428c0.663-0.219,0.991,0.219,1.155,0.77
	c1.154,0.55-0.053-1.374,1.101-1.209c0.549,0.164-0.111,0.987,0.658,0.825c0.276-0.825,0.387-1.76,1.156-2.364l0.165,2.637
	c1.156-0.272,0.714-1.978,1.538-2.253c0.22,0.604,0.053,1.484,0.658,1.813l0.551-1.317c1.209-0.057,0.111,1.484,1.209,1.484
	c-0.385-1.87,1.758-1.484,2.472-2.639c-0.822-0.551-1.758,0.329-2.748,0.274c-3.901-0.11-0.822-4.231-2.143-6.209
	c-1.32-2.585-2.583-5.111-5.001-6.98c-0.549,0.55,0.165,1.209,0.276,1.813c3.022,2.639,3.572,6.43,3.188,10.275
	c-1.65,3.796-7.089-0.493-8.465,3.298c-0.66,2.42-5.548-0.054-4.066,3.737c-1.429,2.089-3.354,4.342-5.826,5.003
	c0-0.496-0.548-0.661-0.385-1.209c2.087-1.207,4.562-3.079,4.452-5.771c0.165-0.716-0.222-1.262-0.66-1.593
	c0.109,2.802-2.363,5.22-4.725,6.319c-1.703-1.373-3.903-2.42-6.211-1.594c-1.978,0.879-3.681,3.076-5.001,4.616
	c-0.771-0.769-1.812-1.54-3.023-1.594c-2.198,0-3.462,1.759-5,3.078c-0.382-2.857-2.966-6.155-5.935-6.87v-0.386
	c1.485-1.373,3.298-2.472,4.45-4.121c0.386,0.165,0.275,0.988,0.938,0.935c0.436-0.716-0.222-1.649-0.551-2.364
	c-0.879-1.646-2.583-2.472-4.176-3.022c-1.485-0.219-3.463-0.384-4.397,0.661c2.143,0.715,4.837,0,6.375,2.086
	c-4.617-2.307-9.398,0.606-13.464,2.364c-1.431,0.054-3.134-0.384-3.847-1.813c-0.056-0.878-0.385-1.703-0.276-2.637
	c0.441,1.373,1.705,2.143,3.079,2.361l0.22-0.275c-1.594-2.361-3.243-4.779-4.617-7.253c-0.385-1.374-0.548-2.912,0.661-3.847
	c1.207-0.164,1.703,0.988,2.251,1.76c1.263,1.757-0.493,5.22,2.529,5.77c0.329,1.044,1.428,1.979,2.472,2.143l0.276-0.274
	c-1.814-2.144-4.285-4.343-3.792-7.144l-1.098-2.475c1.979-0.604,4.122-0.054,5.933,0.496c1.925,1.099,1.978,3.571,1.872,5.549
	c-0.771,1.43-1.432,2.914-2.75,4.066c2.474-0.272,3.188-3.241,3.959-5.275l-0.168-2.747c1.595-0.494,3.628-0.77,5.279-0.273
	c0.714-0.496-0.222-0.934,0-1.595c-0.167-0.989,1.042-1.759,0.382-2.639l-1.538,1.87c-1.429-2.034-3.461-3.573-5.715-4.067
	c0.165,1.099,1.592,1.318,1.867,2.362c-3.296-1.482-6.099-4.066-9.889-4.34c-1.705-1.101-0.716-3.024-0.771-4.617
	c1.482-2.528,4.011-4.892,3.958-8.188c2.251-3.133,5.055,0.823,7.911,0.494C40.452,169.632,41.717,168.971,43.144,169.136"/>
<path fill-rule="evenodd" clip-rule="evenodd" fill="#FFFFFF" d="M211.915,170.566l0.934,2.087
	c-5.386,0.056-11.32-1.372-16.761-2.746c-0.439-1.319,0.935-1.319,1.099-2.363C202.189,168.313,206.913,169.851,211.915,170.566"/>
<path fill-rule="evenodd" clip-rule="evenodd" fill="#FFFFFF" d="M122.667,167.817c-1.32,1.759-3.079,3.572-5.274,3.683
	C118.766,169.851,120.304,167.652,122.667,167.817"/>
<path fill-rule="evenodd" clip-rule="evenodd" fill="#FFFFFF" d="M253.241,168.038c0.11,1.154,0.769,2.088,0.88,3.187
	c-2.144,0.22-2.529,3.079-4.617,3.573c-0.33,0.275-0.33,0.439-0.108,0.769c0.439-0.054,0.934,0.111,1.319-0.11
	c0.162,0.386,0.162,0.88,0.548,1.155c0.386-0.715,0.165-1.76,1.045-2.364c0.329,0.165-0.165,0.88,0.385,1.045
	c0.77-0.44,0.165-1.484,0.549-2.089h0.221c0.384,0.604-0.221,1.595,0.548,1.979c0.332-0.549,0.44-1.209,0.388-1.979
	c0.932-0.494,1.153,0.715,1.043,1.43v0.549h-0.386c-0.273,0.604,0.55,1.101,0.55,1.704c-1.648,0.549-3.35,0.055-4.89,0.384
	c1.371,1.484,3.517,1.155,5.384,0.825c0.604,0.33,0,0.77,0,1.155c-2.747,1.482-4.507-1.98-7.364-1.54
	c-0.88-1.868-1.152-4.672-0.275-6.596C250,169.961,251.978,169.522,253.241,168.038"/>
<path fill-rule="evenodd" clip-rule="evenodd" fill="#FFFFFF" d="M212.849,174.138l-0.493,0.384
	c-5.387-0.715-10.717-1.484-15.608-3.408C202.188,171.885,207.52,173.148,212.849,174.138"/>
<path fill-rule="evenodd" clip-rule="evenodd" d="M66.996,171.885c-0.823,0.768-1.321,1.813-0.934,2.912
	c-0.715-0.055-0.165-1.43-1.156-1.209c-0.273,0.55-0.108,0.715-0.165,1.319c-0.768-0.165,0-1.705-1.153-1.705
	c-0.276,0.496-0.111,1.154-0.165,1.705c-0.716-0.275-0.112-1.595-1.045-1.705c-0.385,0.77,0.165,1.43,0.111,2.253
	c-0.66-0.658-0.387-2.857-1.978-2.253c-0.056-0.604,1.042-0.878,1.591-1.209c1.816-0.713,3.354,1.54,4.617-0.384L66.996,171.885z"/>
<path fill-rule="evenodd" clip-rule="evenodd" fill="#FFFFFF" d="M175.15,175.952c1.646,0.659,3.57,0.77,5,1.979l-0.936,0.548
	c-8.627,1.76-18.409,0-26.104-3.57c-0.934-0.496-0.823-1.484-1.209-2.255C159.267,174.795,166.906,176.832,175.15,175.952"/>
<path fill-rule="evenodd" clip-rule="evenodd" fill="#FFFFFF" d="M180.534,204.967c-14.894,18.19-38.139,25.994-61.165,20.443
	c-10.276-2.472-19.4-7.857-27.313-15.662c1.705-0.164,3.519-1.924,5.277-1.044c14.948,13.795,38.521,17.751,57.208,10.111
	c13.629-4.669,26.708-18.299,31.434-31.873c1.924-1.044,4.288-2.143,5.275-4.397c0.99-2.418-0.823-4.726,0-7.09l-0.439-2.253
	l2.145-0.55C192.351,184.633,187.845,195.514,180.534,204.967"/>
<path fill-rule="evenodd" clip-rule="evenodd" fill="#FFFFFF" d="M141.791,175.073c0.716,4.285-4.397,3.57-6.76,5
	c-5.385,1.43-10.826,2.693-16.707,2.912c-0.826-0.77-0.328-1.538,0.494-1.979c1.649-0.934,3.848-0.439,5.661-0.934
	c5.991-0.66,11.432-2.583,16.653-5H141.791z"/>
<path fill-rule="evenodd" clip-rule="evenodd" fill="#FFFFFF" d="M89.693,179.413c4.286,6.43,9.507,12.695,9.067,20.939
	c-0.218,0.823-1.099,0.219-1.538,0c-0.44-8.738-4.288-16.432-10.828-22.258c-0.934-0.604-2.198-0.439-3.296-0.66
	c-0.218-0.934,0.769-1.209,1.32-1.593C86.779,175.512,87.988,178.094,89.693,179.413"/>
<path fill-rule="evenodd" clip-rule="evenodd" fill="#FFFFFF" d="M59.082,177.709c0,0.221-0.273,0.329-0.385,0.494
	C58.808,178.039,58.642,177.269,59.082,177.709"/>
<path fill-rule="evenodd" clip-rule="evenodd" fill="#FFFFFF" d="M106.289,181.392v0.275c-3.792,1.044-8.133,0.934-11.705,2.637
	c-0.604-0.659-1.045-1.374-1.318-2.143c3.899-1.209,8.242-1.374,12.366-1.979L106.289,181.392z"/>
<path fill-rule="evenodd" clip-rule="evenodd" fill="#FFFFFF" d="M142.835,184.525c-0.551,0.386-0.769-0.496-1.044-0.771l0.66-3.298
	l0.385,0.275V184.525z"/>
<path fill-rule="evenodd" clip-rule="evenodd" fill="#FFFFFF" d="M149.264,181.117l-0.769,0.275c1.265,0.823,0.715,2.251,0.66,3.298
	c-0.439,0.054-0.88,0.494-1.319,0.11c-0.219-0.441,0.494-1.157-0.275-1.595c-0.769,0-0.658,1.099-0.934,1.484
	c-0.493,0.384-1.429,0.219-1.925,0.273l0.387-1.868c0.165,0.439,0.109,1.044,0.659,1.319c0.879-0.331,0.879-1.265,1.155-1.978
	l0.823,0.383l1.044-2.088C148.935,180.842,149.045,181.117,149.264,181.117"/>
<path fill-rule="evenodd" clip-rule="evenodd" fill="#FFFFFF" d="M219.169,182.545c1.209,1.265,2.526,2.692,4.396,2.639
	c1.099,0.054,2.582,0.11,3.407-1.045c-0.164,0.824-1.209,1.649-2.088,2.254c-1.047,0.329-2.639,0.494-3.573-0.11
	c-1.813-1.264-2.804-3.077-3.572-4.891C218.783,181.006,218.894,181.941,219.169,182.545"/>
<path fill-rule="evenodd" clip-rule="evenodd" fill="#FFFFFF" d="M265.333,184.139l0.823,10.717l2.639,39.954v0.658
	c-2.089-1.263-5.497-1.595-7.64-0.275l-1.595-20.719l-1.592-28.632h0.381c1.322,4.617,1.211,9.782,2.144,14.51
	c0.168,0.055,0.223-0.165,0.388-0.221c-0.551-5.44-1.32-10.991-1.209-16.486C261.1,182.215,264.507,181.613,265.333,184.139"/>
<path fill-rule="evenodd" clip-rule="evenodd" fill="#FFFFFF" d="M106.179,182.82v0.275c-3.734,0.604-7.362,1.374-10.934,2.253
	c0.106-0.715,0.987-0.823,1.538-1.044C99.915,183.81,102.88,182.545,106.179,182.82"/>
<path fill-rule="evenodd" clip-rule="evenodd" fill="#FFFFFF" d="M108.542,189.14c-2.912,1.484-6.375,2.253-9.782,2.912
	l-2.637-5.385c3.13-1.319,6.758-2.418,10.551-1.978L108.542,189.14z"/>
<path fill-rule="evenodd" clip-rule="evenodd" fill="#FFFFFF" d="M179.766,188.646c1.812-0.715,3.572-1.648,5.386-2.363
	c-5.222,15.991-20.937,30.226-37.205,33.854c-0.439-0.221-0.494-0.825-0.66-1.321c1.813-1.703-0.22-4.011,1.209-5.935
	c-0.384-0.99-0.055-1.813,1.044-1.978c5.99-1.319,11.816-3.959,16.102-8.573l-0.272-0.222c-5.44,1.431-10.827,1.87-16.599,1.431
	c-0.054-0.99-1.099-2.089-0.164-3.022c8.573-0.937,16.596-2.969,23.906-6.87c0.221-0.111,0.054-0.33,0.11-0.551l-0.386-0.219
	c-7.311,1.264-15.112,1.154-22.037-0.932c0.88-2.091-2.145-4.619,0.384-6.322C160.09,187.216,169.818,192.602,179.766,188.646"/>
<path fill-rule="evenodd" clip-rule="evenodd" d="M58.973,195.625c1.319,1.209,3.13,1.87,4.177,3.189
	c-1.376,0.054-2.528-0.604-3.683-1.101c0.991,2.363,3.738,3.519,5.659,5.057c-5.769-0.11-8.627-6.595-12.09-10.552
	c-0.987-1.924-1.317-4.122-2.525-5.936l0.109-0.275C53.477,189.085,55.345,192.988,58.973,195.625"/>
<path fill-rule="evenodd" clip-rule="evenodd" fill="#FFFFFF" d="M146.627,187.051c0.054,0.88-0.716,1.87,0.275,2.254l0.823-2.362
	c-0.548,1.868,1.98,3.46,0.386,5.275c-1.43-0.385-2.75-3.297-4.231-0.934c-1.266-0.55-1.813,0.988-2.912,0.494
	c-0.551-0.99,0.493-1.648,0.165-2.749c0.493,0.55-0.549,1.211,0.385,1.595c0.66-0.494,0.933-1.703,0.769-2.364l2.143-0.275
	c0.109-0.329-0.109-0.604-0.384-0.658h-0.165C144.209,185.513,145.638,187.38,146.627,187.051"/>
<path fill-rule="evenodd" clip-rule="evenodd" fill="#FFFFFF" d="M138.988,189.58c-0.165,1.266,0.716,2.089,0.439,3.408
	c-6.428,3.077-13.683,3.298-21.103,3.57c-0.33,0.222-0.604,0.606-0.276,0.937c6.322,2.747,13.575,3.354,20.939,3.517l-1.044,2.639
	c-4.944,1.152-9.836,0.219-14.782-0.221c-0.385,0.164-0.989,0.769-0.385,1.154c4.779,3.022,9.727,5.826,15.331,6.868
	c-0.659,0.604-0.494,1.924-0.165,2.639c1.044,1.045-0.881,2.089,0.165,3.298c1.924,0.823-1.045,2.308,0.387,3.572v0.935
	c-16.872,0.934-31.767-4.231-43.142-16.378c0.715,0.11,1.319,0.386,2.088,0.275c2.692-1.376,1.981-4.617,2.639-6.979
	c4.837-2.034,10-3.354,14.784-5.442c5.879,1.209,10.55-2.032,15.991-2.747C133.546,190.294,136.187,189.69,138.988,189.58"/>
<path fill-rule="evenodd" clip-rule="evenodd" fill="#FFFFFF" d="M107.773,193.372c-1.978,0.221-3.628,1.209-5.714,1.209
	c-0.496,0.331-0.934,0.769-1.539,0.769c-0.441-4.23,4.341-2.582,6.429-4.064C107.554,191.723,107.442,192.712,107.773,193.372"/>
<path fill-rule="evenodd" clip-rule="evenodd" fill="#FFFFFF" d="M145.968,195.241c-0.332,0.824-0.496,1.756,0.165,2.473h0.275
	c-0.222-1.538,0.934-3.077,0.494-4.726l0.55,0.275c-0.99,1.152,0.77,2.308,0.108,3.681c-0.769,1.099,0.057,2.748-0.769,3.188
	c-0.383-0.551-0.77-1.099-1.319-1.593c-1.978,0.988-4.286-1.595-5.659,1.153c-0.551-1.868,1.099-3.738,0.494-5.276
	c0.934,0.77-0.769,3.519,0.934,2.528c0.44-1.209-0.494-3.737,1.32-3.681c0.714-0.661,1.703-0.77,2.252-1.484
	C146.957,191.668,145.583,194.251,145.968,195.241"/>
<path fill-rule="evenodd" clip-rule="evenodd" fill="#FFFFFF" d="M166.961,194.966c-5.716,2.088-11.979,2.968-18.191,3.848v-0.825
	c1.76,0,3.408-0.604,5.276,0c2.034-1.319,4.892-0.659,6.98-1.979l-0.386-0.275c-3.352-0.329-5.935,2.308-9.232,0.823
	c-0.825-0.219-1.594,0.99-2.145,0c0.551-1.317-1.099-2.361,0.167-3.295C155.09,194.636,160.861,194.966,166.961,194.966"/>
<path fill-rule="evenodd" clip-rule="evenodd" fill="#FFFFFF" d="M106.675,194.691l-6.046,2.526
	c-0.109-0.273-0.384-0.438-0.273-0.823c1.647-1.593,4.121,0,5.659-1.813C106.235,194.636,106.455,194.745,106.675,194.691"/>
<path fill-rule="evenodd" clip-rule="evenodd" fill="#FFFFFF" d="M138.877,197.054c-3.241,2.418-7.69-0.164-11.21,1.209
	c-0.11,0.275,0.111,0.384,0.276,0.549c3.625-0.713,6.868,0.769,10.385,0.221c-5.879,0.88-12.363,0.384-17.916-1.538
	c5.993,0.546,12.421-0.937,18.356-2.639L138.877,197.054z"/>
<path fill-rule="evenodd" clip-rule="evenodd" fill="#FFFFFF" d="M145.472,200.517c-0.987,1.099,0.332,2.196-0.658,3.297
	c0.769,0.88-0.22,2.802,1.042,3.131c0.111-1.263-0.33-3.131,0.386-4.34c1.647,1.539-0.439,3.627,0.823,5.276l-0.164,0.658
	c-2.364,0.057-4.289-2.804-6.814-1.595c0.881-2.251-2.088-3.627-0.275-5.659c1.209,1.045-0.165,2.969,0.658,4.121l0.387-0.439
	c0.659-1.593-0.88-4.178,0.769-5.275C142.945,200.295,144.539,199.033,145.472,200.517"/>
<path fill-rule="evenodd" clip-rule="evenodd" fill="#FFFFFF" d="M44.574,200.79l-0.276,0.496l-1.427-1.319
	C43.529,199.966,44.08,200.352,44.574,200.79"/>
<path fill-rule="evenodd" clip-rule="evenodd" fill="#FFFFFF" d="M146.902,201.945l-0.494,0.164l-0.164-0.934
	C146.517,201.175,146.902,201.616,146.902,201.945"/>
<path fill-rule="evenodd" clip-rule="evenodd" fill="#FFFFFF" d="M97.991,202.22c0.053,0.769-0.44,1.813-1.32,2.253
	c-0.218,0.221-0.604,0.054-0.934,0.11C97.057,204.144,96.562,202.055,97.991,202.22"/>
<path fill-rule="evenodd" clip-rule="evenodd" d="M260.33,202.878c0.606,2.969,0.551,5.826,0.551,8.851h-0.167
	c-0.77-2.86-0.713-5.882-0.492-8.851H260.33z"/>
<path fill-rule="evenodd" clip-rule="evenodd" fill="#FFFFFF" d="M161.574,204.473c-4.011,2.968-8.682,4.396-13.463,5.386
	c-0.275-1.43,2.032-0.386,2.637-1.595c2.253,0.222,4.066-1.373,6.32-1.538c0.164-0.164,0.331-0.274,0.274-0.548
	c-2.472,0.384-5.44,0.767-7.635,1.703c-2.366,0.548-0.388-1.813-1.321-2.639C152.453,204.583,157.232,204.913,161.574,204.473"/>
<path fill-rule="evenodd" clip-rule="evenodd" fill="#FFFFFF" d="M138.494,204.967c0.934,0.88-0.218,2.034,0.11,2.914
	c-3.078,0.548-5.99-1.43-9.066-1.319v0.274c3.295,0.494,5.879,2.748,9.614,2.254v0.658c-4.943-0.99-9.947-2.032-14.013-4.781
	C129.262,205.407,134.208,205.407,138.494,204.967"/>
<path fill-rule="evenodd" clip-rule="evenodd" d="M56.444,205.517c-0.439,0.661-1.593,0.33-2.254,0.77
	c-1.758,0.275-1.869,2.857-3.957,2.418c-0.549-0.275-1.374,0.55-1.429-0.275C51.334,207.441,52.928,204.473,56.444,205.517"/>
<path fill-rule="evenodd" clip-rule="evenodd" fill="#FFFFFF" d="M46.003,212.113c0.604,2.801-1.705,4.12-3.683,5.551
	c-0.934,0.329-1.978,0.987-3.022,0.383c-1.814-1.592-4.342-3.352-4.617-5.823c1.32,1.867,2.969,3.956,5.277,4.396l1.209-0.274
	c-2.363-1.264-5.33-3.517-4.89-6.596c1.153-0.823,2.196-1.978,3.571-2.363C42.65,207.331,45.015,209.638,46.003,212.113"/>
<path fill-rule="evenodd" clip-rule="evenodd" fill="#FFFFFF" d="M65.568,209.584c-1.705,1.648-4.399,0.934-5.826,3.187
	c-0.218,1.87,2.8,0.934,1.978,2.747c-0.44,1.813-1.813,3.408-1.87,5.168c0.549,0.11,0.441-0.494,0.825-0.661
	c0.329,0.11,0.165,0.715,0.658,0.551c0.44-0.716-0.987-1.595,0.276-2.144l0.66,0.384c0.331-0.604-0.496-1.152,0-1.813
	c1.042-0.329,0.936-1.648,1.318-2.528c0.167-0.934-1.485-1.317-1.099-2.251c0.822,0,0.661,1.152,1.485,1.317
	c0.384-0.549-0.332-1.045-0.276-1.703c0.549-0.165,0.494,0.88,1.045,0.825c0.549-0.606-0.769-1.154,0.273-1.595
	c0.66-0.274,0.551,0.384,0.936,0.661c0.934-0.551-0.716-1.266,0.384-1.595c0.549,0.439,0.549,1.044,0.549,1.703
	c-2.254,3.076-4.067,6.32-5.441,9.782c-2.966,0.658-5.659-1.428-7.64-3.298l-0.273,0.275l1.705,3.408
	c-0.936,0.548-1.925,1.538-2.476,2.526c1.65-0.055,3.299-2.583,5.112-1.099c-1.702,0.164-3.681,3.627-5.935,1.595
	c-1.263-0.715-2.143-2.035-2.639-3.298c-0.329-2.253,1.485-3.794,2.803-5.275c0.329,1.099-1.263,1.703-0.659,2.526
	c1.539-0.77,1.539-2.418,2.748-3.463c0.494,0.496-0.387,1.101,0.276,1.484c1.098-0.988,1.042-2.637,1.592-3.956
	c1.265-2.089,2.967-5.055,5.661-5.551C63.258,207.496,64.908,208.156,65.568,209.584"/>
<path fill-rule="evenodd" clip-rule="evenodd" fill="#FFFFFF" d="M143.386,209.473l1.703-0.548c-0.385,0.604,0.22,1.922-0.549,2.526
	c0.438,1.266,0.273,2.749,0.66,3.958h0.274c0.22-1.483-0.165-3.519,0.495-4.892c0.053-0.275-0.11-0.661,0.165-0.934
	c0.548,0.329,0.88,1.209,0.934,1.978c-0.329,0.057-0.658-0.054-0.822,0.275c1.591,2.089-0.332,3.627,0.658,5.937
	c-0.494,0.162-1.099-0.882-1.813-0.937c-1.87-0.493-4.23-1.373-5.826,0.275c-0.218-1.263,0.991-2.582-0.385-3.681
	c0-0.77,0.385-1.433,1.042-1.98c0.606,1.211-0.163,2.199,0.662,3.408l0.276-0.219c-0.167-2.034,0.273-3.794,0.108-5.826
	C141.792,206.945,142.396,209.419,143.386,209.473"/>
<path fill-rule="evenodd" clip-rule="evenodd" fill="#FFFFFF" d="M55.511,212.002c-0.385,1.154-1.813,1.924-2.474,3.021
	c-0.275-1.208,0.88-2.472,1.54-3.572C54.959,211.508,55.235,211.672,55.511,212.002"/>
<path fill-rule="evenodd" clip-rule="evenodd" d="M260.716,217.499c-0.221,0.108-0.329-0.11-0.494-0.221
	c-0.275-0.604,0.439-0.551,0.659-0.823C261.155,216.784,260.991,217.223,260.716,217.499"/>
<path fill-rule="evenodd" clip-rule="evenodd" fill="#FFFFFF" d="M144.924,218.432c0.275,0.494-0.384,1.045,0,1.593l1.044-0.658
	c0.219,0.383,0.548,0.715,0.44,1.209l-6.321,1.156c0.385-1.103-1.593-2.641,0.22-3.41
	C141.625,218.158,143.659,217.388,144.924,218.432"/>
<path fill-rule="evenodd" clip-rule="evenodd" fill="#FFFFFF" d="M270.608,239.152c0.329,1.207,0.604,2.143,0.275,3.405
	c-0.826,0.99-2.089,0.935-3.298,1.099c-2.034-0.272-4.013-1.373-5.386-2.801l-0.551,0.934c-0.165-0.275-0.11-0.88-0.658-0.77v1.319
	c-0.11-0.221-0.11-0.496-0.386-0.658c-0.77,0.384-0.219,1.481,0,2.086c-0.551-0.274,0.11-1.263-0.77-1.209l-0.275,0.826
	c-0.164-0.222-0.164-0.496-0.383-0.661c-0.44,0.221-0.275,0.934-0.935,0.661c-0.879-2.475,0.273-4.946,1.812-6.596
	c1.76-1.43,4.123-1.978,6.377-1.319C268.134,236.238,269.837,237.336,270.608,239.152"/>
<path fill-rule="evenodd" clip-rule="evenodd" d="M267.751,237.557c-0.11,0.275-0.386,0.11-0.551,0.164
	c-0.219-0.274-0.386-0.769,0.11-0.825C267.694,237.006,267.805,237.173,267.751,237.557"/>
<path fill-rule="evenodd" clip-rule="evenodd" d="M266.432,239.424c-0.165,0.386-0.716,0.275-0.935,0.11l0.275-0.769
	C266.102,238.709,266.925,238.93,266.432,239.424"/>
<path fill-rule="evenodd" clip-rule="evenodd" d="M265.223,240.58c0.274,0.658-0.055,1.209-0.659,1.484
	c-0.825-0.33-1.044-1.32-0.936-1.979C264.014,239.865,265.058,239.81,265.223,240.58"/>
<path fill-rule="evenodd" clip-rule="evenodd" fill="#FFFFFF" d="M265.333,247.174c0.494-0.825-0.332-1.43-0.11-2.363
	c1.978-0.604,0.439,3.848,1.865,1.595c-0.273-0.275-0.106-0.716-0.163-1.045h0.935c0.331,0.494-0.273,1.209,0.55,1.317
	c0.551-0.384-0.11-1.757,1.044-1.481c0.165,0.164,0.165,0.438,0.382,0.548c-1.315,1.813-3.185,2.693-5.382,2.639
	c-1.648-0.164-3.189-0.55-4.398-1.869c1.155-1.429,1.541,0.989,2.639,0.934c0.222-0.604-0.604-1.099-0.493-1.813
	c0.493,0.275,0.493,1.044,1.154,1.044v-0.66c0.165,0.166,0.384,0.166,0.548,0.276c0.494-0.66-0.383-1.319-0.274-2.143
	C264.893,244.536,264.396,246.57,265.333,247.174"/>
<path fill-rule="evenodd" clip-rule="evenodd" fill="#FFFFFF" d="M262.858,244.811l0.384,0.66L262.858,244.811z"/>
</svg>
