<?xml version="1.0" encoding="utf-8"?>
<!-- Generator: Adobe Illustrator 15.0.0, SVG Export Plug-In . SVG Version: 6.00 Build 0)  -->
<!DOCTYPE svg PUBLIC "-//W3C//DTD SVG 1.1//EN" "http://www.w3.org/Graphics/SVG/1.1/DTD/svg11.dtd">
<svg version="1.1" id="Layer_1" xmlns="http://www.w3.org/2000/svg" xmlns:xlink="http://www.w3.org/1999/xlink" x="0px" y="0px"
	 width="260.5px" height="260px" viewBox="0 0 260.5 260" enable-background="new 0 0 260.5 260" xml:space="preserve">
<metadata><?xpacket begin="﻿" id="W5M0MpCehiHzreSzNTczkc9d"?>
<x:xmpmeta xmlns:x="adobe:ns:meta/" x:xmptk="Adobe XMP Core 5.0-c060 61.134777, 2010/02/12-17:32:00        ">
   <rdf:RDF xmlns:rdf="http://www.w3.org/1999/02/22-rdf-syntax-ns#">
      <rdf:Description rdf:about=""
            xmlns:pdf="http://ns.adobe.com/pdf/1.3/">
         <pdf:Producer>Corel PDF Engine Version 1.0.0.458</pdf:Producer>
      </rdf:Description>
      <rdf:Description rdf:about=""
            xmlns:xmp="http://ns.adobe.com/xap/1.0/"
            xmlns:xmpGImg="http://ns.adobe.com/xap/1.0/g/img/">
         <xmp:CreatorTool>Adobe Illustrator CS5</xmp:CreatorTool>
         <xmp:ModifyDate>2019-07-30T17:39:12-05:00</xmp:ModifyDate>
         <xmp:CreateDate>2019-07-30T17:39:12-05:00</xmp:CreateDate>
         <xmp:MetadataDate>2019-07-30T17:39:12-05:00</xmp:MetadataDate>
         <xmp:Thumbnails>
            <rdf:Alt>
               <rdf:li rdf:parseType="Resource">
                  <xmpGImg:width>256</xmpGImg:width>
                  <xmpGImg:height>104</xmpGImg:height>
                  <xmpGImg:format>JPEG</xmpGImg:format>
                  <xmpGImg:image>/9j/4AAQSkZJRgABAgEASABIAAD/7QAsUGhvdG9zaG9wIDMuMAA4QklNA+0AAAAAABAASAAAAAEA&#xA;AQBIAAAAAQAB/+4ADkFkb2JlAGTAAAAAAf/bAIQABgQEBAUEBgUFBgkGBQYJCwgGBggLDAoKCwoK&#xA;DBAMDAwMDAwQDA4PEA8ODBMTFBQTExwbGxscHx8fHx8fHx8fHwEHBwcNDA0YEBAYGhURFRofHx8f&#xA;Hx8fHx8fHx8fHx8fHx8fHx8fHx8fHx8fHx8fHx8fHx8fHx8fHx8fHx8fHx8f/8AAEQgAaAEAAwER&#xA;AAIRAQMRAf/EAaIAAAAHAQEBAQEAAAAAAAAAAAQFAwIGAQAHCAkKCwEAAgIDAQEBAQEAAAAAAAAA&#xA;AQACAwQFBgcICQoLEAACAQMDAgQCBgcDBAIGAnMBAgMRBAAFIRIxQVEGE2EicYEUMpGhBxWxQiPB&#xA;UtHhMxZi8CRygvElQzRTkqKyY3PCNUQnk6OzNhdUZHTD0uIIJoMJChgZhJRFRqS0VtNVKBry4/PE&#xA;1OT0ZXWFlaW1xdXl9WZ2hpamtsbW5vY3R1dnd4eXp7fH1+f3OEhYaHiImKi4yNjo+Ck5SVlpeYmZ&#xA;qbnJ2en5KjpKWmp6ipqqusra6voRAAICAQIDBQUEBQYECAMDbQEAAhEDBCESMUEFURNhIgZxgZEy&#xA;obHwFMHR4SNCFVJicvEzJDRDghaSUyWiY7LCB3PSNeJEgxdUkwgJChgZJjZFGidkdFU38qOzwygp&#xA;0+PzhJSktMTU5PRldYWVpbXF1eX1RlZmdoaWprbG1ub2R1dnd4eXp7fH1+f3OEhYaHiImKi4yNjo&#xA;+DlJWWl5iZmpucnZ6fkqOkpaanqKmqq6ytrq+v/aAAwDAQACEQMRAD8A9U4q7FXYqwbzt+cXlHyr&#xA;dyabIZdT1uNA76XYhWkQMKqZnkaOKKtagM/IjcKchOYjzcjT6XJmNQFvnfzz5xv/ADtrcup+Y4oL&#xA;awtIiNO0ZpfrCW0QFZJnqqKZHP2m47LRQdjXDy5jL6Xo+z+zI4gTl4Sa99B3lD81vzC0G8utL0+/&#xA;KpZCMx6XqqvcQMjqHUx8ylxEpQqQEk4gMPhyzxZQq93FGgw6ky8M8JHyP48u97Na/nvqV/olvqun&#xA;eTrr6uxMV1eahfWGm2Szo3CVIbi4lBmCuGHJU3p86ZQNi3Q5IGEjE8wmGlfm5r13Rn8ovcQn9vSt&#xA;X0i+O5oPga4tyanwwsE6l/M6wt4DLe6Fr9rx+2h0u5nIHiWtlnSn+yxVIJf+civIMN/HZzwapGWL&#xA;LJL9Td1iKf79SMvKle1UyJmBzLdj02Sf0xJ+CYp+fP5VM4V9Ze3U9ZbmyvreIb0+KWaBI1+lsAyR&#xA;PIsp6TLAXKMgPczu2ube6t4rm2lSe3mUSQzRsHR0YVVlZaggjoRk3HVMVdirsVdirsVdirsVdirs&#xA;VdirsVdirsVdirsVdirsVdirsVdirsVdirEvPXmfUdPvNC8vaOVi1rzPcy2tpeyp6kVtHbwPcXE5&#xA;Sqh3WNP3aEgFjvsCMVfOXmvQbny75y1rRr25lvbv6w16t/clTPdQXRLxzOVChuO8RIUCqUAApmv1&#xA;MTxW9h2HlicPCPqid/1/oY7qulSXsZ43DJIoPpKVRkDHvxIrX/ZDKoT4S5+p03ixIv7vx9qG1vzB&#xA;ca55h1jUtQ09Idd1GdZLchQ1v6zxx20bRFiXUEqvOo+E7E5kSPHIVydPgEdNikJD1Rsg9O4V17r7&#xA;mWecWtINcu7ZfhsdAL6VYh/i9K3sD6B49ac2iMj+LEk5XqJEypy+ycMIYBMj1GySlLw286j1ESVS&#xA;NuQDAjr3yiyHbGMZcxaXmLy1HOVWG0+soalI0RpAf9VQWydy83G4cAPKPF7haKF/E1UiSUuB8IMM&#xA;qrXoByKgfjkeFt8UHYX8j+pQ0nU5tRWV3tvQhjYxUdgzM67SCgFOKtVa13p4YZxphp85yWSKA2/X&#xA;+rze6f8AOMusy/ofXPK8jEx6JdpPYKf2LS/VpFjX/JWaOWmbHDPiiC8b2npxizyA5cx8XtGWuA7F&#xA;XYq7FXYq7FXYq7FXYq7FXYq7FXYq7FXYq7FXYq7FXYq7FXYq7FWE/mvbXdvotl5psIWuL/yleJqw&#xA;gjA9SW1VHhvokr+01pNIVH8wGKpF+bnlHSfOnk+184aK4n1HTLY32m3UG4ubJ1EksBA+0JIxyTwc&#xA;D3rDJDijTlaLUnDlE+nX3PBkZXUOpDKwBVhuCD3zUvfg2hHezg8waHdXcMhtbbULS7uJk4FfTtZ1&#xA;mkXixD82iRgnAVrt7HI059TqO2Y3ioA2a7ud/jkjri4uLuaa6uCPrV07z3DDcGWVi8h361ZjlM5W&#xA;SXZYMXh44w7hTEUe/l1G60a2tl+q2jxiR3mk9Li6CQhUC81+FqcfU4+1Mu2oSLrQZmZxRHpjXU13&#xA;8ufLpxU9q/Jn8o9M81+UxrurXMttZzz3MFjY6eq2y+nbzND6juRIxLNGacOIHvmTDBHmd3TantXK&#xA;JGEKjEHoHpul/kP+WNiwebS21SVTUNqc8t2v/ImRjD/wmWiERyDrcmqyz+qRPxeU/nX+XFt5Mvbf&#xA;zB5eslh8t3spiv7C2TilrPIKq8SLsschX7I2DbDd1Ap1GK93adk68wIgeX4/HzQf5J68mmfmxYx+&#xA;oDZ+ZNPmslYEcDNbkXUDV6bp6oX55HSnmG7t/HZhkHIiv0j731FmW887FXYq7FXYq7FXYq7FXYq7&#xA;FXYq7FXYq7FXYq7FXYq7FXYq7FXYq7FXEAih3B6jFWAaRGvkTzVF5fHweU/MUsj6Eu/Cx1AgyzWQ&#xA;7LFcANLCP2WDr3UYq8Y/N38vLryzr8UGmO8Hl/UTJPbyo8ayQlSOdqikOzInMcWotFIWtRvhZ8Yi&#xA;eJ6bsrVzzR8K64evWu7kWCmEXGpwWzcpINMVZmkc8i07hlQH3RKsfmuY90L73c8PFkEeYhv8enyG&#xA;/wAQmuVuWlEFwltpmqaht6iy3Usp7/uCyLX/AGEa5YRZA9zhQmI45z63I/Lb7g+n/wAgdY8t3/5V&#xA;eXbfRL2K7awsbeLUoo2BeG7aMPOkq7Mp9Ut1G/UVGbV4J6HiqXeYtB0/zBod7ouooXs76JoZeOzL&#xA;X7Lod+Lo1GVuxAOKQSDYfHF7pWu+VfMNzpjgL5h8s3sWo2VPhSR439SOSIb/ALq4UVp25sv7OYR/&#xA;dzB6PT4yNXp5RH1jevPy8j+l9l6HrFnrWi2Gr2TcrPULeK6t2PXhMgda+9Dvma8ujcVdirsVdirs&#xA;VdirsVdirsVdirsVdirsVdirsVdirsVdirsVdirsVdirBfztbT0/LbWbi5vIbG7sYv0hpNxK6oVv&#xA;rIi4tvTLEfEZY1Wg61pirzL88dUm1G/8vanETLZXulLcWMINVV5W5ynl0HJTEN+vHbMPV9Ho+wKH&#xA;Htvt+l5PoiTJLqSTlWm+tB3ZK8avBE1BXf4enyzGn09zvNKCDO+fF/vYpplblpZeaaJLe/s1bgmq&#xA;JIC534yPFwO3hxFfvyYluD3OLkw2JR/n386pOvyx13U9Bu7a8sYvS1bTY5S9hH0vILZTPe2XavqQ&#xA;K91B/LIv/FjZnYZ2SHl+09LwxjOqP0yHmOvx5vrzTr+z1HT7bULKUTWd5ElxbTL9l4pVDow9ipBz&#xA;IdOiMVfNv5u38nnD80otH0LT3utW0GGSydIR+9mM5ilLTMKCKCIgBGlIXkWPhXGzAy9IDuuzMmPA&#xA;DlnLfkI9T+PN7l+X/liTyv5N0rQpZRNPZw0nkWvAyyMZJOFaHgHchfbMgCg6jJPikT3lkGFg7FXY&#xA;q7FXYq7FXYq7FXYq7FXYq7FXYq7FXYq7FXYq7FXYq+XPNv5v+ePM2sy3Oh6t+ivK8crJY2kKMJLq&#xA;JCVE81xE8M6+p9pVidaLStTmLk1PCaAd7o+xTlxicpcN+SX/AOJ3mgKanpFlq0hHwyXtxq1wQwr8&#xA;X+k31yx/4IfPI/m/JyD7Pd0/s/alkstnM3I6Tp0B/ktoJFT7ppZ2/wCGyB1cu5vh2BireUifgP0F&#xA;LX1RNK163vU0vTGaURWln6mn20xSWRnd5g0yTN6iBFKnZV8NzWQ1EiGnJ2PihIAmREiAPtvoipL7&#xA;VdQ1XUL/AFK9mvprmRT607cjVY1QqgFFVRxpQd65j5JmVW7fR6WOHiEfptysnqOoUhtmZuJANduv&#xA;QnbIOWDuvwMnYqnX5cT2kXnB9eZBJY+VbHUtZ1IgUBMNo9qImr3dZ2p/q5maWJsl5vt3NHhEB/Os&#xA;/DZ9DflPpR0r8svKtg1RJDpdp6oJJpI8Ku433pyY0zNeZZXirEfLXkifRvMV/qnrxlLya7mlkjQL&#xA;Pci5eKSIXbUHqG14yJEamiNQU3BVZdirsVdirsVdirsVdirsVdirsVdirsVdirsVdirsVdirsVdi&#xA;rsVfCvlm8c+UNPuY+NIYVEgNTVIiVelO9F2zWZR6yHudDk/waEh0H3c0yfWLNZIIkEs813wFnHBD&#xA;LKZ3k+xHEVUq7t2UGuRjjkeTdm1uLGLkdvcfv5KUN/rE6h000QoxIAuJgjihpuqJL1+eMoAGiUYt&#xA;RkyREox2Pea/QVX6reTyLJcukQUECOEEsOXUes1DQ0/ZVT74LA5NvhykblQ936/1AIxVVVCqAFAo&#xA;AOgGQbgKbxS7FXYqmvl61aD8v/zWW2UtcahaaVChHYXk01uVFKn7VWPjXNjpjcXju3MfDmvoRb6y&#xA;t4I7e3it4hSKFFjQeCqKD8BmQ6ZUxV2KuxV2KuxV2KuxV2KuxV2KuxV2KuxV2KuxV2KuxV2KuxV2&#xA;KuxV2KviPSLRE0G0tVpGBAiN6dCA3EcqchQ/FXqN81WQ+o+97/SRBwRA29I+5lX/ADj7p9re/mPB&#xA;q9y8sttpumXupW0MiqoVvUjt4pVjHH4nilkNfl0OZmAbl5rtaVxgbNSs1y9xrzY9p7SNp9s0oIlM&#xA;SGQHc8uIr+OYMuZerwf3cfcFM6nCbu3giHqrOXVpEIIjaNeXFx1qfDHh2Y+OOIAb3fwpfNqEEd7b&#xA;2YPOefkeI6qiKSXb2rRfmcRHa2UswEhHqfxaJyLa7FXYqz78udGW7hXSroco/Nd9ZNHGCQfqnl+Z&#xA;r26manWN5Wjttv2mPhmw0sajfe8h27mEsoiP4Q+jcyXSOxV2KuxV2KuxV2KuxV2KuxV2KuxV2Kux&#xA;V2KuxV2KuxV2KuxV2KuxV2Kvknzj5UvfJ/mW50a7jKWc8ss+iXP+657Z3LhFP+/IOfB167BujDNf&#xA;qMZBvo9f2NrYzxjGfqj9oX/lLbnTpPOuoASW8Nv5ZuILZZCGYPPMxiWoqBVhRFrl+CWxLrO1cJ8S&#xA;EQOewB9/4pJ9gPADNe9cxie4u725tZtICRmT17mEymiyGNhDyI6+nKr8qjfv75eAADxOqlOU5ROL&#xA;a+Ii+tbfI2mdpb6la2zSyQwXF6F+J0JjZ9y7LyYN+2xoOmQJBPk5WOE4RsiJl8vP70wt7iK4hWWM&#xA;nieoIowPdWB3BHcZAinIhMSFhUwM3Kk8kkUFtE091cOsNtbp9qSWQhURfdmNMlCJkaDTqM8cUDOX&#xA;IPof8t/LtrHrV1qUXGSDRbOLy1ZTrXjLJbuZtSnWv+/LthGf8qI5toihT59lyGcjI8ybeiYWDsVd&#xA;irsVdirsVdirsVdirsVdirsVdirsVdirsVdirsVdirsVdirsVdiqWeYvLWieY9Kl0rWrRLyyloSj&#xA;VDK4+y8brRkdf2WUgjEhMZEGxzfOmu+Vx5SsfO2k2+ptfwSX+i2FvNOoSdVQPqTwMyDjIwjKEtRa&#xA;r28cfJEQgadtpM+TUajHx78P6N3nOv6vZQ28tnKZFknpEzCKQqEkIVm5heJoG7HrmHjgTu9Nq9RG&#xA;IMTe+3I9Xof5F+UNP82X+sXEt1eaRd2MFmdLezFoyiznMhX4Lq3uVSQvBU0Gw4gd8zdOAAe/q8x2&#xA;vOUpx2qHD6fczj8yvJmseWtDPmQao3mLSNHQy6tpWp2GkPM9uv2pYJ4rKFg8VeRVj8Qr8anfLiLd&#xA;XGRibBopRqvkXyJqulDUfLOsW1hqvBXuNGvJPRJYj7PpzO88TN1Xkzo23E8TyzHyaYHls7jR9tZM&#xA;Zqfqj9v7fiwu18s3scKXnmW4t/KGmP8AZn1mRYrqQf8ALvYqfXkP+S3D2yqOlPUuwz9vwH0RMvfs&#xA;9M/LzyRYTXP1/RLS/iiKFF80atH9Wk4OKP8AouxYK8fNSf3861X9nmCcyseKMeTodXrsmc+o7d3R&#xA;7DYWNnYWcNlZxLBawKEiiXoFH+e5yxw1fFXYq7FXYq7FXYq7FXYq7FXYq7FXYq7FXYq7FXYq7FXY&#xA;q7FXYq7FXYq7FXYq+dvzq8u+YNP1m9uYXhi0rUr06nFdXjNHameS0tbOSCW4oY4JIxZcovWKowkI&#xA;5grQ1ZcfGKc7s/Wfl58VXezzW80mWYRLqcDRlSJYkV29NuLfDKjDhzAZfhIqK9PHNfIGBevxZMeo&#xA;iDd13H+w/NH/AJSebtX8keabm2hkeZNVmsLKOyZY/RYevIkX7w8TGrfWW4kHirVBqAitm4JgvN9q&#xA;aWcTfMR29w6fD7jtyp9f3lpa3tpPZ3cSz2tzG0NxBIAyPHIpV0YHYhlNCMyHTMOh/KbR7SCK003W&#xA;Na07T4RwhsrbUJgiRdoUd+cyRjsFkFO2KpjoH5a+RNAujeaZo1umoE8jqMwa5vCelTc3BlnP/B4q&#xA;yXFXYq7FXYq7FXYq7FXYq7FXYq7FXYq7FXYq7FXYq7FXYq7FXYq7FXYq7FXYq7FXYq4gEUO4PUYq&#xA;w3zN+UXkTX429XTl0+7LGQXun0tZfVIpzcIPTlNP9+qwyMogii24c08cuKJovnv8yvy7vvKt9FY6&#xA;u4uNOvy8Wl6xEPT5sRUwyL8XpzUFQN1elV3HFcLJhMNxyem0naENUPDybT+/8dzL9E/5yTvdF8tr&#xA;pmtaVLqvmPT03vjMlva3Fqmy3E0zCRkloKSKsbVILCgNBkRzgi3UZuyskchiPpAuz3PSfJn5u2Hm&#xA;Kx0a6u9IvNHGtGSKze5a3aN54HMUsahJfrFFkHHlJAgrQGhIGXusLPsUOxV2KuxV2KuxV2KuxV2K&#xA;uxV2KuxV2KuxV2KuxV2KuxV2KuxV2KuxV2KuxV2KuxV2KuxV2KpV5o8taV5m0G80PVY/Usr2Mo9K&#xA;B0bqkkbGvF42AZW7EYpBINh5F5W/5x21GDX4Z/NGpWuo6PYyLLDbQROr3bRNyi+tBzxVFYBmjXkG&#xA;O1eNQaIYBE27PU9q5MuPgNDv83p6fl75UTWk1hbVvrUdzJfxxmWVoFuphSSZIWYxoz/abiAC3xkc&#xA;/iy91bI8VdirsVdirsVdirsVdirsVdirsVdirsVdirsVdirsVdirsVdirsVdirsVdirsVdir/9k=</xmpGImg:image>
               </rdf:li>
            </rdf:Alt>
         </xmp:Thumbnails>
      </rdf:Description>
      <rdf:Description rdf:about=""
            xmlns:dc="http://purl.org/dc/elements/1.1/">
         <dc:format>image/svg+xml</dc:format>
         <dc:title>
            <rdf:Alt>
               <rdf:li xml:lang="x-default">Graphic1</rdf:li>
            </rdf:Alt>
         </dc:title>
      </rdf:Description>
      <rdf:Description rdf:about=""
            xmlns:xmpTPg="http://ns.adobe.com/xap/1.0/t/pg/"
            xmlns:stDim="http://ns.adobe.com/xap/1.0/sType/Dimensions#"
            xmlns:xmpG="http://ns.adobe.com/xap/1.0/g/">
         <xmpTPg:NPages>1</xmpTPg:NPages>
         <xmpTPg:HasVisibleTransparency>False</xmpTPg:HasVisibleTransparency>
         <xmpTPg:HasVisibleOverprint>False</xmpTPg:HasVisibleOverprint>
         <xmpTPg:MaxPageSize rdf:parseType="Resource">
            <stDim:w>3.618056</stDim:w>
            <stDim:h>3.611111</stDim:h>
            <stDim:unit>Inches</stDim:unit>
         </xmpTPg:MaxPageSize>
         <xmpTPg:PlateNames>
            <rdf:Seq>
               <rdf:li>Cyan</rdf:li>
               <rdf:li>Magenta</rdf:li>
               <rdf:li>Yellow</rdf:li>
               <rdf:li>Black</rdf:li>
            </rdf:Seq>
         </xmpTPg:PlateNames>
         <xmpTPg:SwatchGroups>
            <rdf:Seq>
               <rdf:li rdf:parseType="Resource">
                  <xmpG:groupName>Default Swatch Group</xmpG:groupName>
                  <xmpG:groupType>0</xmpG:groupType>
               </rdf:li>
            </rdf:Seq>
         </xmpTPg:SwatchGroups>
      </rdf:Description>
      <rdf:Description rdf:about=""
            xmlns:xmpMM="http://ns.adobe.com/xap/1.0/mm/"
            xmlns:stRef="http://ns.adobe.com/xap/1.0/sType/ResourceRef#"
            xmlns:stEvt="http://ns.adobe.com/xap/1.0/sType/ResourceEvent#">
         <xmpMM:RenditionClass>proof:pdf</xmpMM:RenditionClass>
         <xmpMM:DocumentID>xmp.did:3E2FBCB4602268118083CBD79E2D0B08</xmpMM:DocumentID>
         <xmpMM:InstanceID>xmp.iid:3E2FBCB4602268118083CBD79E2D0B08</xmpMM:InstanceID>
         <xmpMM:OriginalDocumentID>uuid:d905e96d-f857-1841-96cb-3ad5eac1a17a</xmpMM:OriginalDocumentID>
         <xmpMM:DerivedFrom rdf:parseType="Resource">
            <stRef:instanceID>xmp.iid:3D2FBCB4602268118083CBD79E2D0B08</stRef:instanceID>
            <stRef:documentID>xmp.did:3D2FBCB4602268118083CBD79E2D0B08</stRef:documentID>
            <stRef:originalDocumentID>uuid:d905e96d-f857-1841-96cb-3ad5eac1a17a</stRef:originalDocumentID>
            <stRef:renditionClass>proof:pdf</stRef:renditionClass>
         </xmpMM:DerivedFrom>
         <xmpMM:History>
            <rdf:Seq>
               <rdf:li rdf:parseType="Resource">
                  <stEvt:action>saved</stEvt:action>
                  <stEvt:instanceID>xmp.iid:0480117407206811822AA7B5CEB4ED6F</stEvt:instanceID>
                  <stEvt:when>2015-02-06T21:35:57-06:00</stEvt:when>
                  <stEvt:softwareAgent>Adobe Illustrator CS6 (Macintosh)</stEvt:softwareAgent>
                  <stEvt:changed>/</stEvt:changed>
               </rdf:li>
               <rdf:li rdf:parseType="Resource">
                  <stEvt:action>saved</stEvt:action>
                  <stEvt:instanceID>xmp.iid:F87F1174072068118083CBD79E2D0B08</stEvt:instanceID>
                  <stEvt:when>2019-07-22T14:07:25-05:00</stEvt:when>
                  <stEvt:softwareAgent>Adobe Illustrator CS5</stEvt:softwareAgent>
                  <stEvt:changed>/</stEvt:changed>
               </rdf:li>
               <rdf:li rdf:parseType="Resource">
                  <stEvt:action>saved</stEvt:action>
                  <stEvt:instanceID>xmp.iid:3C2FBCB4602268118083CBD79E2D0B08</stEvt:instanceID>
                  <stEvt:when>2019-07-30T16:34:09-05:00</stEvt:when>
                  <stEvt:softwareAgent>Adobe Illustrator CS5</stEvt:softwareAgent>
                  <stEvt:changed>/</stEvt:changed>
               </rdf:li>
               <rdf:li rdf:parseType="Resource">
                  <stEvt:action>saved</stEvt:action>
                  <stEvt:instanceID>xmp.iid:3D2FBCB4602268118083CBD79E2D0B08</stEvt:instanceID>
                  <stEvt:when>2019-07-30T17:37:16-05:00</stEvt:when>
                  <stEvt:softwareAgent>Adobe Illustrator CS5</stEvt:softwareAgent>
                  <stEvt:changed>/</stEvt:changed>
               </rdf:li>
               <rdf:li rdf:parseType="Resource">
                  <stEvt:action>saved</stEvt:action>
                  <stEvt:instanceID>xmp.iid:3E2FBCB4602268118083CBD79E2D0B08</stEvt:instanceID>
                  <stEvt:when>2019-07-30T17:39:12-05:00</stEvt:when>
                  <stEvt:softwareAgent>Adobe Illustrator CS5</stEvt:softwareAgent>
                  <stEvt:changed>/</stEvt:changed>
               </rdf:li>
            </rdf:Seq>
         </xmpMM:History>
      </rdf:Description>
   </rdf:RDF>
</x:xmpmeta>
                                                                                                    
                                                                                                    
                                                                                                    
                                                                                                    
                                                                                                    
                                                                                                    
                                                                                                    
                                                                                                    
                                                                                                    
                                                                                                    
                                                                                                    
                                                                                                    
                                                                                                    
                                                                                                    
                                                                                                    
                                                                                                    
                                                                                                    
                                                                                                    
                                                                                                    
                                                                                                    
                           
<?xpacket end="w"?>
	</metadata>
<g>
	<path d="M256.338,84.266c-4.324-11.788-9.24-23.247-12.044-35.485c-2.808-8.121-3.163-17.241-7.253-24.916
		c-6.083-13.012-23.043-5.67-33.686-10.345l-13.221,1.004c-19.884,2.331-38.83-9.346-57.537-0.224
		c-2.349-2.561-4.101-4.896-7.027-6.898c-7.954-1-14.036-6.451-21.875-7.784c-6.783-1.224-9.006,6.339-12.63,9.898
		c-6.667,3.447-14.267,4.562-19.999,10.119c-2.923,7.348-14.501,10.015-14.501,18.91c1.517,8.015,4.325,15.463,8.42,22.474
		c9.822,11.568,18.597,23.473,19.883,38.49l-1.987,2.114c-14.857,5.562-31.932,0.218-48.307,3.447
		c-8.657,1.449-18.133,1.224-24.912,6.894c-3.274,4.009-5.616,8.346-6.197,13.35c0.464,13.683,0.113,30.036,1.4,44.052
		c1.875,13.35,17.778,20.028,26.899,28.589c-1.169,5.562-3.623,11.346-1.868,17.354c1.404,5.451,6.552,10.012,12.049,11.789
		c14.03,3.338,28.417,7.789,37.542,20.805c5.966,4.004,6.547,13.346,15.203,12.568c7.604-2.447,9.946-10.568,14.857-15.24
		c0.351,3.004,1.167,5.785,3.625,8.014c1.987,1.109,4.445,1.662,6.783,0.994c1.287-0.994,3.278-2.112,3.629-4.004
		c0.932-2.885,0-6.116-2.809-7.674c-2.458-1.447-5.966-1.558-9.005-1.109l-3.275-2.672c-4.679-1.223-8.185,1.785-11.813,3.781
		c-6.082-4.895-9.71-11.568-14.036-17.576c1.171-2.334,3.274-4.78,1.637-7.565c-0.82-1.558-2.107-2.89-3.859-3.446
		c-1.638-1-3.625,1-4.796-0.775c-0.351-5.785,2.458-12.24-2.573-16.801c1.051-1.334,2.338-2.558,3.159-4
		c5.381,1.553,11.929,1.442,17.9,1.004c3.385,1.328,6.078,4.004,9.001,6.447c1.522,2.336,0.466,5.678,1.987,8.008
		c3.368,5.711,10.699,5.061,16.999,5.836c10.632-2.868,22.591-5.535,32.059-10.561c8.873-4.703,13.698-10.564,19.694-17.23
		c6.601-12.793,10.311-25.926,14.75-39.435c0.441-8.683,1.681-17.541,2.891-26.134c0.667-4.735,1.191-9.616,2.466-14.271
		c-4.692-10.904-9.892-23.052-22.302-28.467c-0.581-7.337,1.752-14.127,3.273-20.804c1.051-1.776-0.82-3.778,0.584-5.336
		c3.625-1.449,6.67-4.117,10.645-4.562c10.408,1.557,17.896-3.778,27.604-3.778c12.398,12.57,16.959,29.142,28.539,42.491
		l0.35,2.113c-0.35,3.222-2.338,6.561-5.377,8.008c-1.057,1.445-2.107,3.002-1.643,5.116c4.445,3.113-2.338,5.119-1.4,8.455
		c0.234,2.002,1.4,3.892,3.043,5.115c2.103,0.557,4.676,1.336,6.429-0.553c1.521-1.445,2.106-3.561,1.411-5.566
		c-0.94-1.998-3.049-3.445-5.036-4.338C247.684,99.397,258.091,94.501,256.338,84.266z"/>
	<path fill="#D13239" d="M125.572,11.072l5.384,5.898c-3.863,5.782-5.619,12.233-7.021,18.91c-3.508-2.114-8.074-2.114-10.997-5.008
		l0.585-1.889c1.171,0.774,2.223,2.447,3.394,2.893c0-1.783-2.223-3.344-2.573-5.342l3.039,2.449
		c0.936-2.002-2.808-3.673-2.453-6.12c1.402,1.112,1.637,3.114,3.389,3.671c0.116-2.888-3.509-5.006-3.389-8.233
		c2.103,1.782,4.676,5.12,7.249,7.235c1.171-1.008-0.816-2.115-0.581-3.451c1.987-1.335,5.026,2.669,5.376-0.337
		c-3.039-2.555-8.185-1.557-9.826-6.114c1.171-3.226-0.466-6.561-3.625-8.01c-0.466-0.107-0.585,0.333-0.816,0.559
		c1.167,1.777,2.688,4.112,1.637,6.114c-1.756-2.893-4.094-6.562-7.604-7.788l-0.585,0.559c2.458,2.006,3.86,4.895,4.795,7.788
		c-1.872,0.891-4.325,2.667-7.018,1.557c-1.402,0.779,1.171,1.336,0.821,2.447v2.889c-3.629-2.222-7.604-3.893-12.049-4.226
		c-0.351,0.226-0.701,0.559-0.586,1.004c4.681,2.113,10.293,3.222,13.22,8.008c-1.872-0.224-5.616-0.111-5.266-3.445
		c-0.586-0.67-1.287-1.004-1.988-1.004c-0.7,0.887,1.052,4.118-1.987,3.667c-2.688,0.226-5.496,1.557-7.018,3.231
		c3.86,0.107,7.834-2.561,12.044-0.782c3.159,2.671,8.659,3.004,9.826,7.455c3.86,4.115,9.826,5.673,12.399,10.681
		c-4.68-0.334-8.42-5.12-12.049-8.01c-2.804-3.449-6.082-7.9-10.758-8.013c8.3,4.782,12.865,15.019,21.986,18.91l-0.582,5.342
		c-2.577,0.782-4.565-1.112-6.437-2.336c-1.517,0.891,0.35,1.895,0.471,2.893c1.291,3.226,8.304,1,4.795,5.895
		c-1.051,4.337-2.342,8.566-4.21,12.57c-0.932-0.671-0.585-2.113-1.991-2.447c-0.816,1.336,0.47,3,0,4.783
		c-0.351,4.674-4.912,8.008-3.274,13.123c-4.795,2.78-6.898,9.233-12.98,9.35L97.5,99.172c-3.625-8.008,3.279-15.348,1.637-23.688
		c1.987-2.006,4.911-2.447,6.787-4.342c-2.808-1.111-5.146,1.669-8.424,1.112h-1.402c-10.878-10.12-9.822-25.138-20.82-35.04
		c-2.107-4.113-5.266-8.562-3.629-13.566l8.189-7.46c7.37-1.331,15.208-3.113,20.234-8.786c-0.116-0.44,0.239-0.892-0.351-1.111
		L94.69,9.742c1.872-2.898,4.095-6.344,7.604-8.01C110.835,3.064,117.618,8.518,125.572,11.072"/>
	<path fill="#FFFFFF" d="M199.962,16.747c-16.608,5.894-35.321,2.224-53.103,0.998c-3.274,0.333-7.02,1.337-10.059,3.231
		c-6.781,4.89-5.381,14.235-6.781,21.354c-1.056,6.45-3.047,12.463-6.086,18.131c3.626-13.457,0.937-31.369,10.88-43.273
		c17.074-5.782,35.789,0.783,53.918,0.558L199.962,16.747z"/>
	<path fill="#FFFFFF" d="M110.134,30.096c-1.637-2.559-5.266-6.123-2.223-9.345c-1.171-2.555,1.988-2.893,3.039-4.338
		C111.771,20.302,112.356,26.092,110.134,30.096"/>
	<path fill="#D13239" d="M233.062,23.864c7.138,14.017,6.201,31.144,13.805,44.942c1.988,7.677,10.178,15.014,5.617,23.473
		c-1.992,2.332-3.984,5.116-7.022,5.895c-2.338-2.116-4.33,2.335-6.782,3.114c-2.459-4.451,4.094-6.007,5.025-9.791
		c1.404,0.224,2.229,3.226,3.744,1.557l-3.154-5.561c1.992-1,4.791,2.006,5.963-0.559c-1.873,0.671-3.273-1.224-4.796-1.889
		c-4.444-7.006-3.394-16.13-9.591-22.471c-5.146-7.118-13.102-13.681-14.268-22.688c-0.937-0.449-1.643-2.449-2.81-1.557
		c2.224,3.555,2.573,7.784,3.86,11.788c6.08,9.902,17.074,17.798,18.244,29.587c-4.795-8.008-10.877-16.13-15.086-24.581
		c-3.511-4.337-7.02-8.564-8.774-13.573c-1.167-3.446,1.871-5.228,2.808-7.784c2.344-1.557,5.146-2.447,5.967-5.008
		c-2.342-0.998-5.031,0.333-7.019,1.782c-1.756-0.445-3.744-0.226-5.03,0.887c0,1.224,1.639,0.89,2.459,1.337
		c-0.703,0.445-0.121,1.443-1.054,1.776c-2.804-1.331-3.043-4.89-4.795-6.896c-1.521,2.671,2.338,8.346-3.629,8.013
		c-13.451,1.664-29.705,0.107-41.289,7.455c-1.867,0.553-2.688-2.562-4.209-1.004c1.401,1.224,1.401,4.337,4.209,4.006
		c7.84-3.673,16.024-6.677,25.267-7.235c7.604,0.675,13.92-0.667,20.469-3.222c1.175,0.778,3.39,1.331,3.043,3.222
		c-3.158,3.562-9.24,1.672-13.451,3.677c-4.096,2.333-8.774,1.109-13.455,2.221c-7.133,1.005-12.865,6.785-20.814,4.229
		c-6.787-1.89-14.736-4.896-17.896-11.792c-1.407,0.441-2.108-2.224-3.394-0.441c0.469,4.222,7.017,6.893,5.028,11.455
		c1.287-0.444,1.401-1.668,1.754-2.668c3.627,1.998,8.188,3.666,12.634,5.004c-5.968,1.664-13.451-0.226-18.832-3.114
		c-0.466,0-1.172-0.333-1.406,0.22v0.778l9.242,4.789c0.699,8.786-2.338,16.794-2.806,25.356c0.701,3.34,3.39,6.006,1.638,9.683
		c6.547,4.671,9.121,11.675,12.164,17.902c0.937-3.113-1.521-6.113-2.339-9.12c-1.991-2.78-3.157-5.894-6.086-8.229
		c0.354-4.004-0.347-8.121-2.803-11.233c0.815-4.674,1.517-9.345,3.037-13.683c0.235,0.558,0.704,0.22,1.172,0.334
		c1.287-1.224-1.172-2.669-0.351-4.006c1.4,0.446,1.638,2.335,3.158,2.668c0.23-2.113-2.693-3.892-2.574-5.894
		c1.639,0.778,2.34,3.78,4.211,5.115l0.582-0.553c-0.932-2.673-3.039-4.786-3.625-7.451c2.572,1.665,2.338,5.004,5.267,6.114
		c0.351-2.334-1.642-4.342-2.458-6.455l3.624,4.008l0.586-0.553c-0.701-1.449-1.638-2.898-1.985-4.453
		c1.752-0.774,2.922,1.888,4.209,2.67c1.172-1.115-2.688-5.002,1.637-4.004c0.701,0,1.401-0.224,1.758,0.441
		c-1.521,13.13-6.434,25.475-5.146,39.044c1.051,3.673,5.146,6.119,6.783,9.57c1.521,2.556,1.637,6.007,3.975,8.009l0.472-0.558
		c0-3.78-0.82-7.231-2.459-10.345v-2.447c0.7-0.107,1.286,0.667,1.639-0.224c-0.587-1.107-1.287-2.665-2.81-3.002
		c-0.582,0.111-1.286-0.112-1.637,0.553l0.82,3.231c-1.992-2.673-2.107-7.677-1.992-12.014c8.074,6.784,12.4,15.796,10.412,26.473
		c-2.107,6.12-3.744,12.455-5.031,18.906c-0.229-3.555-0.465-8.341-1.986-12.008l-0.812,0.778
		c-2.932,7.451,1.281,14.13,3.385,20.578c0.351,7.455,3.278,15.797-2.338,21.914c-4.795,13.125-10.061,29.479-26.314,33.931
		l-19.067,6.337c-11.932-8.898-25.148-15.797-41.057-14.902c-3.039-0.447-7.719,0.891-10.057-1.113l-0.351-5.562
		c2.339,1.224,3.274,4.228,5.612,5.004c0.35-2.337-2.458-2.78-3.273-5.004c-0.937-1.442-2.574-3.117-1.753-4.558
		c2.103,1.225,3.39,6,6.433,6.115l-0.821-1.896c1.287-0.442,2.458,2.562,3.975,2.228c-0.351-1.443-1.402-2.447-1.752-3.783
		l4.561,3.23c0.47-1.451-1.872-2.447-1.983-4.004c0.581,0.329,1.167,1.662,1.983,0.771c1.637,0.558,1.987,2.897,3.86,2.897
		c0.585-1.224-1.402-2.112-1.637-3.455c3.625-0.108,7.955-0.108,10.993,2.114c3.159,5.679,9.241,9.012,14.857,11.234l0.231-0.215
		c-4.206-3.785-9.942-7.236-12.044-12.354c-3.509-3.225-8.305-1.33-12.635-2.671l-5.377-0.776c1.752-2.557,0.937-7.23,3.975-9.902
		c-0.116-0.332,0.235-0.775-0.235-0.996c-4.561,2.33-3.859,7.562-7.019,10.898c-2.217-0.663-4.089-3.004-5.376-4.562
		c-1.988-5.34,1.167-10.455,0.582-15.683c-1.637,0.888-2.103,3-2.804,4.224c-1.171-1.994-1.406-5.004-3.628-6.116
		c0.585,7.897,5.617,15.796,1.406,24.026c-0.937-2.89-2.573-6.004-4.21-8.783c0.701-1.338,3.273-2.78,2.804-4.564
		c-1.518,0.78-3.389,1.67-5.146,1.337l-6.433-5.563l-0.816,0.451c7.599,8.449,16.725,18.791,11.809,30.475
		c-1.752,5.117-6.432,9.122-9.587,13.572c-1.171,0.22-3.509-0.113-2.808-1.558c3.509-3.228,2.339-8.459,4.21-12.016l2.222,1.333
		c0.816-1.442-0.585-2.78-0.47-4.225l1.872,1c1.171-1.332-0.936-2.451-0.23-3.674c0.932,0.113,1.401,2.342,2.573,0.784
		c-0.12-1.224-1.172-2.004-1.172-3.228c0.466,0.328,1.052,0.328,1.402-0.225c-1.167-1.775-1.167-4.004-1.636-5.895
		c-1.638,0.775-1.522,3.224-2.339,4.779c-4.561,5.342-6.082,11.465-6.667,18.135c-0.586,1.775-2.574,3.671-4.561,4.004
		c-3.274,0.553-5.616-1.225-8.422,0.553c2.22,1.895,5.029,3.451,8.422,3.229c0.585,0.447,0.466,1.891,1.752,1.342
		c1.757-0.895-1.401-3.898,1.987-3.008c0.235,3.341-3.274,6.341-6.195,8.341c-0.818,0-1.406,0.446-1.987,1.004v0.554
		c3.156,0.113,6.315-1.109,9.004-2.887c3.859,0.996,5.146,5.333,7.252,8.229c3.741,7.012,9.942,13.125,17.426,16.576h0.586
		c1.752,5.672,11.463,8.784,7.834,16.016c0.12,0.334,0.47,0.221,0.821,0.221c1.522-1.225,2.338-3.333,2.573-5.333
		c1.872,0.662,0.816,3.333,3.039,3.442c1.992-2.891-5.377-5.117,0-7.451c1.992-1.113,4.445-2.67,6.787-1.338l0.816,0.781
		c-7.133,3.67-7.949,18.805-18.832,14.238c-2.573-1.895-2.688-4.561-4.441-6.674c-8.424-11.236-20.238-16.244-30.878-24.028
		l-12.632-6.118c4.56-2.332,9.121,1.559,13.45,2.896l0.231-0.224c-4.561-4.229-10.993-8.013-17.661-5.67
		c-0.585-0.338-1.404-0.785-1.636-1.338c0-5.232,3.278-9.123,4.442-13.906c1.056-7.789,1.174-15.572,4.211-22.914
		c-1.75-7.342,1.992-14.463,2.225-21.914c-0.936-6.451-1.402-14.797,4.795-18.354c17.196-0.112,34.741-5.004,42.691-20.583
		c3.043-5.228-2.808-11.9,2.808-16.012c4.445-4.01,10.762-4.788,14.272-9.683c1.401,4.337,0.466,9.233,0.35,13.35
		c0.116,0.337,0.466,0.337,0.816,0.337c6.552-6.568-0.701-14.69,2.227-22.14c2.804-6.231,5.611-12.352,8.42-18.465
		c7.487-10.565,8.657-22.916,10.184-35.818c0.696-4.118,4.557-7.006,8.646-8.014c11.93-1.998,23.743,1.557,35.676,1.115
		c13.217,1.224,23.042-6.561,35.907-4.562C221.604,16.971,228.501,18.304,233.062,23.864"/>
	<path fill="#FFFFFF" d="M69.662,32.763c2.223,5.786,5.031,11.685,9.827,16.241c5.731,8.234,6.317,19.024,15.793,25.363
		c-2.457,1.558-3.863,3.671-5.03,6.118l0.47,0.559c2.333-1.115,3.62-4.562,6.543-4.229c1.406,5.12-2.453,9.012-2.804,13.79
		c-0.705,4.454,3.745,10.236-0.585,13.688c-0.701-0.778,0.235-2.116-0.821-2.669c-1.872,0.886-1.171,3.335-1.752,5.004
		c-3.625,0-6.316,1.891-9.241,3.562c-1.987,0.441-3.043-1.894-4.445-2.231c-0.115-2.888,5.147-0.886,7.253-2.664
		c2.339-0.669,5.027-2.118,5.852-4.453c-0.705-1.112-2.462,0.444-2.812-1.332c0.235-21.471-19.999-34.712-26.081-53.73
		c-1.756-4.111-1.521-10.01,0.816-13.901c1.406-1.669,3.282-3.451,5.381-4.009L69.662,32.763z"/>
	<path fill="#D13239" d="M123.35,38.104v2.888c-2.693-1.224-4.915-2.555-6.783-5.111C119.021,36.214,121.598,36.103,123.35,38.104"
		/>
	<path d="M110.95,67.47c-4.094,0-8.42,1.668-12.28,2.339c3.159-3.451,7.484-4.562,12.28-3.229V67.47z"/>
	<path fill="#FFFFFF" d="M186.747,97.839c1.987,5.008,5.146,10.788,2.224,16.355c-3.511,11.674-3.629,25.697-4.215,37.595
		c-1.518,6.455-7.135,11.234-7.014,18.467c-3.51,10.346-7.721,22.023-19.652,27.475c-10.293,5.455-22.107,7.565-32.752,12.235
		c-4.796,0.558-11.229,1.562-14.973-1.89c-1.521-1.443-2.337-3.229-3.043-5.004c3.628,2.447,7.253,5.337,12.399,4.557
		c12.872-2.333,23.515-10.008,35.913-13.684c17.662-7.45,14.614-26.471,24.681-38.709c0.115-7.676-0.119-16.018-0.82-23.688
		c0.936-11.795,9.941-22.364,4.211-34.711c-2.339-5.006-5.497-9.677-9.008-14.24C180.195,86.717,183.354,92.497,186.747,97.839"/>
	<path fill="#FFFFFF" d="M242.654,107.184c-1.988,2.336,2.922,5.338-1.988,5.895c-1.637-1-0.701-4.004-3.389-3.784
		c-0.705,0.559-1.057,1.111-0.822,1.894c-0.35-1.668-0.699-3.004,0.236-4.561c1.051-1.333,3.158-0.778,4.561-0.447
		C241.716,106.294,242.188,106.847,242.654,107.184"/>
	<path fill="#FFFFFF" d="M76.214,106.627c-1.056,1-1.757,5.337-4.21,3.559c-10.412-2.559-21.407-0.111-31.234,1.778
		c-7.015-0.109-15.435-1.89-21.637-1.333c10.649-3.562,23.275-3.113,34.856-3.447C61.943,107.405,68.26,108.076,76.214,106.627"/>
	<path fill="#D13239" d="M90.716,113.858c1.167-0.671,1.522-2.002,1.757-3.226c1.402,3.893,0,9.008-2.809,12.342
		c-4.915,5.345-11.813,7.455-18.246,9.904c-10.062,4.122-23.279-1.334-31.232,7.675c-3.156-0.666-7.952-2.447-10.644,0.557v0.562
		l7.833,1.558c0.123,1.666-0.927,3.67-2.451,5.113c-5.734-0.891-8.42-6.451-11.581-10.455c-1.754-2.338-1.987-5.342-4.21-7.457
		c-1.169-0.107-1.287,1.226-1.87,1.896c0.466,2.779,2.923,4.113,4.677,6.337c1.521,3.008-0.814,8.569,3.158,10.459
		c0.938-1.228-0.699-3.228,0.237-4.784c2.219,2,4.678,4.784,7.602,5.895c-3.86,1.447-8.889,0.891-12.049-1.666
		c-0.702-0.225-1.287,0.224-1.4,0.775c1.4,3.229,5.493,3.451,8.653,4.338c1.638,4.562-5.148,5.23-4.214,9.568
		c1.521,3.447,0,9.008,5.383,9.898c0.586,0.666,0.586,1.557,1.404,2.112c1.987-1.557-0.237-3.557-0.351-5.337
		c-1.755-1.781-4.097-4.229-2.81-7.23c4.797-2.229-0.469-10.902,6.785-9.789c-0.237,7.562-3.04,14.572-1.988,22.356
		c-2.455,2.562-6.435,2.896-8.424,5.675c0.121,0.553,0.703,0.891,1.171,1.338c3.156-0.113,5.148-2.78,7.604-4.564
		c0.699,5.229,0.586,10.463-0.587,15.688c-10.057-5.898-23.038-13.127-24.675-25.361c-0.7-7.23-2.342-15.577-0.938-22.357
		c0.237,1.559,0.701,3.447,1.756,4.225c2.923-11.793-8.076-27.365,5.029-36.041c12.049-3.118,25.029,3.671,36.725-1.335
		c7.253-1.783,16.49-2.449,23.393,0.557c-0.351,2.776-1.052,7.006,1.637,8.562c0.821-2.89-0.821-6.453,1.637-9.119v-2.116
		c2.693-0.89,3.394,3.226,5.967,1.557c2.222-1.557,4.795-2.672,7.604-3.113L90.716,113.858z"/>
	<path fill="#FFFFFF" d="M238.678,113.078c-0.35,0.226-1.757-0.557-1.986-1.331L238.678,113.078z"/>
	<path d="M82.296,113.078c-1.406,2.559,1.637,6.339-0.235,9.119c-1.636,1.338-3.39,3.671-5.03,4.454
		c1.526-3.783,3.859-7.346,3.394-12.017C80.774,113.968,81.48,113.078,82.296,113.078"/>
	<path d="M117.969,119.529c-0.586,1.895-2.223,0.89-3.394,0.226l0.354-1.338C115.746,119.195,117.267,118.529,117.969,119.529"/>
	<path fill="#FFFFFF" d="M42.529,170.699c1.75,10.13-5.266,19.138-3.979,29.705l-4.796,14.902c0.472,1,0.117,2.558,1.404,3.004
		h0.581c6.439,4.676,14.86,6.338,21.643,11.123c-9.357-4.451-25.03-4.676-25.265-18.135c2.808-16.234,4.795-31.697,4.795-49.048
		c0.938-8.017,1.406-16.69,9.241-21.365C43.579,150.126,45.336,161.134,42.529,170.699"/>
	<path d="M94.11,168.361c0.937-1.662,2.689-3.447,2.804-5.666c2.692-1.785,3.979-4.676,5.031-7.455
		C101.709,160.021,99.957,166.252,94.11,168.361"/>
	<path fill="#D13239" d="M83.232,177.374c-1.637-1.114-1.872-3.224-2.808-4.781l3.269,4.343L83.232,177.374z"/>
	<path fill="#FFFFFF" d="M128.383,202.292c-3.631,3.337-9.594,3.562-14.274,1.78l-12.635-9.788c3.164,0.333,7.369,2.004,10.882,3.67
		c0.351-0.108,0.351-0.442,0.351-0.776c-9.01-8.791-23.624-5.228-35.091-7.234c-0.35-2.662,2.347-1.439,3.86-2.113
		C99.606,185.387,115.396,191.391,128.383,202.292"/>
	<path fill="#D13239" d="M73.406,211.633c-2.338-1.443-6.317-4.775-5.616-7.783l3.042-4.562
		C75.394,201.734,73.171,207.296,73.406,211.633"/>
	<path fill="#D13239" d="M85.104,233.438c-5.731-2.446-9.01-9.451-13.1-14.346c-2.343-3.341-4.445-7.787-8.775-9.345v-5.118
		C68.965,215.084,79.488,222.982,85.104,233.438"/>
	<path fill="#FFFFFF" d="M82.647,218.755l-0.586,0.558c-0.585-0.78-1.636-2.558-3.39-1.891l-1.056,1.666
		c-0.465-0.771-1.051-1.333-1.167-2.113C78.553,215.084,82.061,215.975,82.647,218.755"/>
	<path fill="#FFFFFF" d="M81.826,221.982c0,0.442-0.465,0.553-0.585,0.779l-1.752-1.783
		C80.54,220.759,81.476,221.088,81.826,221.982"/>
	<path fill="#FFFFFF" d="M121.127,244.673c0.701,1.671,2.223,3.78,0.816,5.562c-1.867-0.996,0.471-6.338-3.625-4.442
		c-1.052,0.438-0.701,1.772-0.35,2.329c1.521,1.117,1.637,3.004,1.171,4.561c-3.86,1.892-2.923-6.004-6.202-2.447
		c-1.167-1.328-1.402-3.557-0.816-5.332c0.585-0.784,1.051-2.008,2.222-2.118C116.917,242.673,119.371,242.893,121.127,244.673"/>
</g>
<text transform="matrix(1 0 0 1 216.2783 196.1689)" display="none" fill="#FFFFFF" font-family="'Roboto-Medium'" font-size="102" letter-spacing="2">Dezine It!</text>
</svg>
